<svg id="svg" version="1.1" xmlns="http://www.w3.org/2000/svg" xmlns:xlink="http://www.w3.org/1999/xlink" width="400" height="194.05320813771516" viewBox="0, 0, 400,194.05320813771516"><g id="svgg"><path id="path0" d="M370.015 0.664 C 369.481 0.933,368.877 1.155,368.673 1.158 C 368.098 1.168,358.906 3.999,355.944 5.080 C 354.448 5.625,352.653 6.224,351.965 6.407 C 350.957 6.675,347.541 7.957,347.298 8.159 C 347.170 8.265,346.421 8.577,345.634 8.852 C 342.213 10.046,333.398 13.586,331.684 14.454 C 331.417 14.589,330.849 14.810,330.422 14.944 C 329.608 15.200,329.164 15.417,327.414 16.416 C 326.827 16.751,325.661 17.385,324.823 17.826 C 323.985 18.267,323.025 18.852,322.688 19.127 C 322.352 19.402,321.334 20.114,320.427 20.709 C 319.520 21.305,318.603 21.946,318.389 22.134 C 318.176 22.323,317.408 22.800,316.684 23.196 C 314.620 24.323,313.989 26.265,315.154 27.902 L 315.571 28.488 315.136 28.772 C 314.897 28.929,314.253 29.284,313.704 29.562 C 313.156 29.840,312.581 30.193,312.428 30.346 C 312.275 30.499,311.632 30.900,310.999 31.238 C 310.367 31.575,309.064 32.333,308.103 32.923 C 305.733 34.378,301.090 36.923,299.085 37.864 C 298.182 38.288,297.396 38.700,297.339 38.779 C 297.281 38.857,296.075 39.434,294.658 40.059 C 293.241 40.685,292.034 41.275,291.974 41.371 C 291.915 41.467,290.760 42.114,289.407 42.809 C 288.055 43.504,286.424 44.385,285.784 44.767 C 284.594 45.478,281.979 46.919,280.932 47.441 C 280.611 47.600,279.127 48.173,277.632 48.714 C 276.138 49.254,274.740 49.780,274.527 49.881 C 272.776 50.712,268.353 51.431,264.993 51.431 L 262.207 51.431 260.895 50.530 C 258.173 48.661,255.977 47.966,248.422 46.584 C 244.922 45.944,238.604 44.522,238.040 44.248 C 237.826 44.144,236.778 43.834,235.711 43.559 C 233.305 42.938,229.373 41.737,229.112 41.543 C 229.005 41.464,227.302 40.857,225.328 40.194 C 223.353 39.532,221.475 38.863,221.155 38.708 C 220.378 38.331,215.874 37.189,213.109 36.668 C 208.283 35.758,204.577 36.458,200.175 39.110 L 199.380 39.589 197.846 38.924 C 193.006 36.828,180.775 36.400,175.083 38.128 C 171.877 39.101,163.069 43.211,161.742 44.352 C 161.435 44.616,161.112 44.832,161.024 44.832 C 160.771 44.833,158.409 46.404,156.846 47.612 C 156.061 48.218,155.362 48.716,155.293 48.717 C 155.224 48.719,154.731 49.119,154.197 49.607 C 153.663 50.095,152.908 50.700,152.519 50.952 C 152.130 51.204,151.431 51.763,150.966 52.194 C 150.502 52.624,149.597 53.404,148.957 53.926 C 148.316 54.448,146.373 56.197,144.638 57.811 C 142.903 59.426,141.374 60.747,141.239 60.747 C 140.144 60.747,132.039 58.652,131.490 58.227 C 131.383 58.144,129.636 57.542,127.608 56.889 C 125.580 56.236,123.762 55.610,123.569 55.498 C 123.375 55.386,121.672 54.766,119.784 54.120 C 117.896 53.473,116.002 52.783,115.575 52.585 C 112.780 51.293,109.183 50.073,108.165 50.073 C 107.810 50.073,107.524 50.007,107.527 49.927 C 107.536 49.729,108.196 47.115,108.568 45.803 C 109.534 42.396,109.418 39.293,108.280 38.119 C 107.288 37.095,105.297 37.074,104.464 38.077 C 104.159 38.446,100.339 37.348,97.675 36.126 C 96.205 35.452,90.280 33.578,89.608 33.575 C 89.479 33.574,89.147 33.455,88.869 33.310 C 88.313 33.020,86.948 32.683,85.581 32.498 C 84.845 32.399,84.658 32.285,84.446 31.807 C 83.876 30.520,82.168 30.057,80.507 30.740 L 79.402 31.194 78.566 30.717 C 78.106 30.454,76.812 29.827,75.691 29.323 C 74.571 28.819,72.833 27.910,71.829 27.303 C 70.826 26.697,69.926 26.201,69.829 26.201 C 69.543 26.201,62.322 22.539,60.844 21.645 C 60.097 21.192,58.831 20.499,58.030 20.104 C 57.230 19.708,56.181 19.175,55.701 18.919 C 55.221 18.663,54.173 18.176,53.372 17.837 C 52.572 17.499,51.131 16.854,50.170 16.404 C 49.209 15.955,47.375 15.206,46.094 14.740 C 44.813 14.274,43.721 13.837,43.668 13.768 C 43.615 13.700,41.912 13.102,39.884 12.440 C 37.855 11.777,36.025 11.141,35.817 11.025 C 35.361 10.773,31.712 10.764,31.382 11.014 C 31.254 11.111,30.748 11.338,30.257 11.519 C 29.060 11.961,28.507 12.588,28.389 13.638 C 28.182 15.472,29.316 16.229,33.139 16.810 C 34.819 17.066,35.793 17.363,38.137 18.337 C 39.738 19.001,42.402 20.094,44.056 20.765 C 49.675 23.044,53.709 25.050,62.458 29.916 C 64.733 31.182,66.638 32.217,66.691 32.217 C 66.745 32.217,67.722 32.739,68.862 33.377 C 71.320 34.751,76.056 36.836,77.098 37.003 C 78.286 37.192,78.278 37.240,75.599 45.997 C 72.130 57.339,68.424 67.992,65.268 75.691 C 63.207 80.721,61.555 84.930,60.584 87.627 C 59.282 91.246,54.305 105.164,52.362 110.626 C 49.971 117.345,48.397 122.056,47.358 125.608 C 46.837 127.391,46.317 129.022,46.204 129.235 C 46.090 129.447,45.996 129.823,45.994 130.070 C 45.988 131.020,45.817 131.044,43.559 130.413 C 37.758 128.791,30.295 126.391,26.201 124.830 C 21.405 123.001,18.968 122.177,16.400 121.515 C 13.628 120.801,7.689 118.786,5.353 117.768 C 4.005 117.180,3.571 117.148,1.475 117.486 C 0.244 117.684,-0.203 119.783,0.630 121.451 C 1.162 122.517,1.797 123.009,3.688 123.824 C 4.488 124.169,5.580 124.653,6.114 124.898 C 7.033 125.322,12.047 126.956,13.295 127.239 C 13.615 127.311,13.964 127.436,14.071 127.516 C 14.178 127.595,15.874 128.156,17.841 128.761 C 19.808 129.366,21.809 130.040,22.288 130.258 C 22.767 130.476,24.477 131.118,26.087 131.685 C 27.697 132.252,29.670 132.978,30.471 133.298 C 31.271 133.619,33.411 134.288,35.226 134.785 C 37.040 135.282,38.787 135.807,39.107 135.952 C 40.598 136.626,45.701 137.991,46.731 137.991 C 48.684 137.991,50.237 136.831,50.580 135.115 C 50.650 134.764,50.805 134.513,50.924 134.558 C 51.043 134.603,51.926 134.877,52.887 135.166 C 53.848 135.455,54.808 135.768,55.022 135.862 C 55.774 136.194,59.122 136.808,61.232 137.002 C 71.534 137.946,73.445 137.943,75.474 136.978 C 76.221 136.623,76.411 136.603,77.027 136.813 C 78.572 137.339,81.229 138.441,81.330 138.597 C 81.447 138.778,84.386 140.086,86.302 140.809 C 86.961 141.058,87.703 141.392,87.952 141.550 C 88.200 141.709,89.408 142.250,90.636 142.752 C 95.810 144.868,95.754 144.808,96.655 149.151 C 96.876 150.218,97.139 151.266,97.240 151.480 C 97.340 151.693,97.508 152.272,97.614 152.765 C 98.010 154.608,99.024 156.865,100.000 158.079 C 100.086 158.185,100.643 158.928,101.238 159.728 C 102.616 161.584,104.026 162.759,105.332 163.143 C 105.889 163.306,106.604 163.569,106.919 163.726 C 108.166 164.348,113.654 164.238,114.453 163.575 C 114.817 163.273,114.807 163.236,115.163 166.136 C 115.510 168.955,116.336 173.222,116.604 173.580 C 116.695 173.701,116.879 174.192,117.015 174.672 C 117.985 178.107,119.222 179.307,122.465 179.960 C 127.369 180.948,128.384 181.100,130.978 181.229 L 133.766 181.368 134.195 182.555 C 136.551 189.071,144.346 192.171,152.547 189.852 L 153.809 189.496 154.537 190.090 C 154.937 190.417,155.628 191.004,156.071 191.395 C 158.789 193.794,163.070 194.575,167.200 193.425 C 170.699 192.451,172.615 191.975,173.896 191.760 C 174.590 191.644,175.560 191.367,176.051 191.145 C 176.923 190.751,176.978 190.750,178.380 191.069 C 186.707 192.969,201.646 193.497,208.443 192.132 C 212.092 191.399,217.959 189.413,221.303 187.778 C 223.734 186.589,224.172 186.309,225.885 184.841 C 226.530 184.288,226.743 184.227,228.433 184.107 C 233.634 183.736,236.187 182.810,241.342 179.427 C 243.524 177.995,243.654 177.897,245.520 176.282 C 247.606 174.477,249.503 172.090,250.456 170.072 C 250.686 169.585,250.907 169.423,251.479 169.326 C 251.880 169.257,252.470 169.128,252.790 169.038 C 253.110 168.949,254.303 168.653,255.442 168.381 C 256.580 168.109,257.997 167.705,258.591 167.483 C 261.369 166.444,263.960 162.679,264.530 158.855 C 264.657 158.001,264.894 156.953,265.057 156.526 C 266.117 153.748,264.362 149.253,261.759 148.082 L 261.024 147.751 263.894 145.055 C 265.472 143.571,267.074 142.035,267.453 141.640 C 268.135 140.928,268.166 140.919,270.364 140.705 C 275.643 140.193,279.692 137.611,282.487 132.976 C 282.916 132.265,283.421 131.455,283.609 131.176 C 285.279 128.695,285.973 122.735,284.946 119.686 L 284.566 118.558 285.205 117.496 C 286.392 115.525,287.219 114.802,288.720 114.426 C 289.453 114.242,290.315 113.972,290.636 113.826 C 290.956 113.681,292.877 113.023,294.905 112.365 C 296.934 111.707,298.774 111.055,298.995 110.915 C 299.424 110.645,302.178 109.892,306.453 108.876 C 307.894 108.533,309.161 108.187,309.267 108.105 C 309.530 107.905,313.896 106.886,317.225 106.248 C 318.719 105.961,320.247 105.610,320.621 105.467 C 320.995 105.324,323.615 104.670,326.443 104.014 C 329.272 103.357,331.674 102.755,331.781 102.675 C 331.887 102.595,332.258 102.476,332.603 102.410 C 333.322 102.274,333.230 102.047,333.696 105.095 C 334.715 111.756,335.235 112.193,340.805 111.069 C 341.606 110.908,342.610 110.709,343.037 110.628 C 344.381 110.373,346.974 109.420,349.944 108.091 C 350.647 107.777,352.044 107.249,353.049 106.918 C 354.054 106.587,355.400 106.073,356.041 105.775 C 356.681 105.477,357.860 104.950,358.661 104.603 C 359.461 104.257,360.902 103.602,361.863 103.149 C 363.958 102.160,365.661 101.446,366.715 101.117 C 367.142 100.983,368.409 100.501,369.529 100.046 C 370.650 99.590,372.659 98.854,373.993 98.410 C 375.328 97.967,376.617 97.474,376.858 97.316 C 377.100 97.158,378.279 96.688,379.478 96.273 C 382.314 95.291,383.489 94.829,385.184 94.031 C 385.949 93.671,387.332 93.062,388.259 92.679 C 390.529 91.739,394.742 89.549,395.342 88.996 C 395.609 88.751,396.467 88.213,397.250 87.802 C 400.261 86.221,401.026 82.695,398.625 81.466 C 397.430 80.854,396.769 81.051,394.902 82.576 C 393.989 83.322,390.852 85.306,389.563 85.953 C 387.615 86.930,380.555 89.990,378.845 90.597 C 377.938 90.919,375.754 91.746,373.993 92.434 C 372.232 93.123,369.621 94.099,368.190 94.605 C 365.123 95.689,360.639 97.546,357.446 99.054 C 356.191 99.647,353.090 100.928,350.556 101.901 C 348.022 102.873,345.191 104.008,344.265 104.423 C 342.803 105.079,340.888 105.574,339.794 105.578 C 339.396 105.580,339.164 104.813,338.856 102.475 C 338.736 101.567,338.470 100.126,338.265 99.272 C 338.060 98.418,337.670 96.410,337.398 94.808 C 337.126 93.207,336.779 91.329,336.627 90.636 C 336.476 89.942,336.215 88.544,336.048 87.530 C 335.880 86.516,335.487 84.595,335.173 83.261 C 334.046 78.472,332.873 72.839,332.567 70.742 C 332.395 69.568,331.736 66.468,331.101 63.852 C 330.466 61.237,329.676 57.438,329.345 55.410 C 329.015 53.382,328.537 50.893,328.284 49.879 C 328.032 48.865,327.506 46.422,327.116 44.451 C 326.112 39.370,324.334 33.441,322.487 29.017 L 321.597 26.883 322.031 26.460 C 322.944 25.570,328.007 22.364,330.326 21.207 C 334.793 18.980,349.400 13.138,355.556 11.115 C 357.637 10.432,360.126 9.581,361.087 9.226 C 365.036 7.765,371.402 6.085,371.880 6.377 C 372.707 6.883,374.408 4.987,374.523 3.431 C 374.711 0.874,372.407 -0.540,370.015 0.664 M319.136 34.789 C 320.424 38.700,321.461 42.524,322.072 45.609 C 322.463 47.584,323.033 50.247,323.338 51.528 C 323.644 52.809,323.992 54.556,324.112 55.410 C 324.513 58.253,325.093 61.112,326.069 65.054 C 326.601 67.201,327.213 70.102,327.430 71.500 C 327.816 73.987,329.076 80.019,330.041 83.995 C 330.307 85.092,330.739 87.188,331.000 88.653 C 331.262 90.117,331.696 92.531,331.966 94.018 C 332.236 95.504,332.430 96.747,332.397 96.780 C 332.288 96.888,320.211 99.902,316.545 100.735 C 314.571 101.184,311.951 101.790,310.723 102.083 C 306.992 102.972,298.566 105.501,295.489 106.656 C 293.893 107.256,291.100 108.225,289.282 108.810 C 287.465 109.395,285.466 110.041,284.840 110.245 C 283.461 110.694,282.260 111.642,281.277 113.058 C 280.446 114.256,280.421 114.266,279.654 113.719 C 279.345 113.499,277.803 112.707,276.227 111.959 C 270.341 109.163,269.615 108.774,267.055 107.039 C 265.614 106.063,262.863 104.318,260.941 103.161 C 257.170 100.890,251.917 97.447,251.917 97.247 C 251.917 97.179,252.948 97.014,254.209 96.882 C 261.296 96.136,268.413 92.981,268.413 90.585 C 268.413 88.747,266.750 88.267,263.733 89.235 C 258.592 90.884,254.412 91.635,248.221 92.023 L 244.622 92.249 242.398 91.128 C 239.313 89.573,237.698 88.616,236.002 87.337 C 227.400 80.848,220.489 77.275,211.257 74.542 C 202.855 72.055,202.727 71.964,205.625 70.545 C 214.196 66.348,218.510 61.162,214.443 59.943 C 213.398 59.630,212.216 60.244,207.465 63.567 C 203.674 66.219,193.511 71.586,188.541 73.560 C 185.817 74.642,184.765 75.377,184.765 76.198 C 184.765 76.437,184.558 76.879,184.306 77.181 C 184.053 77.482,183.255 78.646,182.533 79.767 C 174.580 92.100,162.955 100.762,155.914 99.602 C 152.690 99.071,153.344 96.523,158.166 90.830 C 161.802 86.537,163.031 84.211,166.420 75.206 C 170.530 64.287,171.108 63.636,183.296 56.187 C 184.997 55.147,187.748 53.408,189.410 52.323 C 198.991 46.061,205.535 42.500,208.138 42.131 C 210.641 41.777,218.174 43.564,224.472 46.008 C 230.163 48.216,237.323 50.178,246.313 51.995 C 257.249 54.204,256.811 53.995,261.037 59.004 C 264.341 62.920,265.878 64.032,267.216 63.478 C 268.774 62.833,268.761 61.156,267.181 58.661 C 265.926 56.680,265.910 56.706,268.344 56.685 C 273.406 56.641,281.320 53.763,289.646 48.937 C 291.130 48.076,294.307 46.484,296.707 45.398 C 303.966 42.114,305.518 41.320,312.179 37.485 C 319.674 33.168,318.723 33.537,319.136 34.789 M90.009 40.102 C 92.115 40.819,94.799 41.796,95.973 42.273 C 97.147 42.750,99.068 43.504,100.243 43.949 C 102.218 44.697,102.373 44.793,102.314 45.232 C 102.212 46.000,98.879 57.922,97.325 63.076 C 95.620 68.735,94.072 73.329,92.225 78.214 C 91.479 80.189,90.328 83.508,89.669 85.590 C 89.009 87.671,87.917 90.946,87.243 92.868 C 86.568 94.789,85.341 98.370,84.516 100.825 C 82.449 106.974,81.798 108.650,79.959 112.567 C 76.770 119.355,74.374 124.765,73.168 127.899 C 71.658 131.823,71.995 131.487,69.834 131.224 C 68.839 131.104,66.181 130.874,63.926 130.715 C 59.420 130.396,57.855 130.147,54.573 129.223 C 51.990 128.496,52.087 129.095,53.795 124.413 C 54.439 122.648,55.424 119.937,55.985 118.389 C 56.546 116.841,58.380 111.863,60.060 107.327 C 61.740 102.790,63.535 97.899,64.048 96.458 C 65.879 91.321,67.536 86.967,69.736 81.514 C 75.257 67.833,81.017 51.105,83.694 40.982 L 84.328 38.585 85.254 38.692 C 85.763 38.751,87.902 39.385,90.009 40.102 M189.676 43.944 C 192.202 44.261,192.200 44.260,191.033 44.937 C 190.521 45.234,189.316 46.019,188.355 46.683 C 187.394 47.346,184.862 48.960,182.727 50.269 C 167.188 59.798,165.978 61.119,161.580 73.362 C 159.091 80.290,157.542 83.145,153.532 88.191 C 150.243 92.331,149.760 93.135,149.148 95.498 C 146.703 104.935,157.483 107.741,169.151 100.705 C 176.145 96.487,185.279 86.704,188.276 80.222 C 188.712 79.278,189.127 78.393,189.197 78.255 C 189.268 78.117,190.024 77.763,190.878 77.468 C 191.732 77.173,193.404 76.468,194.594 75.902 L 196.758 74.873 197.832 75.667 C 200.197 77.414,201.982 78.186,207.569 79.881 C 216.475 82.582,221.770 85.097,228.336 89.747 C 231.231 91.798,232.927 92.865,237.943 95.792 C 242.354 98.367,244.282 99.598,246.563 101.298 C 247.533 102.020,249.418 103.288,250.752 104.116 C 252.086 104.944,254.619 106.561,256.380 107.711 C 258.142 108.861,260.150 110.132,260.844 110.537 C 261.538 110.942,263.154 111.989,264.435 112.865 C 266.980 114.604,268.361 115.343,271.644 116.723 C 278.962 119.798,280.582 123.216,277.357 128.772 C 273.446 135.510,268.166 136.133,254.343 131.489 C 251.653 130.586,248.457 129.688,245.706 129.064 C 237.366 127.173,227.488 124.509,220.828 122.354 C 215.619 120.669,213.100 120.941,213.100 123.188 C 213.100 124.844,214.257 126.005,217.419 127.521 L 219.117 128.336 219.119 130.786 C 219.126 137.155,221.295 140.691,224.590 139.704 C 225.291 139.493,225.348 139.513,226.147 140.248 C 229.454 143.289,234.383 145.936,243.377 149.500 C 249.881 152.078,251.277 152.492,254.936 152.928 C 257.080 153.184,257.984 153.560,258.426 154.380 C 259.165 155.752,258.099 159.394,256.541 160.823 C 253.971 163.180,244.186 163.846,234.352 162.332 C 226.166 161.073,222.826 159.998,214.891 156.071 C 207.608 152.467,204.808 151.865,203.362 153.595 C 202.220 154.961,203.470 157.207,206.274 158.824 C 217.111 165.074,231.592 169.432,241.525 169.432 C 242.881 169.432,242.872 169.528,241.358 171.042 C 237.811 174.588,233.304 176.866,228.615 177.480 C 227.717 177.598,222.478 177.179,219.990 176.791 C 217.161 176.350,212.915 175.116,203.008 171.857 C 188.954 167.234,186.170 166.947,186.260 170.132 C 186.313 172.008,187.446 172.703,194.760 175.352 C 207.409 179.934,213.844 182.044,217.855 182.925 L 218.438 183.053 217.661 183.455 C 211.929 186.420,204.247 187.669,197.089 186.798 C 195.808 186.643,192.620 186.293,190.005 186.022 C 183.980 185.397,180.781 184.773,175.892 183.272 C 173.978 182.684,174.191 182.940,172.929 179.719 C 170.920 174.593,166.518 165.664,164.462 162.542 C 160.434 156.429,155.360 153.541,151.336 155.070 C 150.775 155.284,150.295 155.458,150.270 155.458 C 150.245 155.458,149.949 154.913,149.612 154.246 C 146.457 147.987,140.216 144.769,135.771 147.107 C 135.026 147.499,134.654 147.608,134.610 147.447 C 134.573 147.317,134.301 146.304,134.005 145.196 C 133.066 141.687,130.865 137.788,128.528 135.495 C 124.659 131.700,119.729 133.031,116.928 138.627 C 116.437 139.608,116.005 140.441,115.967 140.478 C 115.930 140.515,115.259 140.029,114.476 139.398 C 107.449 133.740,100.018 132.715,96.504 136.920 L 95.973 137.556 93.649 136.490 C 90.440 135.017,86.282 133.325,82.484 131.948 C 80.723 131.309,79.224 130.726,79.152 130.653 C 78.961 130.456,80.341 126.921,82.081 123.152 C 85.450 115.852,85.968 114.687,87.096 111.887 C 87.742 110.286,89.100 106.618,90.116 103.736 C 91.131 100.854,92.240 97.754,92.580 96.846 C 92.919 95.939,94.532 91.266,96.163 86.463 C 97.795 81.659,99.672 76.201,100.336 74.333 C 101.757 70.330,102.830 66.874,104.223 61.815 C 104.781 59.787,105.258 58.103,105.284 58.074 C 105.309 58.045,107.024 58.733,109.094 59.603 C 111.164 60.473,114.299 61.735,116.060 62.408 C 117.821 63.080,120.485 64.152,121.980 64.790 C 125.757 66.402,127.159 66.773,134.905 68.214 C 138.246 68.835,138.613 68.829,140.029 68.122 C 140.726 67.774,141.505 67.539,141.970 67.536 C 143.050 67.530,144.307 66.916,144.667 66.220 C 144.830 65.904,145.519 65.209,146.198 64.676 C 146.876 64.143,148.648 62.574,150.135 61.189 C 159.946 52.053,170.696 45.478,178.287 43.970 C 180.072 43.615,186.932 43.600,189.676 43.944 M264.871 115.688 C 264.044 116.170,263.876 116.958,263.864 120.427 L 263.852 123.726 262.907 125.729 C 261.660 128.372,261.877 129.661,263.716 130.534 C 265.430 131.347,266.870 130.354,267.606 127.851 C 269.894 120.080,268.439 113.610,264.871 115.688 M228.271 131.184 C 229.801 131.603,233.149 132.475,235.711 133.121 C 245.654 135.630,250.801 137.040,254.440 138.250 C 256.521 138.942,258.729 139.618,259.346 139.752 C 259.962 139.886,260.443 140.064,260.413 140.147 C 260.304 140.451,256.137 144.798,255.288 145.494 L 254.411 146.213 252.678 145.880 C 248.393 145.059,237.176 140.536,233.580 138.180 C 229.095 135.240,223.959 130.422,225.312 130.422 C 225.410 130.422,226.742 130.765,228.271 131.184 M125.142 139.235 C 127.601 141.535,128.990 145.046,130.128 151.842 C 131.332 159.028,131.503 160.791,131.229 163.198 C 130.964 165.530,131.097 166.705,132.167 171.470 C 132.575 173.285,132.964 175.097,133.033 175.497 L 133.157 176.225 132.032 176.222 C 128.666 176.212,123.303 175.163,122.570 174.372 C 120.501 172.139,117.883 150.230,119.420 148.008 C 119.944 147.249,120.045 146.529,119.761 145.560 C 119.563 144.885,120.011 143.452,121.056 141.421 C 122.708 138.211,123.561 137.755,125.142 139.235 M105.618 140.054 C 108.298 141.016,109.786 141.985,111.978 144.193 L 114.010 146.240 114.030 149.733 C 114.042 151.655,114.123 154.329,114.211 155.677 L 114.370 158.127 113.226 158.558 C 108.902 160.187,104.849 157.569,102.717 151.771 C 102.132 150.180,100.100 140.918,100.225 140.417 C 100.518 139.250,102.928 139.088,105.618 140.054 M140.557 151.637 C 143.883 153.321,147.123 158.644,147.108 162.400 C 147.101 164.054,147.977 172.800,148.482 176.128 C 148.882 178.757,149.600 181.451,150.473 183.595 C 151.077 185.079,151.059 185.108,149.327 185.378 C 142.077 186.508,139.270 184.068,137.790 175.352 C 137.464 173.430,136.983 170.799,136.721 169.505 C 136.165 166.760,136.142 165.617,136.537 160.505 C 137.199 151.939,137.938 150.311,140.557 151.637 M154.933 159.951 C 158.873 161.960,162.708 167.938,167.108 178.931 C 167.944 181.019,169.026 183.688,169.513 184.862 C 170.726 187.785,170.852 187.528,167.831 188.284 C 162.639 189.582,160.978 189.244,157.848 186.252 C 154.743 183.284,153.367 179.263,152.757 171.373 C 152.645 169.932,152.471 168.259,152.370 167.654 C 151.316 161.379,152.247 158.581,154.933 159.951 " stroke="none" fill="#111112" fill-rule="evenodd"></path><path id="path1" d="M369.529 6.679 C 366.267 7.542,362.803 8.586,361.088 9.223 C 360.126 9.580,357.637 10.432,355.556 11.115 C 349.400 13.138,334.793 18.980,330.326 21.207 C 328.007 22.364,322.944 25.570,322.031 26.460 L 321.597 26.883 322.487 29.017 C 324.334 33.441,326.112 39.370,327.116 44.451 C 327.506 46.422,328.032 48.865,328.284 49.879 C 328.537 50.893,329.015 53.382,329.345 55.410 C 329.676 57.438,330.466 61.237,331.101 63.852 C 331.736 66.468,332.395 69.568,332.567 70.742 C 332.873 72.839,334.046 78.472,335.173 83.261 C 335.487 84.595,335.880 86.516,336.048 87.530 C 336.215 88.544,336.476 89.942,336.627 90.636 C 336.779 91.329,337.126 93.207,337.398 94.808 C 337.670 96.410,338.060 98.418,338.265 99.272 C 338.470 100.126,338.736 101.567,338.856 102.475 C 339.164 104.813,339.396 105.580,339.794 105.578 C 340.888 105.574,342.803 105.079,344.265 104.423 C 345.191 104.008,348.022 102.873,350.556 101.901 C 353.090 100.928,356.191 99.647,357.446 99.054 C 360.639 97.546,365.123 95.689,368.190 94.605 C 369.621 94.099,372.232 93.123,373.993 92.434 C 375.754 91.746,377.938 90.919,378.845 90.597 C 380.555 89.990,387.615 86.930,389.563 85.953 C 390.886 85.289,394.006 83.310,394.937 82.544 C 395.301 82.244,395.847 81.847,396.150 81.662 C 396.866 81.225,396.848 81.103,395.931 80.139 C 395.021 79.183,394.404 77.275,393.896 73.848 C 393.381 70.377,393.104 69.345,390.220 60.165 C 389.734 58.617,389.279 57.001,389.209 56.574 C 389.138 56.148,389.017 55.711,388.938 55.604 C 388.860 55.497,388.751 55.192,388.697 54.925 C 388.643 54.658,388.328 53.392,387.998 52.111 C 387.669 50.830,387.170 48.690,386.891 47.356 C 386.611 46.021,386.267 44.668,386.125 44.347 C 385.983 44.027,385.463 42.586,384.970 41.145 C 384.477 39.704,383.817 37.914,383.503 37.166 C 383.190 36.419,382.666 35.066,382.339 34.158 C 382.013 33.251,381.317 31.591,380.793 30.471 C 380.184 29.166,379.691 27.735,379.424 26.492 C 379.195 25.425,378.840 23.857,378.635 23.008 C 378.089 20.749,375.474 13.967,373.000 8.396 C 372.799 7.944,372.635 7.497,372.635 7.403 C 372.635 6.317,371.710 6.102,369.529 6.679 M28.942 16.351 C 28.832 16.698,28.561 17.724,28.340 18.632 C 28.119 19.539,27.852 20.484,27.747 20.733 C 27.641 20.981,27.028 23.252,26.384 25.779 C 25.741 28.306,25.090 30.679,24.937 31.053 C 24.784 31.426,24.131 33.828,23.484 36.390 C 22.838 38.952,22.227 41.195,22.126 41.376 C 21.898 41.783,20.979 45.413,20.193 49.005 C 19.866 50.500,19.517 51.913,19.417 52.146 C 19.317 52.378,18.748 54.780,18.152 57.483 C 17.557 60.186,16.857 63.096,16.596 63.950 C 16.335 64.803,15.631 67.249,15.031 69.384 C 14.430 71.519,13.872 73.353,13.790 73.459 C 13.708 73.566,13.093 75.444,12.424 77.632 C 11.755 79.820,11.135 81.702,11.047 81.813 C 10.960 81.925,10.396 83.671,9.795 85.695 C 9.195 87.718,8.491 90.003,8.231 90.772 C 7.971 91.541,7.285 94.073,6.705 96.400 C 3.905 107.647,3.205 110.201,2.510 111.693 C 1.592 113.667,1.011 117.555,1.650 117.455 C 3.614 117.150,4.015 117.184,5.353 117.768 C 7.689 118.786,13.628 120.801,16.400 121.515 C 18.968 122.177,21.405 123.001,26.201 124.830 C 30.295 126.391,37.758 128.791,43.559 130.413 C 45.817 131.044,45.988 131.020,45.994 130.070 C 45.996 129.823,46.090 129.447,46.204 129.235 C 46.317 129.022,46.837 127.391,47.358 125.608 C 48.397 122.056,49.971 117.345,52.362 110.626 C 54.305 105.164,59.282 91.246,60.584 87.627 C 61.555 84.930,63.207 80.721,65.268 75.691 C 68.424 67.992,72.130 57.339,75.599 45.997 C 78.278 37.240,78.286 37.192,77.098 37.003 C 76.056 36.836,71.320 34.751,68.862 33.377 C 67.722 32.739,66.745 32.217,66.691 32.217 C 66.638 32.217,64.733 31.182,62.458 29.916 C 53.709 25.050,49.675 23.044,44.056 20.765 C 42.402 20.094,39.738 19.001,38.137 18.337 C 35.776 17.356,34.824 17.067,33.101 16.804 C 31.932 16.627,30.589 16.310,30.116 16.101 C 29.644 15.892,29.231 15.721,29.200 15.721 C 29.168 15.721,29.052 16.004,28.942 16.351 M312.179 37.485 C 305.518 41.320,303.966 42.114,296.707 45.398 C 294.307 46.484,291.130 48.076,289.646 48.937 C 281.320 53.763,273.406 56.641,268.344 56.685 C 265.910 56.706,265.926 56.680,267.181 58.661 C 268.761 61.156,268.774 62.833,267.216 63.478 C 265.878 64.032,264.341 62.920,261.037 59.004 C 256.811 53.995,257.249 54.204,246.313 51.995 C 237.323 50.178,230.163 48.216,224.472 46.008 C 218.174 43.564,210.641 41.777,208.138 42.131 C 205.535 42.500,198.991 46.061,189.410 52.323 C 187.748 53.408,184.997 55.147,183.296 56.187 C 171.108 63.636,170.530 64.287,166.420 75.206 C 163.031 84.211,161.802 86.537,158.166 90.830 C 153.344 96.523,152.690 99.071,155.914 99.602 C 162.955 100.762,174.580 92.100,182.533 79.767 C 183.255 78.646,184.053 77.482,184.306 77.181 C 184.558 76.879,184.765 76.437,184.765 76.198 C 184.765 75.377,185.817 74.642,188.541 73.560 C 193.511 71.586,203.674 66.219,207.465 63.567 C 212.216 60.244,213.398 59.630,214.443 59.943 C 218.510 61.162,214.196 66.348,205.625 70.545 C 202.727 71.964,202.855 72.055,211.257 74.542 C 220.489 77.275,227.400 80.848,236.002 87.337 C 237.698 88.616,239.313 89.573,242.398 91.128 L 244.622 92.249 248.221 92.023 C 254.412 91.635,258.592 90.884,263.733 89.235 C 266.750 88.267,268.413 88.747,268.413 90.585 C 268.413 92.981,261.296 96.136,254.209 96.882 C 252.948 97.014,251.917 97.179,251.917 97.247 C 251.917 97.447,257.170 100.890,260.941 103.161 C 262.863 104.318,265.614 106.063,267.055 107.039 C 269.615 108.774,270.341 109.163,276.227 111.959 C 277.803 112.707,279.345 113.499,279.654 113.719 C 280.421 114.266,280.446 114.256,281.277 113.058 C 282.260 111.642,283.461 110.694,284.840 110.245 C 285.466 110.041,287.465 109.395,289.282 108.810 C 291.100 108.225,293.893 107.256,295.489 106.656 C 298.566 105.501,306.992 102.972,310.723 102.083 C 311.951 101.790,314.571 101.184,316.545 100.735 C 320.211 99.902,332.288 96.888,332.397 96.780 C 332.430 96.747,332.236 95.504,331.966 94.018 C 331.696 92.531,331.262 90.117,331.000 88.653 C 330.739 87.188,330.307 85.092,330.041 83.995 C 329.076 80.019,327.816 73.987,327.430 71.500 C 327.213 70.102,326.601 67.201,326.069 65.054 C 325.093 61.112,324.513 58.253,324.112 55.410 C 323.992 54.556,323.644 52.809,323.338 51.528 C 323.033 50.247,322.463 47.584,322.072 45.609 C 321.316 41.790,319.016 33.744,318.692 33.783 C 318.632 33.790,315.701 35.456,312.179 37.485 M83.694 40.982 C 81.017 51.105,75.257 67.833,69.736 81.514 C 67.536 86.967,65.879 91.321,64.048 96.458 C 63.535 97.899,61.740 102.790,60.060 107.327 C 58.380 111.863,56.546 116.841,55.985 118.389 C 55.424 119.937,54.439 122.648,53.795 124.413 C 52.087 129.095,51.990 128.496,54.573 129.223 C 57.855 130.147,59.420 130.396,63.926 130.715 C 66.181 130.874,68.839 131.104,69.834 131.224 C 71.995 131.487,71.658 131.823,73.168 127.899 C 74.374 124.765,76.770 119.355,79.959 112.567 C 81.798 108.650,82.449 106.974,84.516 100.825 C 85.341 98.370,86.568 94.789,87.243 92.868 C 87.917 90.946,89.009 87.671,89.669 85.590 C 90.328 83.508,91.479 80.189,92.225 78.214 C 94.072 73.329,95.620 68.735,97.325 63.076 C 98.879 57.922,102.212 46.000,102.314 45.232 C 102.373 44.793,102.218 44.697,100.243 43.949 C 99.068 43.504,97.147 42.750,95.973 42.273 C 92.782 40.976,86.308 38.814,85.254 38.692 L 84.328 38.585 83.694 40.982 M178.287 43.970 C 170.696 45.478,159.946 52.053,150.135 61.189 C 148.648 62.574,146.876 64.143,146.198 64.676 C 145.519 65.209,144.830 65.904,144.667 66.220 C 144.307 66.916,143.050 67.530,141.970 67.536 C 141.505 67.539,140.726 67.774,140.029 68.122 C 138.613 68.829,138.246 68.835,134.905 68.214 C 127.159 66.773,125.757 66.402,121.980 64.790 C 120.485 64.152,117.821 63.080,116.060 62.408 C 114.299 61.735,111.164 60.473,109.094 59.603 C 107.024 58.733,105.309 58.045,105.284 58.074 C 105.258 58.103,104.781 59.787,104.223 61.815 C 102.830 66.874,101.757 70.330,100.336 74.333 C 99.672 76.201,97.795 81.659,96.163 86.463 C 94.532 91.266,92.919 95.939,92.580 96.846 C 92.240 97.754,91.131 100.854,90.116 103.736 C 89.100 106.618,87.742 110.286,87.096 111.887 C 85.968 114.687,85.450 115.852,82.081 123.152 C 80.341 126.921,78.961 130.456,79.152 130.653 C 79.224 130.726,80.723 131.309,82.484 131.948 C 86.282 133.325,90.440 135.017,93.649 136.490 L 95.973 137.556 96.504 136.920 C 100.018 132.715,107.449 133.740,114.476 139.398 C 115.259 140.029,115.930 140.515,115.967 140.478 C 116.005 140.441,116.437 139.608,116.928 138.627 C 119.729 133.031,124.659 131.700,128.528 135.495 C 130.865 137.788,133.066 141.687,134.005 145.196 C 134.301 146.304,134.573 147.317,134.610 147.447 C 134.654 147.608,135.026 147.499,135.771 147.107 C 140.216 144.769,146.457 147.987,149.612 154.246 C 149.949 154.913,150.245 155.458,150.270 155.458 C 150.295 155.458,150.775 155.284,151.336 155.070 C 158.072 152.510,165.661 161.173,172.929 179.719 C 174.191 182.940,173.978 182.684,175.892 183.272 C 180.781 184.773,183.980 185.397,190.005 186.022 C 192.620 186.293,195.808 186.643,197.089 186.798 C 204.247 187.669,211.929 186.420,217.661 183.455 L 218.438 183.053 217.855 182.925 C 213.844 182.044,207.409 179.934,194.760 175.352 C 187.446 172.703,186.313 172.008,186.260 170.132 C 186.170 166.947,188.954 167.234,203.008 171.857 C 212.915 175.116,217.161 176.350,219.990 176.791 C 222.478 177.179,227.717 177.598,228.615 177.480 C 233.304 176.866,237.811 174.588,241.358 171.042 C 242.872 169.528,242.881 169.432,241.525 169.432 C 231.592 169.432,217.111 165.074,206.274 158.824 C 203.470 157.207,202.220 154.961,203.362 153.595 C 204.808 151.865,207.608 152.467,214.891 156.071 C 222.826 159.998,226.166 161.073,234.352 162.332 C 244.186 163.846,253.971 163.180,256.541 160.823 C 258.099 159.394,259.165 155.752,258.426 154.380 C 257.984 153.560,257.080 153.184,254.936 152.928 C 247.179 152.003,231.347 145.030,226.147 140.248 C 225.348 139.513,225.291 139.493,224.590 139.704 C 221.295 140.691,219.126 137.155,219.119 130.786 L 219.117 128.336 217.419 127.521 C 214.257 126.005,213.100 124.844,213.100 123.188 C 213.100 120.941,215.619 120.669,220.828 122.354 C 227.488 124.509,237.366 127.173,245.706 129.064 C 248.457 129.688,251.653 130.586,254.343 131.489 C 268.166 136.133,273.446 135.510,277.357 128.772 C 280.582 123.216,278.962 119.798,271.644 116.723 C 268.361 115.343,266.980 114.604,264.435 112.865 C 263.154 111.989,261.538 110.942,260.844 110.537 C 260.150 110.132,258.142 108.861,256.380 107.711 C 254.619 106.561,252.086 104.944,250.752 104.116 C 249.418 103.288,247.533 102.020,246.563 101.298 C 244.282 99.598,242.354 98.367,237.943 95.792 C 232.927 92.865,231.231 91.798,228.336 89.747 C 221.770 85.097,216.475 82.582,207.569 79.881 C 201.982 78.186,200.197 77.414,197.832 75.667 L 196.758 74.873 194.594 75.902 C 193.404 76.468,191.732 77.173,190.878 77.468 C 190.024 77.763,189.268 78.117,189.197 78.255 C 189.127 78.393,188.712 79.278,188.276 80.222 C 185.279 86.704,176.145 96.487,169.151 100.705 C 157.483 107.741,146.703 104.935,149.148 95.498 C 149.760 93.135,150.243 92.331,153.532 88.191 C 157.542 83.145,159.091 80.290,161.580 73.362 C 165.978 61.119,167.188 59.798,182.727 50.269 C 184.862 48.960,187.394 47.346,188.355 46.683 C 189.316 46.019,190.521 45.234,191.033 44.937 C 191.544 44.640,191.920 44.354,191.868 44.302 C 191.298 43.732,180.778 43.475,178.287 43.970 M267.609 116.155 C 270.119 119.013,268.240 130.347,265.190 130.749 C 262.447 131.111,261.427 128.867,262.907 125.729 L 263.852 123.726 263.864 120.427 C 263.879 116.100,264.154 115.497,266.113 115.484 C 266.903 115.479,267.088 115.561,267.609 116.155 M225.133 130.793 C 225.133 131.553,230.115 135.909,233.580 138.180 C 237.176 140.536,248.393 145.059,252.678 145.880 L 254.411 146.213 255.288 145.494 C 256.137 144.798,260.304 140.451,260.413 140.147 C 260.443 140.064,259.962 139.886,259.346 139.752 C 258.729 139.618,256.521 138.942,254.440 138.250 C 250.801 137.040,245.654 135.630,235.711 133.121 C 233.149 132.475,229.801 131.603,228.271 131.184 C 225.042 130.299,225.133 130.311,225.133 130.793 M122.564 139.043 C 121.232 140.456,119.467 144.559,119.761 145.560 C 120.045 146.529,119.944 147.249,119.420 148.008 C 117.883 150.230,120.501 172.139,122.570 174.372 C 123.303 175.163,128.666 176.212,132.032 176.222 L 133.157 176.225 133.033 175.497 C 132.964 175.097,132.575 173.285,132.167 171.470 C 131.097 166.705,130.964 165.530,131.229 163.198 C 131.609 159.857,129.934 148.380,128.560 144.917 C 126.517 139.765,124.108 137.406,122.564 139.043 M100.968 139.658 C 100.015 140.147,100.027 140.453,101.221 145.777 C 102.668 152.236,103.039 153.180,105.438 156.523 C 107.039 158.754,110.385 159.628,113.226 158.558 L 114.370 158.127 114.211 155.677 C 114.123 154.329,114.042 151.655,114.030 149.733 L 114.010 146.240 111.978 144.193 C 108.469 140.658,103.227 138.499,100.968 139.658 M138.446 151.475 C 136.816 152.616,135.688 164.404,136.721 169.505 C 136.983 170.799,137.464 173.430,137.790 175.352 C 139.270 184.068,142.077 186.508,149.327 185.378 C 151.059 185.108,151.077 185.079,150.473 183.595 C 149.600 181.451,148.882 178.757,148.482 176.128 C 147.977 172.800,147.101 164.054,147.108 162.400 C 147.128 157.386,141.015 149.675,138.446 151.475 M152.554 160.152 C 151.886 161.251,151.810 164.324,152.370 167.654 C 152.471 168.259,152.645 169.932,152.757 171.373 C 153.367 179.263,154.743 183.284,157.848 186.252 C 160.978 189.244,162.639 189.582,167.831 188.284 C 170.852 187.528,170.726 187.785,169.513 184.862 C 169.026 183.688,167.944 181.019,167.108 178.931 C 162.708 167.938,158.873 161.960,154.933 159.951 C 153.725 159.335,153.014 159.395,152.554 160.152 " stroke="none" fill="#fbfbfb" fill-rule="evenodd"></path></g></svg>