<?xml version="1.0" standalone="no"?>
<!DOCTYPE svg PUBLIC "-//W3C//DTD SVG 20010904//EN"
 "http://www.w3.org/TR/2001/REC-SVG-20010904/DTD/svg10.dtd">
<svg version="1.0" xmlns="http://www.w3.org/2000/svg"
 width="1877.000000pt" height="906.000000pt" viewBox="0 0 1877.000000 906.000000"
 preserveAspectRatio="xMidYMid meet">

<g transform="translate(0.000000,906.000000) scale(0.100000,-0.100000)"
fill="#000000" stroke="none">
<path d="M0 4530 l0 -4530 9385 0 9385 0 0 430 0 430 -9357 3 -9358 2 9358 3
9357 2 0 300 0 300 -9357 3 -9358 2 9358 3 9357 2 0 3790 0 3790 -9385 0
-9385 0 0 -4530z m8100 3920 c0 -35 17 -40 23 -7 l4 22 8 -23 c6 -18 10 -20
16 -10 5 7 9 8 9 2 0 -7 11 -9 25 -6 19 3 25 0 25 -14 0 -14 -3 -15 -12 -6
-18 18 -28 15 -28 -8 0 -24 8 -25 46 -5 28 14 29 14 34 -12 5 -25 6 -25 20 -8
8 10 20 29 26 44 7 17 13 21 18 13 4 -7 2 -12 -3 -12 -6 0 -11 -4 -11 -10 0
-5 7 -7 15 -4 9 4 15 0 15 -10 0 -19 16 -21 23 -3 3 7 6 4 6 -6 1 -10 28 -50
62 -87 33 -38 58 -74 54 -79 -3 -6 -1 -11 6 -11 7 0 9 -3 5 -7 -12 -13 -91
-12 -106 1 -14 12 -90 41 -137 53 -17 4 -23 1 -23 -11 0 -10 -5 -14 -11 -11
-5 4 -29 9 -52 11 -39 3 -40 2 -17 -8 26 -13 44 -35 45 -55 0 -7 27 -26 60
-43 33 -16 56 -30 51 -30 -5 0 -3 -7 4 -15 7 -8 17 -12 23 -8 6 4 8 0 4 -11
-8 -20 18 -54 53 -68 21 -9 22 -12 8 -15 -10 -3 -18 -11 -18 -20 0 -12 -3 -13
-15 -3 -8 6 -18 9 -23 6 -4 -2 -26 0 -48 5 -21 6 -47 12 -56 13 -10 1 -21 5
-24 9 -12 12 -55 8 -90 -9 -25 -12 -34 -23 -34 -40 0 -13 -4 -24 -8 -24 -15 0
-32 -71 -19 -76 7 -2 13 -17 14 -33 1 -15 3 -34 5 -41 2 -7 -8 -19 -22 -27
l-25 -13 22 -6 c25 -7 77 -90 69 -111 -3 -7 -12 -13 -21 -13 -19 0 -19 -9 2
-32 9 -10 13 -21 9 -25 -4 -4 -10 -3 -14 3 -12 19 -42 25 -42 9 0 -8 5 -16 10
-16 6 -1 15 -3 20 -4 6 -1 15 -3 20 -4 16 -2 11 -21 -5 -21 -12 0 -14 -7 -9
-26 4 -17 2 -30 -7 -36 -10 -7 -8 -8 10 -4 16 3 21 2 14 -5 -8 -8 -7 -19 2
-36 8 -14 11 -32 8 -40 -3 -8 0 -19 8 -25 11 -7 11 -11 2 -15 -17 -6 -16 -23
1 -23 9 0 12 -8 8 -25 -4 -25 11 -35 23 -15 3 6 14 9 23 9 15 -1 15 -2 0 -6
-29 -7 -23 -43 7 -43 14 0 26 -6 26 -12 3 -26 -3 -53 -14 -67 -7 -7 -12 -21
-12 -29 0 -19 -25 -29 -25 -10 -1 7 -9 3 -20 -11 l-20 -23 0 23 c-1 22 -2 22
-11 6 -6 -10 -22 -23 -37 -28 -21 -8 -23 -12 -12 -19 8 -5 11 -12 7 -17 -5 -4
-12 -2 -16 5 -10 16 -41 5 -41 -15 0 -8 -4 -12 -8 -9 -12 7 -53 -24 -47 -35 4
-5 -2 -9 -12 -9 -27 -1 -51 -23 -55 -50 -2 -16 -14 -30 -33 -40 l-30 -15 55
-7 c72 -10 120 -9 161 2 18 5 34 8 36 6 2 -2 27 5 56 15 28 10 54 15 58 11 4
-4 9 -32 12 -62 5 -69 36 -129 94 -183 91 -84 95 -90 88 -117 -4 -14 -11 -27
-17 -29 -6 -2 -19 -12 -29 -22 -11 -11 -22 -19 -25 -19 -15 0 -36 -33 -31 -50
3 -11 2 -20 -1 -20 -4 0 -63 28 -132 62 -103 52 -138 76 -197 134 -68 66 -87
94 -64 94 16 0 -9 59 -32 75 -15 10 -48 15 -108 15 -89 0 -106 -7 -122 -52 -4
-10 -11 -18 -17 -18 -7 0 -9 -8 -5 -21 5 -13 3 -19 -3 -15 -5 3 -15 -1 -21 -8
-18 -22 2 -28 54 -16 36 8 50 7 68 -4 42 -27 65 -29 72 -6 4 12 12 19 18 17
13 -4 51 -73 68 -125 6 -20 30 -74 51 -120 22 -46 37 -90 34 -99 -4 -9 -1 -22
5 -29 11 -13 2 -19 -23 -15 -5 0 -8 -8 -8 -19 0 -11 -5 -20 -11 -20 -6 0 -9
-6 -6 -14 3 -8 -1 -17 -10 -20 -14 -6 -14 -8 3 -21 18 -14 18 -14 -5 -15 -22
0 -23 -2 -9 -12 9 -7 18 -22 20 -32 1 -11 11 -20 21 -22 25 -3 35 -14 14 -14
-21 0 -22 -16 -2 -24 8 -3 15 -10 15 -17 0 -6 -7 -9 -15 -5 -8 3 -15 4 -15 2
0 -3 -3 -11 -6 -20 -4 -11 -1 -16 11 -16 12 0 15 -5 11 -16 -3 -9 -6 -19 -6
-23 0 -9 -65 -41 -83 -41 -7 0 -29 -9 -49 -20 -24 -12 -39 -16 -43 -9 -4 5
-14 9 -23 8 -29 -3 -82 13 -76 23 3 5 0 9 -7 8 -28 -4 -59 13 -59 31 0 11 -5
18 -12 17 -15 -4 -66 73 -124 185 -57 112 -209 454 -234 527 -60 179 -81 547
-40 718 11 46 31 108 45 138 14 30 25 59 25 64 0 6 4 10 9 10 5 0 12 13 16 30
4 16 14 36 24 42 10 7 34 36 55 64 20 29 46 59 59 67 12 8 29 27 37 43 8 16
22 40 32 53 10 13 18 39 18 57 0 19 5 34 10 34 6 0 10 7 10 15 0 8 4 15 10 15
5 0 12 17 16 37 8 41 28 68 44 58 6 -4 16 7 23 24 6 17 14 31 18 31 3 0 4 11
1 25 -4 22 -1 25 22 25 14 0 26 5 26 10 0 6 9 10 20 10 22 0 28 26 8 33 -7 2
-9 8 -5 13 4 5 11 4 15 -2 4 -6 17 -13 30 -16 18 -5 22 -2 22 18 0 18 10 29
41 45 23 11 44 29 46 40 4 14 11 17 29 13 15 -4 24 -2 24 5 0 6 6 11 14 11 8
0 16 7 20 15 6 18 39 20 68 4 26 -14 38 -1 15 16 -17 13 -16 14 15 18 18 2 39
5 46 5 7 1 12 -10 12 -28z m4453 -45 c39 -7 87 -42 87 -66 0 -10 5 -19 10 -19
6 0 10 5 10 10 0 18 25 10 41 -13 16 -21 15 -24 -7 -50 -19 -22 -28 -26 -54
-21 -17 4 -33 11 -36 15 -3 5 -12 9 -21 9 -8 0 -30 7 -49 16 -28 14 -44 14
-95 5 -100 -17 -131 21 -67 81 51 48 67 51 181 33z m-2304 -314 c20 -11 44
-27 52 -37 8 -9 37 -32 66 -51 31 -19 50 -38 47 -46 -12 -31 80 -76 161 -79
123 -4 371 -48 438 -78 46 -20 184 -149 202 -187 11 -23 160 -187 236 -260 48
-46 69 -93 69 -157 0 -20 -4 -36 -10 -36 -13 0 -13 -37 0 -45 8 -5 7 -11 -1
-21 -7 -9 -8 -14 -1 -14 6 0 13 9 17 19 5 18 48 34 60 23 3 -3 5 -18 5 -34 0
-22 -4 -28 -17 -26 -13 2 -19 -6 -24 -32 -4 -19 -12 -48 -17 -65 -8 -23 -11
-25 -12 -10 -2 17 -3 16 -9 -5 -5 -17 -1 -36 13 -59 13 -22 16 -36 9 -38 -13
-5 -5 -43 9 -43 5 0 6 10 3 21 -5 15 -3 20 6 17 7 -2 19 -24 27 -48 12 -34 12
-47 3 -63 -11 -16 -9 -22 8 -38 12 -11 21 -24 21 -29 0 -4 3 -17 7 -27 4 -11
-7 -5 -32 17 l-37 35 7 -32 c5 -26 3 -33 -9 -33 -12 0 -15 -6 -10 -24 5 -21 3
-24 -15 -19 -23 6 -28 -6 -10 -24 8 -8 8 -17 0 -31 -13 -25 -15 -82 -2 -82 5
0 11 -7 14 -14 4 -10 1 -13 -9 -9 -7 3 -14 0 -14 -7 0 -24 -32 -39 -57 -27
-31 14 -39 3 -20 -26 15 -23 14 -25 -8 -35 -20 -9 -23 -15 -16 -34 4 -13 17
-23 28 -24 31 -2 67 -24 55 -36 -6 -6 -19 -5 -38 5 -29 15 -29 15 -31 -18 -3
-30 1 -35 33 -45 32 -11 35 -15 32 -48 -2 -19 -9 -37 -16 -38 -7 -1 -8 0 -2 3
15 7 12 23 -5 23 -8 0 -15 -9 -15 -20 0 -21 -24 -27 -35 -9 -5 7 -13 5 -24 -5
-16 -15 -19 -14 -37 7 -11 13 -23 31 -27 40 -8 21 -26 22 -33 3 -11 -28 -63
-16 -92 21 -30 37 -47 43 -37 13 5 -16 3 -19 -11 -13 -13 5 -15 2 -9 -18 4
-12 14 -29 21 -37 17 -16 18 -29 3 -37 -5 -4 -18 3 -28 14 -22 25 -31 27 -31
6 0 -8 6 -15 14 -15 19 0 28 -15 32 -52 3 -24 1 -29 -12 -24 -14 5 -15 4 -4
-9 11 -13 8 -14 -20 -9 -18 4 -35 3 -39 -2 -3 -5 -24 -18 -47 -28 -40 -17 -41
-17 -75 3 -19 12 -41 24 -49 28 -8 4 -20 12 -26 17 -6 6 -32 29 -58 50 -25 21
-46 47 -46 58 0 16 5 17 40 12 29 -5 43 -2 56 10 22 23 1 50 -33 41 -13 -3
-23 -1 -23 5 0 5 -11 10 -25 10 -14 0 -29 8 -34 19 -8 15 -22 19 -66 20 -31 0
-73 9 -97 19 -86 39 -134 63 -173 86 -22 14 -57 34 -77 46 -21 11 -38 25 -38
30 0 5 -11 12 -24 16 -15 3 -23 11 -20 19 6 15 -130 182 -180 220 -56 42 -83
16 -39 -37 10 -11 15 -40 15 -87 0 -65 -3 -72 -30 -99 -29 -28 -87 -53 -157
-68 -144 -30 -185 -40 -235 -59 -25 -9 -68 -17 -97 -18 -56 -1 -86 16 -106 63
-7 16 -11 173 -12 440 -1 273 -6 424 -13 442 -9 21 -8 27 4 32 17 7 62 -9 86
-30 9 -9 22 -17 30 -18 24 -5 68 -29 68 -38 0 -4 14 -8 30 -8 17 0 30 -5 30
-12 0 -7 16 -24 35 -38 30 -21 35 -30 33 -60 -2 -19 2 -35 7 -34 20 1 70 17
82 26 8 6 12 2 15 -13 2 -13 17 -29 38 -40 19 -11 30 -19 25 -19 -6 0 -2 -5 8
-11 9 -6 26 -8 36 -4 12 4 21 -2 29 -20 9 -19 19 -25 42 -25 20 0 30 -5 30
-15 0 -8 4 -15 9 -15 12 0 23 29 15 42 -4 6 5 2 20 -7 14 -10 26 -21 26 -26 0
-12 29 -25 73 -33 34 -6 39 -5 44 14 3 11 10 19 17 18 18 -3 86 23 86 33 0 5
6 9 13 9 26 0 57 40 51 65 -5 21 1 29 42 55 26 16 52 30 58 30 20 0 76 46 76
62 0 9 5 20 10 23 15 9 12 25 -4 25 -7 0 -25 6 -39 13 -22 12 -23 15 -11 32
26 35 18 45 -39 45 -29 0 -58 -5 -65 -12 -9 -9 -12 -9 -12 0 0 15 -46 16 -56
1 -4 -7 -23 -9 -53 -5 -25 4 -77 8 -116 11 -185 10 -242 17 -286 31 -27 9 -49
20 -49 24 0 4 -29 21 -63 38 -61 29 -67 30 -161 25 -93 -5 -173 6 -202 28 -6
5 -35 10 -65 10 -37 2 -68 10 -99 28 -25 14 -49 24 -54 23 -5 -2 -6 4 -2 13 3
9 2 14 -2 11 -5 -3 -16 4 -25 15 -12 13 -13 19 -4 19 7 0 21 9 30 21 11 12 25
18 34 15 42 -17 65 -17 81 -3 9 8 27 18 40 21 12 4 22 11 22 16 0 4 36 6 79 3
72 -5 82 -3 113 18 18 13 35 26 38 29 15 16 60 31 77 26 11 -4 33 0 49 9 16 8
34 15 40 15 14 0 26 28 19 40 -3 5 0 19 6 33 9 21 20 25 72 30 71 7 115 24
122 49 3 9 7 33 9 54 2 21 10 40 17 43 8 2 20 10 27 18 7 7 20 13 28 13 8 0
14 5 14 10 0 6 19 31 41 55 47 51 70 55 128 26z m2644 -111 c3 -11 2 -20 -2
-20 -10 0 -31 37 -24 44 9 9 20 -2 26 -24z m-4478 -10 c3 -6 -1 -7 -9 -4 -18
7 -21 14 -7 14 6 0 13 -4 16 -10z m-2249 -29 c0 -13 -6 -17 -20 -13 -18 5 -18
6 -1 19 11 7 19 13 20 13 0 0 1 -8 1 -19z m-202 -12 c-4 -8 15 -9 70 -4 66 6
76 5 76 -9 0 -9 8 -16 19 -16 35 0 51 -12 52 -39 0 -14 3 -20 6 -13 4 10 8 10
19 1 17 -14 19 2 2 19 -9 9 -6 12 14 10 20 -2 24 -6 17 -14 -6 -8 -6 -14 0
-18 5 -3 11 0 14 6 4 10 7 10 18 0 12 -11 12 -14 0 -21 -11 -7 -9 -10 8 -16
11 -3 21 -12 22 -18 2 -25 -3 -182 -6 -185 -2 -2 -13 1 -24 7 -17 9 -24 8 -40
-8 -21 -21 -72 -22 -111 -1 -13 7 -36 16 -52 20 -26 8 -25 5 19 -36 26 -25 38
-40 25 -34 -12 6 -26 8 -31 6 -5 -3 -11 1 -15 9 -3 8 -11 15 -18 15 -9 0 -9
-3 0 -12 7 -7 12 -28 12 -48 0 -28 -5 -38 -22 -46 -13 -6 -18 -9 -11 -8 15 3
28 -29 14 -34 -21 -7 -10 -22 17 -23 l27 -2 -27 -4 c-30 -5 -38 -27 -12 -37
25 -9 34 -7 34 8 0 9 7 12 20 9 29 -8 25 -33 -6 -33 -16 0 -23 -4 -18 -11 9
-15 -16 -30 -38 -23 -20 6 -37 -21 -31 -47 7 -25 -63 -58 -108 -51 l-34 5 25
-27 c13 -15 26 -22 28 -17 6 19 20 12 15 -8 -3 -13 -16 -20 -41 -23 -30 -4
-41 0 -64 26 -23 25 -28 27 -34 13 -3 -9 -12 -17 -18 -17 -8 0 -11 -12 -10
-32 3 -29 2 -30 -4 -8 -10 33 -48 39 -57 10 -5 -17 -9 -19 -21 -9 -12 10 -13
9 -7 -7 6 -16 5 -17 -9 -6 -14 11 -17 10 -23 -7 -3 -12 -10 -21 -15 -21 -5 0
-7 6 -4 14 4 10 -5 15 -31 18 -20 2 -39 0 -42 -5 -3 -4 -11 -6 -19 -3 -17 7
-18 -6 -2 -22 9 -9 7 -12 -10 -12 -15 0 -20 5 -16 15 7 17 -11 21 -21 5 -8
-12 -45 -13 -45 -2 0 5 -9 20 -21 33 -19 22 -22 23 -33 7 -8 -11 -16 -14 -22
-8 -6 6 -19 -14 -34 -50 -27 -65 -44 -74 -62 -35 -6 14 -17 25 -24 25 -7 0
-22 11 -33 25 l-20 26 -4 -23 c-4 -21 -5 -21 -18 10 -8 19 -21 32 -31 32 -15
0 -16 -4 -8 -20 5 -11 15 -29 20 -40 12 -24 13 -40 2 -22 -7 10 -15 6 -35 -14
-15 -15 -27 -22 -27 -15 0 6 -6 11 -14 11 -7 0 -16 9 -19 21 -4 13 -10 18 -18
13 -9 -5 -11 -1 -7 14 4 12 2 22 -3 22 -14 0 -11 -33 7 -58 8 -12 12 -22 7
-22 -4 0 0 -5 10 -11 9 -5 17 -17 17 -25 0 -8 4 -22 10 -32 20 -37 50 -106 50
-118 0 -6 7 -17 15 -24 8 -7 15 -19 15 -26 0 -8 9 -33 19 -57 11 -23 22 -60
26 -82 4 -22 11 -45 17 -52 5 -7 7 -17 4 -22 -4 -5 -2 -12 3 -15 5 -3 12 -30
16 -59 4 -28 11 -57 16 -63 8 -10 67 -292 74 -359 9 -74 17 -123 25 -155 4
-19 14 -86 21 -148 11 -103 15 -114 36 -126 14 -7 39 -41 57 -77 18 -35 53
-102 78 -149 26 -47 85 -175 133 -285 48 -110 101 -229 118 -265 17 -36 45
-99 62 -140 31 -73 34 -76 95 -108 36 -18 70 -30 76 -28 7 3 15 -2 18 -10 10
-25 45 -16 61 16 9 17 19 30 24 30 10 0 54 65 89 130 34 64 65 105 70 92 2 -6
-4 -25 -13 -42 -19 -38 -106 -173 -115 -180 -6 -4 -40 -69 -40 -75 0 -2 12 -6
28 -10 34 -8 196 -72 236 -92 33 -17 106 -19 134 -4 13 7 41 6 86 -1 l67 -11
42 40 c60 58 123 101 160 109 18 3 43 15 56 25 13 11 27 19 31 19 15 0 155 85
232 140 42 30 117 81 167 113 90 57 126 72 101 42 -6 -8 -9 -19 -6 -24 4 -6 0
-26 -8 -45 -12 -29 -12 -37 0 -53 7 -10 14 -30 14 -45 0 -15 5 -39 11 -55 7
-15 11 -38 10 -50 -1 -30 13 -29 34 3 20 31 32 109 41 264 7 129 17 160 56
174 25 9 33 4 103 -62 59 -56 82 -72 105 -72 37 0 37 5 4 63 -24 44 -25 49
-14 105 8 40 21 69 41 90 16 17 29 35 29 40 0 18 74 73 92 69 10 -3 18 0 19 6
1 12 2 20 14 86 4 18 18 59 33 90 14 31 29 65 34 76 4 11 4 -27 0 -85 -26
-375 8 -569 134 -766 113 -177 313 -404 355 -404 11 0 27 -5 38 -11 12 -8 23
-9 35 -2 16 9 14 11 -14 23 -17 7 -44 24 -60 38 -25 22 -27 27 -13 40 13 14
13 16 -1 24 -22 12 -206 199 -206 209 0 4 -6 14 -13 21 -19 19 -85 140 -89
163 -1 11 -6 22 -9 25 -8 7 -47 137 -60 200 -6 30 -14 71 -18 91 -15 66 3 256
31 334 6 17 13 47 15 68 5 33 8 37 27 31 11 -4 25 -12 29 -18 5 -6 7 -2 4 12
-4 17 0 23 19 28 20 5 24 12 24 45 0 21 5 39 11 39 5 0 7 5 3 11 -9 15 78 1
91 -15 6 -6 17 -10 25 -9 8 2 22 -7 30 -19 20 -31 140 -148 151 -148 5 0 8 3
7 8 0 4 2 15 6 24 6 12 0 24 -18 41 -18 16 -23 30 -19 45 3 12 -1 29 -8 38
-11 14 -9 15 25 9 30 -6 40 -4 51 11 13 18 14 18 34 -6 11 -14 20 -30 21 -36
0 -7 23 -36 51 -65 28 -30 58 -63 68 -75 19 -24 60 -48 68 -40 4 3 -15 49 -42
101 -26 53 -46 98 -43 100 3 3 17 -6 31 -19 l27 -25 0 24 c0 35 20 42 42 14
21 -29 24 -31 68 -88 19 -25 42 -52 50 -61 8 -9 40 -45 70 -80 30 -34 64 -73
76 -86 11 -12 33 -26 50 -30 l29 -7 -20 24 c-10 13 -34 40 -51 59 -31 33 -61
87 -99 175 -9 22 -21 48 -26 57 -5 10 -9 27 -9 39 0 16 9 10 43 -31 23 -29 48
-61 56 -71 7 -11 22 -19 32 -19 11 0 19 -6 19 -13 0 -8 10 -19 23 -24 13 -6
45 -30 71 -52 27 -23 51 -40 54 -37 2 3 -1 19 -8 36 -24 57 16 47 46 -12 37
-71 -42 -61 -131 17 -37 32 -98 55 -111 42 -13 -12 9 -46 74 -113 38 -39 86
-93 108 -120 21 -27 43 -52 48 -55 5 -4 10 -29 12 -56 4 -55 -4 -63 -75 -81
-56 -13 -49 -30 11 -25 71 4 82 -4 70 -50 -10 -34 -32 -67 -47 -67 -3 0 -3 6
1 13 4 6 -2 3 -14 -7 -17 -15 -22 -16 -23 -5 0 8 -16 -17 -34 -56 -31 -65 -37
-109 -10 -72 18 25 26 21 23 -14 -2 -20 -17 -48 -41 -76 -22 -24 -37 -46 -34
-49 3 -4 27 2 52 12 40 15 48 15 56 3 28 -45 -28 -93 -115 -98 -49 -2 -93 -25
-101 -51 -8 -24 12 -90 26 -90 19 0 119 -109 119 -129 0 -10 2 -26 5 -34 9
-21 -27 -59 -59 -62 -16 -2 -32 -8 -35 -14 -14 -22 -82 -40 -157 -41 -120 -2
-325 38 -371 72 -6 5 -31 8 -55 6 -46 -3 -46 -5 -36 -76 1 -7 54 -65 119 -129
133 -131 149 -162 107 -198 -20 -17 -44 -23 -108 -28 -104 -8 -134 -25 -128
-73 3 -29 1 -34 -16 -34 -53 0 -204 36 -311 75 -66 24 -138 48 -160 53 -22 5
-49 13 -60 18 -18 7 -18 6 -6 -9 7 -9 21 -17 30 -17 10 0 26 -7 37 -15 10 -8
26 -15 35 -15 9 0 28 -11 42 -24 14 -13 28 -22 31 -19 6 7 76 -28 76 -38 0 -5
6 -6 14 -3 8 3 17 1 20 -5 4 -6 14 -7 23 -4 13 5 15 2 10 -11 -5 -13 -3 -17 7
-13 7 3 26 -7 41 -23 34 -36 126 -80 165 -80 60 0 28 -28 -62 -54 -53 -15 -63
-15 -135 0 -52 11 -98 14 -137 9 -53 -6 -124 0 -302 25 -103 14 -162 48 -281
164 -60 57 -128 119 -152 138 -24 18 -58 50 -75 71 -29 37 -30 39 -13 52 17
12 12 14 -37 20 -47 6 -60 13 -79 37 -45 60 -66 78 -93 78 -26 0 -76 23 -102
48 -7 6 -20 12 -28 12 -8 0 -14 6 -14 13 0 6 -5 4 -11 -6 -12 -21 -29 -13 -29
14 0 10 -4 19 -10 19 -5 0 -10 -3 -10 -8 0 -4 -18 -6 -41 -4 l-41 4 6 39 c9
55 56 151 78 157 10 2 18 10 18 17 0 7 7 15 15 19 8 3 15 17 15 31 0 14 5 25
11 25 6 0 9 5 7 12 -3 9 -87 36 -120 38 -5 0 -8 -24 -8 -54 0 -52 -2 -56 -50
-99 -51 -46 -200 -117 -245 -117 -12 0 -44 10 -71 21 -31 14 -72 22 -118 24
-39 1 -87 5 -107 9 -32 7 -36 5 -47 -19 -17 -36 -9 -43 49 -51 27 -4 52 -11
55 -15 3 -5 21 -9 40 -9 19 0 34 -5 34 -10 0 -6 11 -8 26 -4 42 11 225 -16
256 -38 14 -10 32 -18 40 -18 8 0 18 -4 24 -10 5 -5 37 -15 69 -21 33 -6 65
-14 70 -19 6 -4 24 -11 40 -14 31 -7 95 -58 95 -75 0 -6 16 -18 35 -27 19 -9
35 -23 35 -30 0 -8 10 -14 25 -14 26 0 34 -15 13 -23 -8 -3 -7 -6 4 -6 9 -1
18 -11 20 -23 2 -13 10 -23 18 -23 8 0 15 -7 15 -15 0 -8 6 -19 13 -23 6 -4
12 -14 12 -21 0 -8 7 -17 16 -20 8 -3 13 -10 10 -15 -9 -14 4 -41 19 -41 23 0
42 -43 37 -83 -3 -31 -2 -36 12 -31 9 3 16 1 16 -5 0 -6 15 -11 33 -12 29 0
30 -1 10 -9 -28 -11 -30 -30 -4 -30 33 0 51 -11 51 -32 0 -12 6 -18 16 -16 22
4 27 -29 7 -41 -12 -6 -12 -10 -3 -16 6 -4 17 -2 23 4 6 6 15 11 21 11 6 0 5
-5 -2 -12 -17 -17 -15 -28 6 -28 10 0 22 -3 26 -7 3 -4 17 -8 29 -10 39 -6 77
-25 77 -40 0 -21 25 -43 50 -43 19 0 21 -4 15 -30 -8 -36 -4 -37 29 -6 30 27
32 36 9 36 -21 0 -9 13 16 17 11 1 24 -4 30 -11 9 -10 6 -17 -14 -30 -44 -29
-22 -71 24 -46 25 13 27 7 5 -14 -14 -14 -14 -18 0 -31 8 -8 25 -15 38 -15
l23 0 -21 -18 c-12 -9 -25 -27 -28 -38 -6 -21 -4 -22 55 -21 54 0 62 3 72 24
10 23 27 31 27 13 0 -5 -4 -10 -9 -10 -5 0 -11 -9 -14 -20 -4 -17 -1 -18 27
-13 l31 6 -22 -20 c-30 -27 -29 -33 7 -33 19 0 30 -5 30 -14 0 -8 4 -16 9 -18
11 -4 -47 -128 -60 -128 -5 0 -9 -6 -9 -14 0 -8 -6 -17 -12 -19 -7 -3 -4 -6 6
-6 16 -1 17 -4 8 -13 -14 -14 -16 -48 -3 -48 5 0 9 -11 9 -25 0 -14 -3 -25 -7
-25 -3 0 -12 -9 -18 -20 -10 -15 -10 -22 0 -32 41 -44 42 -47 5 -82 -38 -37
-95 -60 -124 -50 -10 3 -32 12 -49 19 -16 7 -48 18 -70 24 -22 6 -49 18 -60
26 -19 16 -19 16 8 10 20 -4 27 -2 27 10 0 11 -11 15 -40 15 -24 0 -40 -5 -40
-12 0 -6 -3 -8 -7 -5 -3 4 -11 3 -17 -2 -17 -13 -56 -22 -110 -27 -42 -3 -47
-2 -42 13 6 16 6 16 -12 0 -17 -16 -20 -15 -47 13 -23 24 -35 29 -56 25 -36
-8 -68 12 -62 39 4 17 1 16 -21 -9 -14 -17 -23 -22 -20 -12 5 13 2 16 -10 11
-9 -3 -16 -10 -16 -15 0 -5 -5 -9 -12 -9 -6 0 -20 -7 -30 -16 -14 -13 -21 -14
-32 -5 -11 9 -20 5 -45 -19 -17 -18 -28 -24 -25 -16 4 10 1 16 -9 16 -9 0 -20
7 -25 16 -7 13 -13 11 -40 -15 -32 -32 -47 -37 -72 -21 -10 6 -22 0 -42 -21
-16 -16 -33 -27 -38 -24 -6 4 -10 0 -10 -7 0 -9 -3 -9 -10 2 -8 12 -13 13 -29
3 -16 -10 -20 -9 -24 8 -4 13 2 23 16 31 39 21 50 37 37 53 -7 8 -23 15 -36
15 -18 0 -24 -6 -25 -22 -1 -18 -3 -17 -8 6 -6 28 -10 31 -76 42 -93 16 -142
17 -149 2 -5 -10 -7 -10 -12 -1 -7 15 -34 3 -65 -28 -10 -10 -28 -19 -40 -19
-31 0 -109 50 -120 76 -4 13 -13 24 -19 24 -5 0 -10 7 -10 15 0 8 -11 17 -24
21 -14 3 -32 14 -42 25 -9 10 -23 19 -31 19 -7 0 -14 6 -14 13 -1 6 -2 17 -4
22 -1 6 -3 17 -3 25 -2 11 -5 11 -14 2 -18 -18 -30 -15 -61 14 -15 14 -31 23
-36 19 -5 -3 -21 9 -35 26 -37 44 -36 96 3 133 36 34 56 31 131 -19 29 -19 55
-33 59 -30 4 2 5 19 3 37 -5 35 -29 60 -49 53 -7 -2 -34 5 -59 15 -25 11 -53
20 -62 20 -32 0 -150 102 -167 145 -31 74 -33 82 -28 119 3 21 0 43 -7 51 -10
13 -8 15 13 15 14 0 29 5 32 10 4 6 12 7 18 3 6 -4 27 -8 47 -10 68 -6 225
-35 258 -49 43 -17 74 -2 66 33 -4 14 -2 23 5 23 6 0 11 5 11 10 0 6 -11 10
-23 10 -13 0 -38 7 -55 15 -33 17 -73 21 -112 11 -22 -6 -23 -5 -5 4 16 8 11
9 -24 6 -26 -3 -39 -1 -32 4 10 5 4 10 -18 15 -18 4 -35 13 -38 21 -3 8 -11
14 -19 14 -7 0 -17 12 -20 26 -7 28 12 74 30 71 6 -1 10 7 8 18 -2 16 11 28
60 53 54 27 68 30 99 23 20 -5 59 -5 87 0 28 4 68 6 89 4 157 -15 524 9 560
37 7 6 39 12 73 15 105 10 59 39 -49 31 -49 -3 -61 -1 -70 14 -8 13 -18 17
-32 13 -11 -4 -27 -1 -35 6 -8 6 -31 13 -52 15 -103 7 -266 60 -286 93 -4 6
-18 8 -30 5 -28 -7 -82 19 -149 70 -25 19 -49 31 -52 26 -8 -13 6 -61 16 -54
16 10 9 -20 -14 -61 -14 -24 -31 -41 -45 -43 -16 -3 -26 -16 -39 -53 -17 -47
-19 -49 -54 -49 -52 0 -160 -35 -188 -61 -53 -49 -75 -146 -47 -200 13 -26 12
-27 -26 -49 -27 -15 -50 -20 -71 -17 -18 2 -40 0 -50 -5 -12 -6 -23 -6 -32 2
-10 9 -46 10 -127 5 -169 -11 -240 -12 -268 -4 -14 5 -38 10 -55 12 -72 9
-138 44 -191 101 -66 72 -84 97 -84 118 0 10 -7 21 -15 24 -8 4 -13 10 -10 14
5 9 -36 92 -43 86 -2 -2 -17 10 -33 26 -30 32 -36 57 -18 75 8 8 6 19 -5 41
-9 17 -19 33 -24 36 -4 2 -34 -19 -66 -49 -49 -46 -58 -60 -61 -96 -5 -45 8
-71 30 -63 8 3 39 0 70 -6 64 -13 77 -31 64 -89 -4 -20 -12 -60 -18 -88 -14
-70 -49 -123 -113 -173 -77 -60 -129 -138 -142 -216 -5 -25 0 -36 29 -63 19
-18 35 -37 35 -42 0 -5 -12 -23 -27 -39 l-28 -31 -58 93 c-54 86 -56 93 -37
100 11 4 20 10 20 13 0 4 -4 3 -10 0 -15 -9 -13 -3 20 63 32 65 34 72 23 72
-5 0 -21 -32 -37 -70 -17 -39 -33 -70 -38 -70 -4 0 -19 22 -33 50 l-25 50 37
19 c21 10 43 18 48 18 6 -1 19 13 30 30 29 47 49 52 42 11 -3 -18 -3 -27 0
-20 2 6 11 12 18 12 8 0 16 17 20 41 4 23 14 58 22 77 8 19 13 36 10 38 -2 2
-20 -19 -42 -47 -46 -60 -149 -155 -176 -162 -16 -4 -26 6 -52 60 l-32 65 35
29 c19 17 41 35 48 40 7 6 11 13 9 15 -5 6 -58 -22 -66 -34 -3 -6 -15 -12 -25
-14 -13 -2 -22 5 -29 25 -8 26 -6 32 24 58 51 44 86 60 142 65 38 3 56 11 69
27 9 12 15 24 12 26 -2 2 0 9 5 15 6 7 4 16 -4 23 -10 10 -34 -2 -117 -58 -56
-39 -107 -76 -113 -83 -5 -7 -18 -15 -27 -19 -13 -5 -24 11 -53 81 -126 301
-228 707 -267 1072 -16 151 -16 584 1 730 65 577 234 1086 519 1560 84 140
221 340 233 340 18 0 129 -104 129 -120 0 -6 6 -10 14 -10 8 0 18 -9 21 -20 3
-11 11 -20 16 -20 14 0 56 -47 70 -79 7 -15 23 -32 36 -38 20 -10 22 -9 14 1
-8 10 -8 16 2 25 8 6 17 8 21 4 3 -4 3 8 0 25 -6 29 -5 32 14 25 11 -5 34 -20
51 -36 17 -15 31 -23 31 -18 0 10 -35 40 -122 105 -42 32 -54 46 -45 55 8 8 8
14 -2 24 -10 10 -15 9 -25 -5 -17 -23 -22 -22 -53 2 -25 19 -68 88 -60 96 2 2
17 7 34 10 25 5 33 2 42 -15 16 -29 61 -29 54 -1 -4 14 0 20 12 20 14 0 15 -3
6 -14 -9 -11 -9 -16 -1 -21 7 -4 9 -18 6 -31 -5 -17 -2 -24 8 -24 16 0 28 47
19 79 -3 12 -1 21 6 21 6 0 11 7 11 15 0 9 7 18 15 21 8 4 15 12 15 20 0 8 5
14 10 14 6 0 10 7 10 15 0 10 11 15 35 15 43 0 45 14 6 31 -39 17 -19 30 24
16 29 -9 38 -7 63 14 70 56 76 59 87 48 7 -7 0 -19 -25 -39 -19 -16 -32 -32
-28 -36 4 -4 21 7 37 25 16 17 38 31 50 31 13 0 25 11 36 33 l15 33 91 1 c93
1 115 7 89 23 -12 8 -12 10 4 10 10 0 24 -7 30 -15 9 -13 17 -14 44 -4 18 6
49 9 69 6 34 -6 73 8 73 27 0 4 -11 6 -25 4 -14 -3 -28 -2 -30 2 -3 4 -32 10
-65 14 -33 4 -60 11 -60 16 0 6 3 10 8 11 85 9 163 8 156 -2 -5 -9 7 -11 46
-7 28 3 55 11 60 17 4 7 40 14 86 17 43 3 80 7 83 9 8 9 12 5 5 -6z m329 -36
c-7 -2 -19 -2 -25 0 -7 3 -2 5 12 5 14 0 19 -2 13 -5z m5798 -28 c98 -5 119
-18 154 -96 15 -34 38 -77 51 -97 31 -45 30 -86 -2 -157 -23 -50 -25 -59 -11
-72 13 -13 21 -12 71 12 40 19 60 35 66 54 26 72 31 76 100 77 78 1 141 11
154 24 10 10 56 14 56 5 0 -17 -35 -55 -51 -55 -22 0 -59 -34 -59 -53 0 -19
67 -38 94 -27 23 9 69 56 79 83 8 21 27 23 27 2 0 -8 -5 -15 -11 -15 -8 0 -7
-5 2 -16 10 -13 10 -20 -4 -44 -13 -22 -14 -29 -5 -33 10 -4 10 -7 0 -15 -7
-5 -10 -15 -7 -24 3 -8 -1 -21 -10 -28 -17 -14 -20 -40 -4 -40 5 0 17 15 25
33 14 32 35 68 44 77 16 16 47 103 81 225 33 122 48 164 49 138 0 -13 4 -23 9
-23 5 0 11 -9 14 -20 3 -12 11 -18 19 -15 8 3 19 -7 27 -27 8 -18 35 -53 61
-78 25 -25 50 -52 54 -60 4 -8 13 -26 21 -40 l15 -25 1 25 c0 14 3 19 6 12 2
-6 9 -10 14 -6 5 3 9 -1 9 -9 0 -8 7 -18 16 -21 10 -4 13 -2 8 6 -5 8 -2 9 10
5 12 -5 28 9 62 56 44 59 69 74 87 52 4 -5 5 3 1 19 -5 21 -4 27 5 22 6 -4 11
-15 12 -24 0 -14 2 -13 9 3 5 11 9 16 9 10 1 -6 4 -5 9 1 10 15 57 30 48 15
-4 -6 -1 -9 7 -5 18 6 27 -23 27 -88 0 -26 4 -49 10 -53 5 -3 6 -15 1 -28 -4
-12 -6 -56 -4 -98 2 -58 0 -79 -11 -89 -11 -9 -13 -18 -5 -38 25 -65 -9 -463
-47 -549 -8 -17 -14 -34 -14 -38 0 -7 -20 -54 -43 -102 -6 -13 -20 -23 -31
-24 -19 0 -19 -1 -3 -8 17 -6 17 -8 3 -20 -9 -7 -16 -19 -16 -25 0 -6 -27 -39
-59 -73 -33 -34 -64 -78 -71 -98 -6 -19 -15 -35 -18 -35 -14 -1 -74 -62 -76
-78 -2 -9 -10 -17 -18 -17 -8 0 -22 -5 -29 -11 -8 -5 -31 -19 -51 -29 -41 -21
-44 -25 -28 -41 8 -8 -1 -22 -30 -47 -22 -21 -40 -44 -40 -52 0 -8 -9 -15 -19
-15 -11 0 -23 -4 -26 -10 -3 -5 -18 -10 -33 -11 -27 0 -27 0 -4 -10 13 -5 20
-13 17 -19 -4 -6 -10 -8 -15 -5 -4 3 -10 -2 -14 -10 -3 -9 -12 -12 -22 -8 -12
4 -15 3 -10 -5 4 -8 0 -12 -11 -13 -13 -1 -11 -3 7 -9 16 -5 19 -8 8 -9 -9 -1
-22 -9 -27 -18 -10 -17 -12 -17 -26 1 -14 19 -15 18 -32 -2 -14 -16 -32 -23
-78 -26 -33 -2 -52 -2 -42 1 25 6 15 29 -12 26 -30 -4 -26 12 8 36 21 15 28
27 24 41 -3 11 -12 20 -19 20 -17 0 -18 -12 -2 -28 10 -10 5 -11 -22 -6 -19 4
-38 11 -41 16 -3 6 -9 9 -13 9 -23 -3 -36 0 -31 9 3 6 -4 10 -15 10 -13 0 -24
8 -27 20 -3 13 -14 20 -29 20 -13 0 -24 5 -24 11 0 6 9 8 20 4 11 -3 20 -4 20
-1 0 3 -19 10 -41 16 -31 9 -39 14 -30 23 17 17 13 30 -8 24 -12 -3 -22 1 -25
10 -3 7 -13 13 -22 11 -9 -2 -18 3 -20 10 -1 7 0 8 3 2 6 -14 23 -3 23 16 0 8
-7 14 -15 14 -8 0 -15 5 -15 10 0 6 5 10 11 10 6 0 22 8 35 19 23 18 24 19 3
24 -27 7 -20 30 11 37 34 8 36 28 3 32 -15 2 -27 8 -26 14 1 7 -9 24 -23 39
-28 30 -28 30 5 40 16 5 21 4 17 -4 -5 -7 -1 -9 9 -5 8 4 14 12 13 20 -2 7 6
27 17 43 17 26 25 30 53 26 26 -3 39 1 58 20 33 33 30 42 -13 52 l-37 9 22 22
c12 12 19 28 16 37 -4 8 -1 22 5 29 9 11 8 18 -7 33 -34 32 -41 53 -26 82 8
14 14 47 14 72 0 44 -1 46 -25 41 -25 -4 -29 2 -26 38 1 12 -1 12 -12 -2 -21
-27 -41 -6 -34 36 4 26 2 36 -7 36 -8 0 -16 13 -18 29 -4 26 -2 29 14 20 10
-5 18 -7 18 -4 0 3 15 -1 33 -8 39 -17 89 -11 134 15 45 27 42 41 -4 21 -51
-21 -100 -25 -151 -12 -48 13 -75 46 -131 157 -17 34 -33 62 -35 62 -2 0 -3
-40 -3 -89 2 -76 -1 -94 -19 -117 -19 -26 -54 -49 -41 -26 9 14 -17 33 -55 41
-22 5 -34 14 -39 31 -31 104 -67 176 -92 188 -15 7 -27 18 -27 24 0 5 -13 27
-29 47 -15 20 -34 53 -40 74 -8 24 -19 37 -31 37 -33 0 -45 55 -45 199 1 133
1 134 28 157 16 13 40 24 55 24 15 0 33 4 41 9 10 6 25 4 44 -5 16 -9 64 -17
108 -19z m-3761 -18 c19 5 22 3 17 -10 -4 -10 1 -20 11 -26 26 -16 4 -13 -27
3 -15 8 -34 23 -42 33 -12 16 -12 17 2 6 8 -7 26 -9 39 -6z m-2890 -6 c0 -11
-59 -20 -66 -10 -2 4 10 10 28 12 18 2 34 5 36 5 1 1 2 -2 2 -7z m2863 -52 c8
-8 24 -22 36 -31 11 -10 21 -29 21 -43 0 -23 -2 -24 -21 -15 -11 6 -36 29 -56
51 -19 21 -42 39 -49 39 -8 0 -14 6 -14 14 0 17 61 6 83 -15z m-1923 -1 c0 25
28 11 33 -17 4 -17 14 -30 26 -34 16 -4 19 -14 20 -65 0 -44 -5 -64 -16 -74
-15 -12 -16 -8 -9 40 7 55 6 58 -25 42 -16 -9 -19 -7 -19 14 0 13 -6 31 -14
39 -15 14 -19 30 -17 57 1 13 2 13 11 0 6 -10 10 -11 10 -2z m-36 -34 c14 -14
14 -17 -4 -36 -25 -27 -32 -20 -24 20 7 37 8 37 28 16z m7126 -25 c0 -11 -4
-17 -10 -14 -5 3 -10 1 -10 -6 0 -7 -3 -10 -6 -6 -8 8 5 47 17 47 5 0 9 -9 9
-21z m-8370 -9 c0 -5 -4 -10 -10 -10 -5 0 -10 5 -10 10 0 6 5 10 10 10 6 0 10
-4 10 -10z m1275 -57 c4 -21 12 -41 18 -45 9 -6 9 -8 0 -8 -6 0 -18 7 -27 15
-8 8 -19 15 -25 15 -15 0 -14 16 1 40 18 29 25 25 33 -17z m166 -15 c-3 -21
-6 -26 -9 -15 -3 17 3 47 11 47 2 0 1 -15 -2 -32z m-1622 -57 c-13 -38 -39
-49 -39 -17 0 19 17 35 47 45 1 1 -3 -12 -8 -28z m1398 7 c-3 -8 -6 -5 -6 6
-1 11 2 17 5 13 3 -3 4 -12 1 -19z m-58 -21 c0 -21 -1 -21 -9 -2 -12 28 -12
37 0 30 6 -3 10 -16 9 -28z m7601 -11 c0 -3 -4 -8 -10 -11 -5 -3 -10 -1 -10 4
0 6 5 11 10 11 6 0 10 -2 10 -4z m-8995 -16 c3 -5 1 -10 -4 -10 -6 0 -11 5
-11 10 0 6 2 10 4 10 3 0 8 -4 11 -10z m1610 -69 c3 -11 1 -28 -4 -38 -17 -30
-44 -97 -43 -105 1 -5 -2 -8 -8 -8 -5 0 -10 -7 -10 -16 0 -14 2 -15 17 -3 15
12 16 12 9 -5 -4 -11 -14 -43 -23 -70 -9 -28 -20 -56 -25 -62 -4 -6 -6 -18 -3
-26 3 -7 -4 -24 -15 -36 -20 -22 -35 -29 -28 -14 27 55 49 115 45 119 -7 6
-67 -80 -73 -104 -4 -13 -10 -20 -15 -17 -5 3 -9 2 -9 -3 0 -4 -6 -46 -14 -93
-16 -102 -10 -274 10 -291 8 -6 14 -18 14 -25 0 -17 17 -18 23 -1 2 6 5 -7 5
-30 0 -24 -3 -43 -9 -43 -5 0 -9 -5 -9 -11 0 -5 5 -7 10 -4 6 4 10 -13 10 -44
0 -28 -2 -51 -4 -51 -7 0 -68 136 -83 183 -15 52 -11 249 7 317 53 202 103
325 127 315 7 -2 13 0 13 5 0 6 -6 10 -12 10 -8 1 -6 6 5 14 9 7 17 18 17 23
0 6 6 16 14 22 11 9 15 9 19 -1 3 -7 6 -4 6 7 1 11 8 33 16 48 13 25 13 27 -2
25 -9 -2 -18 3 -21 11 -3 8 0 11 7 7 6 -4 11 -2 11 3 0 19 18 12 25 -8z m7404
-4 c5 -12 5 -47 0 -79 -5 -32 -11 -70 -12 -85 -2 -16 -9 -40 -15 -55 -12 -29
-6 -84 9 -94 5 -3 7 -10 4 -15 -4 -5 0 -9 7 -9 18 0 48 56 48 90 0 15 6 30 14
33 19 8 26 -1 26 -35 0 -60 37 -13 45 57 11 102 19 135 31 146 23 19 31 2 39
-76 6 -70 21 -105 46 -105 5 0 9 -7 9 -15 0 -8 8 -15 17 -15 13 0 14 -3 5 -12
-16 -16 -15 -43 3 -58 12 -10 15 -9 15 4 0 13 5 16 20 11 16 -5 20 -2 20 14 0
23 1 24 24 15 20 -8 21 -24 1 -24 -21 0 -19 -19 3 -27 9 -4 20 -11 24 -17 4
-6 12 -5 22 3 13 11 16 11 16 -2 0 -8 -6 -17 -14 -20 -8 -3 -17 -19 -21 -36
-7 -33 -25 -52 -25 -27 0 18 -43 32 -62 20 -15 -10 -20 -11 -48 -13 -11 0 -24
-9 -27 -18 -4 -10 -11 -21 -15 -24 -5 -3 -8 -28 -6 -55 3 -48 4 -48 16 -21 6
15 19 30 28 34 13 5 13 7 2 14 -10 7 -10 9 0 9 7 0 24 -8 38 -17 25 -16 26
-15 47 10 46 55 93 -11 62 -87 -13 -30 -13 -41 -4 -52 9 -11 9 -24 1 -52 -25
-84 -25 -85 -8 -79 24 9 34 -23 13 -38 -10 -7 -17 -17 -17 -24 0 -6 -4 -11 -8
-11 -12 0 -10 -44 2 -52 7 -5 5 -8 -6 -8 -9 0 -21 -13 -27 -30 -8 -25 -16 -30
-41 -30 -33 0 -49 -22 -31 -43 6 -8 10 -35 9 -60 -2 -35 2 -50 16 -60 13 -10
16 -20 11 -37 -6 -17 -9 -20 -16 -9 -6 10 -9 11 -9 2 0 -7 -9 -13 -20 -13 -11
0 -20 4 -20 9 0 5 -14 11 -31 13 -32 5 -62 -21 -74 -65 -11 -37 -101 -228
-127 -267 -9 -14 -19 -38 -22 -55 -4 -16 -3 -24 0 -17 9 20 96 112 105 112 5
0 9 -5 9 -11 0 -6 6 -17 14 -24 24 -24 11 -89 -28 -142 -19 -26 -43 -56 -52
-65 -20 -21 -138 -68 -142 -57 -3 6 -38 -28 -131 -127 -17 -19 0 -64 24 -64 8
0 15 -4 15 -9 0 -4 11 -6 25 -3 31 5 33 -13 3 -23 -51 -16 -58 -15 -64 9 -6
27 -44 43 -44 19 0 -8 -5 -11 -10 -8 -6 3 -13 -1 -16 -9 -3 -9 -17 -16 -30
-16 -13 0 -24 -6 -24 -12 0 -7 -5 -5 -11 5 -8 14 -14 16 -25 6 -13 -10 -13
-14 0 -28 14 -15 11 -16 -26 -14 -29 1 -45 -3 -53 -14 -7 -10 -19 -14 -29 -10
-20 8 -21 27 -2 27 18 0 26 13 36 56 7 28 5 36 -11 45 -10 5 -19 15 -19 21 0
9 3 9 12 0 7 -7 18 -12 25 -12 18 0 16 27 -2 37 -13 8 -13 11 1 31 8 12 22 22
30 22 8 0 14 7 14 15 0 9 7 18 16 22 9 3 15 16 14 32 -1 14 -1 31 0 36 1 6 3
17 4 25 0 8 8 15 16 15 15 0 30 13 30 28 0 11 -48 8 -69 -5 -16 -9 -17 -16 -9
-37 6 -17 6 -27 -1 -29 -6 -2 -11 -12 -11 -23 0 -10 -6 -19 -13 -19 -7 0 -19
-9 -27 -20 -8 -11 -19 -20 -24 -20 -16 0 -56 -42 -56 -59 0 -9 -12 -27 -25
-40 -14 -12 -22 -27 -19 -32 3 -5 2 -9 -3 -9 -4 0 -8 -12 -9 -28 -1 -15 -15
-57 -33 -94 -17 -37 -31 -70 -31 -74 0 -3 -7 -22 -16 -42 -38 -87 -57 -128
-67 -147 -6 -11 -18 -33 -26 -50 -9 -16 -22 -34 -28 -38 -7 -4 -13 -19 -13
-32 0 -13 -4 -27 -10 -30 -5 -3 -10 -14 -10 -24 0 -11 -10 -22 -22 -26 -14 -4
-18 -8 -10 -12 19 -8 4 -23 -24 -23 -13 0 -24 -4 -24 -10 0 -5 7 -10 15 -10
18 0 18 -5 5 -31 -6 -10 -17 -19 -25 -19 -8 0 -15 -8 -15 -18 0 -10 -16 -34
-36 -54 -26 -28 -34 -43 -29 -58 5 -14 2 -20 -9 -20 -9 0 -16 -5 -16 -11 0
-15 -42 -59 -57 -59 -18 0 -27 -41 -12 -51 11 -7 11 -9 1 -9 -7 0 -26 -13 -44
-30 -17 -16 -35 -30 -39 -30 -5 0 -6 -7 -3 -15 4 -9 14 -14 23 -13 9 2 16 -4
16 -12 0 -15 -11 -16 -72 -7 -22 3 -49 -4 -80 -19 -34 -16 -51 -20 -60 -12 -7
6 -13 6 -13 2 0 -5 9 -15 19 -21 16 -10 25 -9 48 2 33 17 109 20 118 4 10 -15
-25 -49 -50 -49 -13 0 -28 7 -35 15 -14 17 -40 20 -40 6 0 -5 8 -12 19 -16 10
-3 27 -15 37 -26 18 -20 18 -20 -11 -13 -33 8 -115 62 -115 76 0 4 -5 8 -11 8
-13 0 -149 118 -196 170 -125 138 -159 182 -184 234 -16 33 -28 67 -27 75 2
12 -6 17 -32 18 -31 2 -32 1 -10 -7 l25 -8 -27 -1 c-15 -1 -30 -5 -33 -11 -3
-5 -12 -10 -18 -10 -7 0 -6 4 3 10 13 9 13 10 0 10 -21 1 15 21 54 30 17 4 38
9 46 11 8 2 19 9 23 14 5 6 6 -6 3 -25 l-6 -35 25 29 c13 16 22 33 19 37 -3 5
2 12 11 15 14 6 14 9 3 16 -10 8 -10 9 2 5 8 -2 13 -12 12 -22 -3 -16 -1 -17
12 -6 9 8 16 21 17 30 0 12 2 12 6 2 5 -11 7 -11 14 0 7 11 9 9 9 -5 0 -11 3
-17 6 -13 3 3 4 7 2 9 -6 8 30 38 45 38 8 0 28 14 45 30 29 28 44 35 65 31 5
-1 6 3 3 8 -3 5 18 19 47 31 28 12 69 38 91 57 21 20 57 43 80 54 22 10 61 38
86 63 24 25 48 46 53 46 11 0 87 57 104 78 7 8 10 19 7 24 -11 17 43 75 68 73
29 -2 57 23 39 35 -10 5 -8 18 8 53 22 49 48 76 36 38 -5 -15 -1 -23 12 -28
10 -4 21 -11 25 -17 4 -6 12 -5 22 3 11 9 16 10 16 2 0 -6 9 -11 20 -11 32 0
23 25 -14 43 -29 14 -35 14 -40 1 -3 -8 -12 -14 -20 -14 -29 0 -9 57 50 145
33 50 79 125 103 167 24 43 49 74 54 71 6 -4 8 0 4 10 -3 9 3 25 16 39 46 51
75 94 82 127 4 19 46 111 94 205 152 303 261 547 261 588 0 11 7 34 16 51 31
60 34 67 34 89 0 13 9 52 20 88 11 36 20 86 20 113 0 29 4 47 12 47 6 0 8 3 5
7 -4 3 -2 12 4 20 6 7 13 28 14 45 2 18 3 39 4 46 2 21 31 13 40 -11z m-7765
-11 c-8 -20 -34 -21 -34 -1 0 9 6 12 15 9 8 -4 15 -1 15 7 0 7 2 10 5 7 3 -3
3 -13 -1 -22z m8006 -52 c0 -16 -26 -19 -35 -4 -3 6 -4 14 0 20 8 13 35 1 35
-16z m-5162 -32 c-8 -9 -7 -11 6 -6 9 3 16 2 17 -2 0 -5 2 -19 3 -32 2 -13 -4
-27 -13 -32 -12 -7 -12 -9 -2 -10 10 0 11 -3 2 -13 -6 -8 -8 -17 -4 -20 3 -4
-4 -7 -16 -7 -19 0 -22 -4 -18 -22 4 -13 -1 -31 -14 -46 -10 -14 -19 -33 -19
-44 0 -11 -4 -16 -10 -13 -5 3 -10 -3 -10 -13 0 -11 -7 -25 -15 -32 -8 -7 -12
-16 -10 -20 3 -5 -4 -25 -15 -46 -12 -20 -24 -59 -27 -85 -3 -27 -10 -46 -14
-43 -5 3 -9 -5 -9 -18 0 -13 -9 -41 -20 -63 -11 -22 -20 -45 -20 -52 0 -7 -5
-13 -11 -13 -5 0 -7 -4 -4 -10 3 -5 1 -10 -4 -10 -6 0 -11 -6 -11 -14 0 -7 -7
-19 -15 -26 -8 -7 -15 -25 -15 -41 0 -15 -4 -31 -10 -34 -5 -3 -10 -15 -10
-26 0 -12 -7 -19 -20 -19 -14 0 -20 -7 -20 -22 0 -12 -3 -18 -7 -15 -3 4 -11
1 -17 -7 -6 -7 -26 -16 -43 -19 -28 -6 -38 -1 -73 32 -22 21 -42 35 -45 32 -4
-3 -3 2 0 10 10 27 -103 122 -177 149 -24 8 -28 15 -28 47 0 21 7 51 15 67 9
16 14 35 11 42 -3 8 1 11 10 7 7 -3 14 0 14 6 0 6 -7 11 -15 11 -22 0 -18 14
14 49 16 17 25 31 20 31 -5 0 -9 8 -9 18 0 10 -7 27 -15 39 -8 12 -11 24 -6
27 5 3 7 15 4 26 -3 12 4 27 21 43 26 24 35 70 16 82 -5 3 -9 18 -9 33 1 19 3
21 6 9 4 -15 10 -17 31 -11 35 10 335 11 342 2 4 -4 20 -11 38 -14 25 -5 32
-3 32 9 0 9 12 29 26 44 14 15 30 39 35 52 6 14 15 21 23 18 8 -3 17 1 20 9 3
9 10 12 16 9 5 -3 10 -2 10 3 0 6 18 9 39 9 30 -2 37 -5 29 -15z m-2488 -22
c0 -5 -5 -10 -11 -10 -5 0 -7 5 -4 10 3 6 8 10 11 10 2 0 4 -4 4 -10z m41 -27
c-8 -15 -10 -15 -11 -2 0 17 10 32 18 25 2 -3 -1 -13 -7 -23z m-1576 -62 c-1
-8 -8 -17 -15 -19 -7 -3 -10 0 -6 7 4 6 1 11 -6 11 -9 0 -9 3 2 10 12 8 12 10
-5 10 -16 0 -17 2 -6 9 17 11 40 -7 36 -28z m1548 0 c-2 -10 -23 -40 -45 -67
-23 -27 -38 -41 -35 -31 4 10 7 23 7 28 0 6 5 7 10 4 6 -3 10 0 10 9 0 12 46
76 55 76 2 0 1 -8 -2 -19z m1768 -21 c5 0 9 -7 9 -15 0 -8 5 -15 10 -15 6 0 8
11 4 25 -3 14 -2 25 4 25 22 0 20 -41 -4 -65 -32 -32 -34 -31 -34 5 0 27 -3
30 -29 30 -17 0 -33 4 -36 10 -4 6 6 7 25 4 25 -5 30 -3 31 12 1 17 2 17 6 2
2 -10 9 -18 14 -18z m69 -50 c0 -11 -7 -20 -15 -20 -13 0 -14 4 -5 20 6 11 13
20 15 20 3 0 5 -9 5 -20z m5970 -29 c0 -6 -4 -13 -10 -16 -5 -3 -10 1 -10 9 0
9 5 16 10 16 6 0 10 -4 10 -9z m-6010 -13 c0 -21 -17 -41 -29 -34 -7 5 -7 13
2 26 13 23 27 26 27 8z m-1830 -5 c0 -5 -8 -17 -17 -28 -14 -18 -15 -18 -9 -2
3 10 6 23 6 28 0 5 5 9 10 9 6 0 10 -3 10 -7z m8131 -10 c13 -16 12 -17 -3 -4
-10 7 -18 15 -18 17 0 8 8 3 21 -13z m3 -34 c-3 -5 0 -17 5 -28 9 -16 8 -19
-7 -17 -20 3 -25 53 -5 53 6 0 10 -4 7 -8z m-8884 -9 c0 -5 -5 -10 -11 -10 -5
0 -7 5 -4 10 3 6 8 10 11 10 2 0 4 -4 4 -10z m8929 -34 c-3 -3 -11 5 -18 17
-13 21 -12 21 5 5 10 -10 16 -20 13 -22z m-320 -12 c3 -16 1 -17 -13 -5 -19
16 -21 34 -3 29 6 -3 14 -13 16 -24z m-7939 6 c0 -5 -8 -10 -17 -10 -15 0 -16
2 -3 10 19 12 20 12 20 0z m8013 -34 c7 2 22 -16 34 -43 35 -74 44 -103 33
-103 -15 0 -12 -21 7 -42 22 -25 25 -128 5 -180 -14 -35 -14 -40 1 -56 20 -22
24 -131 6 -149 -6 -6 -8 -21 -4 -34 7 -21 8 -21 18 -3 6 10 13 21 16 24 18 15
27 48 20 67 -4 12 -4 25 1 28 5 3 8 18 8 33 -1 34 12 94 23 107 4 6 9 82 10
168 1 155 5 170 35 149 13 -9 17 -112 4 -112 -6 0 -10 -11 -10 -25 0 -14 4
-25 8 -25 4 0 6 -16 4 -35 -5 -41 0 -42 39 -14 16 11 36 19 43 16 15 -6 47 28
38 39 -4 5 0 3 9 -4 9 -6 18 -9 21 -6 9 8 69 -126 62 -138 -4 -7 -3 -8 5 -4 8
5 10 0 7 -18 -3 -14 0 -25 5 -23 6 1 16 -13 24 -30 8 -18 10 -33 5 -33 -6 0
-10 5 -10 11 0 5 -5 7 -12 3 -7 -5 -9 0 -6 14 4 15 2 19 -9 15 -8 -3 -12 -11
-10 -17 3 -7 -4 -12 -17 -12 -12 1 -20 -4 -18 -11 1 -8 -9 -13 -28 -13 -22 0
-30 5 -30 18 0 10 5 23 11 29 7 7 6 12 -5 16 -8 3 -18 2 -21 -3 -4 -6 -15 -10
-26 -10 -27 0 -24 -14 12 -50 25 -25 30 -36 25 -58 -4 -15 -8 -35 -10 -46 -1
-10 -10 -22 -19 -27 -9 -5 -14 -18 -12 -28 2 -11 -3 -22 -12 -25 -12 -5 -13
-9 -3 -21 11 -13 8 -15 -16 -15 -22 0 -26 -3 -14 -10 13 -8 13 -10 -2 -10 -18
0 -74 -77 -84 -114 -3 -15 -16 -27 -32 -31 -15 -4 -41 -17 -59 -31 -35 -27
-58 -30 -70 -11 -4 8 -16 16 -25 20 -18 7 -25 37 -9 37 11 0 2 38 -11 46 -5 3
-6 -5 -2 -20 5 -21 2 -26 -11 -26 -15 0 -17 7 -12 53 4 28 3 68 -2 87 -10 44
3 170 18 179 6 4 12 25 13 47 2 38 2 38 12 12 5 -16 15 -28 21 -28 13 0 13 56
0 68 -4 4 -4 -4 0 -18 7 -24 7 -24 -9 -5 -20 26 -20 79 -1 95 8 7 15 25 15 41
0 21 5 28 23 31 30 4 36 44 8 53 -17 5 -20 13 -17 52 2 26 -2 62 -8 82 -13 38
-29 105 -20 84 3 -7 11 -10 17 -7z m-9166 -18 c-3 -8 -6 -5 -6 6 -1 11 2 17 5
13 3 -3 4 -12 1 -19z m1156 -19 c-7 -125 -16 -194 -24 -197 -16 -6 -10 -22 9
-23 15 -1 15 -2 -1 -6 -11 -3 -16 -11 -13 -19 3 -7 1 -16 -4 -19 -4 -3 -11 1
-13 7 -3 7 -6 3 -6 -9 -1 -13 -5 -23 -10 -23 -25 0 5 225 32 242 7 4 7 11 -3
23 -10 12 -10 21 -1 41 16 35 36 25 34 -17z m-1053 -5 c0 -8 -4 -12 -10 -9 -5
3 -10 13 -10 21 0 8 5 12 10 9 6 -3 10 -13 10 -21z m9006 -23 c-1 -43 -16 -50
-16 -8 0 21 4 37 8 37 5 0 8 -13 8 -29z m8 -126 c3 -9 0 -15 -9 -15 -9 0 -12
6 -9 15 4 8 7 15 9 15 2 0 5 -7 9 -15z m-4 -62 c-1 -27 -1 -27 -15 -9 -12 16
-12 22 -2 28 17 11 17 11 17 -19z m-8715 9 c30 -21 45 -94 24 -116 -5 -6 -9
-21 -9 -34 0 -20 3 -22 14 -13 11 9 11 4 2 -30 l-11 -42 -6 34 c-3 19 -11 44
-18 57 -10 19 -15 21 -27 11 -23 -19 -30 -1 -11 30 9 16 14 36 11 45 -3 9 -2
16 4 16 5 0 7 11 4 25 -4 25 4 31 23 17z m8715 -46 c0 -3 -4 -8 -10 -11 -5 -3
-10 -1 -10 4 0 6 5 11 10 11 6 0 10 -2 10 -4z m-7957 -66 c3 -11 2 -22 -3 -25
-4 -3 -10 6 -12 20 -6 30 7 34 15 5z m5616 -87 c2 -2 -3 -3 -11 -3 -9 0 -19 7
-22 16 -6 15 -4 15 11 3 10 -7 20 -15 22 -16z m491 -23 c0 -5 5 -9 11 -7 6 1
14 -4 16 -10 7 -20 -12 -15 -32 7 -10 11 -13 20 -7 20 7 0 12 -4 12 -10z
m2305 -10 c3 -5 1 -10 -4 -10 -6 0 -11 5 -11 10 0 6 2 10 4 10 3 0 8 -4 11
-10z m-9109 -67 c-3 -27 -6 -52 -7 -58 0 -5 2 -57 5 -115 l6 -105 -15 50 c-9
28 -13 65 -11 83 3 17 1 32 -5 32 -5 0 -6 21 -3 48 3 26 7 58 9 72 4 39 4 40
16 40 7 0 9 -16 5 -47z m683 15 c10 -30 9 -31 -4 -14 -8 11 -15 26 -15 33 0
22 8 14 19 -19z m8441 12 c0 -5 -2 -10 -4 -10 -3 0 -8 5 -11 10 -3 6 -1 10 4
10 6 0 11 -4 11 -10z m-3140 -21 c0 -6 -4 -7 -10 -4 -5 3 -10 11 -10 16 0 6 5
7 10 4 6 -3 10 -11 10 -16z m330 1 c0 -5 -7 -7 -15 -4 -8 4 -12 10 -9 15 6 11
24 2 24 -11z m2903 -5 c-7 -21 -12 -19 -10 4 0 11 5 18 9 15 4 -3 5 -11 1 -19z
m-7903 -34 c0 -32 -6 -24 -14 19 -4 25 -3 31 4 20 5 -8 10 -26 10 -39z m4615
-4 c-19 -10 -30 -2 -40 32 l-7 24 32 -23 c28 -20 30 -24 15 -33z m-4778 -19
c-2 -13 -4 -3 -4 22 0 25 2 35 4 23 2 -13 2 -33 0 -45z m8059 -1 c-3 -21 -22
-28 -20 -7 1 6 2 17 3 26 0 8 5 12 11 9 5 -3 8 -16 6 -28z m-3235 -18 c6 -12
23 -32 38 -45 l26 -24 -34 14 c-30 12 -60 46 -61 69 0 15 20 6 31 -14z m3214
-46 c-5 -22 -3 -25 14 -20 12 3 21 0 21 -6 0 -8 4 -7 12 1 13 13 39 16 36 5
-1 -5 4 -21 11 -38 7 -16 10 -40 8 -52 -2 -12 0 -20 4 -17 5 2 7 -12 5 -33 -6
-74 -5 -70 -17 -53 -8 11 -9 8 -5 -16 4 -27 -1 -38 -29 -67 -26 -26 -40 -34
-56 -30 -15 4 -20 2 -15 -5 3 -6 -2 -19 -13 -29 -10 -10 -22 -28 -25 -40 -5
-17 -15 -23 -35 -23 -29 0 -48 -24 -54 -67 -2 -12 -7 -26 -12 -30 -4 -5 -5 -2
-1 5 5 7 -1 15 -16 21 -32 12 -44 29 -52 73 -6 34 -5 37 23 43 16 3 36 14 45
24 17 18 24 70 13 88 -12 19 14 102 30 96 8 -3 13 3 13 16 0 12 6 21 15 21 8
0 15 5 15 10 0 6 16 10 35 10 28 0 35 4 35 19 0 13 -8 21 -22 23 -26 3 -38 38
-14 38 12 0 15 6 10 24 -7 28 2 49 18 40 5 -3 7 -18 3 -31z m-9108 -5 c-3 -8
-6 -5 -6 6 -1 11 2 17 5 13 3 -3 4 -12 1 -19z m-10 -85 c-3 -10 -5 -2 -5 17 0
19 2 27 5 18 2 -10 2 -26 0 -35z m6587 -2 c4 -5 0 -12 -6 -14 -7 -3 -4 -6 7
-6 13 -1 16 -4 9 -11 -14 -14 -36 -5 -52 20 -11 18 -10 20 12 20 14 0 27 -4
30 -9z m-6587 -58 c-3 -10 -5 -4 -5 12 0 17 2 24 5 18 2 -7 2 -21 0 -30z
m8337 -19 c19 -19 20 -26 4 -42 -17 -17 -58 -15 -65 3 -5 15 22 55 38 55 4 0
15 -7 23 -16z m-2524 -24 c0 -5 -4 -12 -10 -15 -5 -3 -10 -4 -10 -1 0 2 -3 12
-6 20 -5 12 -2 15 10 10 9 -3 16 -10 16 -14z m2756 -5 c4 -8 15 -15 25 -15 10
0 19 -5 19 -12 0 -6 10 -22 22 -35 43 -46 -17 -17 -74 35 -16 14 -28 29 -28
34 0 14 30 9 36 -7z m-2658 -29 c42 -14 44 -38 2 -29 -19 3 -30 1 -30 -6 0 -6
-4 -11 -10 -11 -5 0 -10 7 -10 16 0 10 -5 14 -15 10 -20 -7 -32 23 -14 35 8 5
21 6 29 2 8 -3 30 -11 48 -17z m-902 -23 c-7 -7 -26 7 -26 19 0 6 6 6 15 -2 9
-7 13 -15 11 -17z m3509 16 c4 -6 25 -24 48 -40 38 -28 57 -59 36 -59 -5 0 -9
-5 -9 -11 0 -6 -16 -30 -35 -53 -19 -24 -35 -47 -35 -53 0 -5 -13 -27 -29 -49
-15 -21 -31 -52 -35 -69 -4 -16 -11 -47 -15 -67 -5 -20 -17 -50 -27 -65 -25
-37 -64 -131 -64 -155 0 -10 -4 -18 -10 -18 -5 0 -10 -7 -10 -15 0 -8 -5 -15
-11 -15 -6 0 -8 -7 -5 -16 4 -9 -3 -32 -14 -51 -11 -19 -20 -43 -20 -54 0 -11
-10 -24 -22 -29 -21 -8 -21 -9 -3 -10 19 -1 19 -1 2 -11 -11 -7 -16 -17 -12
-29 3 -11 0 -20 -10 -24 -9 -3 -14 -10 -10 -15 3 -6 -4 -15 -15 -21 -11 -6
-20 -17 -20 -25 0 -8 -4 -15 -10 -15 -5 0 -10 -6 -10 -14 0 -8 -22 -52 -50
-99 -27 -47 -50 -93 -50 -102 0 -10 -16 -39 -36 -66 -20 -27 -32 -49 -27 -49
4 0 3 -4 -3 -8 -5 -4 -25 -30 -44 -59 -23 -37 -43 -56 -66 -63 -35 -12 -42
-25 -42 -75 -1 -37 -18 -85 -32 -85 -5 0 -10 -11 -10 -23 0 -13 -9 -34 -20
-47 -11 -12 -17 -27 -14 -31 6 -11 -14 -32 -40 -42 -10 -4 -16 -13 -13 -21 3
-8 1 -17 -6 -20 -9 -3 -9 -7 1 -14 19 -13 -11 -35 -38 -27 -18 6 -20 2 -20
-40 0 -45 -1 -47 -24 -41 -28 7 -37 -8 -25 -42 7 -19 5 -24 -17 -32 -14 -6
-34 -10 -45 -10 -10 0 -19 -4 -19 -8 0 -9 -25 -36 -61 -67 -13 -12 -35 -35
-49 -53 -29 -37 -40 -40 -40 -13 0 11 -9 26 -21 34 l-20 15 24 18 c13 11 22
24 20 31 -2 6 5 17 15 25 11 7 22 22 24 33 2 11 10 19 16 17 7 -1 12 6 12 15
0 14 2 15 9 5 6 -10 22 6 56 58 48 70 97 111 110 90 4 -6 11 -8 16 -5 19 12
49 95 47 133 -1 28 6 50 23 73 32 44 37 54 82 140 21 41 43 78 48 84 5 5 9 15
9 23 0 15 95 216 115 242 6 8 17 33 24 55 8 22 28 63 45 90 45 72 176 343 176
364 0 5 3 11 8 13 4 2 18 26 31 53 14 28 35 64 48 81 13 17 23 35 23 40 0 16
75 164 83 164 5 0 5 -6 1 -12 -5 -9 -4 -10 3 -3 6 6 16 33 23 60 8 28 19 55
25 62 7 6 17 39 24 72 12 59 22 73 36 50z m292 -61 c-33 -44 -47 -36 -27 17 5
14 14 23 20 20 5 -3 10 0 10 7 0 10 2 10 9 -1 6 -10 2 -24 -12 -43z m-3342 22
c-2 -29 -21 -46 -28 -26 -4 9 -2 16 3 16 6 0 10 7 10 15 0 8 4 15 8 15 5 0 8
-9 7 -20z m308 -23 c-20 -12 -26 -3 -18 23 6 20 7 21 20 3 11 -15 11 -19 -2
-26z m-908 -57 c3 -5 16 -10 28 -10 14 0 36 -18 62 -50 31 -39 45 -49 62 -45
14 3 25 -1 32 -12 8 -14 13 -15 35 -5 22 10 26 9 26 -3 0 -8 4 -15 10 -15 5 0
12 -11 16 -24 3 -14 14 -32 25 -42 10 -9 19 -27 19 -38 0 -19 -2 -18 -25 8
-14 16 -25 25 -25 20 0 -6 4 -14 9 -19 4 -6 11 -25 14 -42 7 -35 2 -38 -55
-34 -29 2 -38 -7 -54 -59 -6 -19 -16 -34 -22 -32 -7 1 -12 -4 -12 -12 0 -19
-50 -28 -57 -10 -3 8 -17 14 -32 14 -26 0 -71 38 -71 59 0 5 -5 11 -12 13 -6
2 -13 23 -15 46 -4 37 -2 42 16 42 12 0 21 5 21 11 0 5 5 7 10 4 6 -3 10 -1
10 5 0 6 4 9 9 6 5 -3 11 0 14 7 6 17 -42 95 -63 102 -8 3 -33 21 -54 40 -33
29 -36 35 -19 35 11 0 31 11 44 24 26 26 44 32 54 16z m3821 -35 c-3 -9 0 -15
8 -15 16 0 20 -81 4 -91 -6 -4 -2 -14 10 -25 31 -29 43 -68 31 -102 -5 -16 -9
-33 -8 -38 5 -21 -22 -66 -36 -61 -9 4 -15 -2 -17 -15 -2 -12 -9 -24 -17 -26
-10 -3 -12 0 -8 12 4 10 3 15 -4 11 -6 -4 -8 2 -4 18 4 14 2 28 -4 31 -14 9
-14 133 -1 141 6 4 8 15 5 26 -4 11 -2 19 5 19 6 0 9 4 5 9 -3 5 0 13 6 16 5
4 9 24 8 44 -3 34 5 61 18 61 3 0 3 -7 -1 -15z m-8545 -125 c17 -80 50 -171
65 -177 8 -3 21 -19 29 -36 9 -19 11 -27 3 -19 -6 6 -16 12 -20 12 -12 0 70
-152 90 -167 8 -7 12 -16 9 -20 -16 -15 -73 58 -119 153 -54 114 -79 217 -76
322 1 40 3 50 5 27 1 -22 8 -65 14 -95z m8786 -20 c28 -34 10 -29 -37 10 -27
23 -50 46 -50 51 0 11 67 -37 87 -61z m-4397 40 c0 -5 -4 -10 -10 -10 -5 0
-10 5 -10 10 0 6 5 10 10 10 6 0 10 -4 10 -10z m-249 -47 c1 -21 1 -51 1 -68
-1 -68 18 -148 39 -168 l21 -20 -7 23 c-4 14 -3 20 3 16 5 -3 30 14 55 39 42
40 47 50 53 106 5 42 13 68 27 82 19 19 20 19 34 2 13 -18 13 -18 28 1 14 19
14 19 15 0 0 -32 48 -86 76 -86 21 0 24 -5 24 -35 0 -22 8 -43 20 -55 23 -23
26 -46 8 -53 -8 -4 -7 -6 3 -6 20 -1 30 -23 20 -40 -4 -6 -2 -50 4 -96 6 -47
7 -86 2 -88 -4 -1 1 -13 13 -27 14 -17 19 -32 15 -48 -5 -21 -4 -23 8 -10 8 8
18 29 22 46 5 25 3 32 -9 32 -9 0 -16 4 -16 9 0 5 9 7 20 4 15 -4 19 -1 15 9
-17 44 73 37 93 -7 6 -14 17 -25 23 -25 13 0 56 -32 55 -41 -1 -4 6 -15 16
-25 9 -11 22 -39 28 -64 7 -25 25 -73 41 -107 24 -52 33 -89 38 -155 2 -15 21
-8 21 8 0 8 4 13 9 10 14 -9 19 27 15 124 -3 66 -1 89 7 85 8 -6 8 -2 0 14 -6
11 -12 38 -14 59 -1 27 -6 38 -14 35 -13 -5 -18 9 -7 20 10 9 46 -12 39 -24
-4 -5 -1 -9 6 -9 6 0 9 -8 6 -20 -3 -12 0 -20 8 -20 19 0 38 27 32 45 -4 8 -1
17 5 21 7 5 8 2 3 -6 -6 -10 -4 -12 8 -7 9 3 19 2 22 -3 4 -6 15 -10 26 -10
11 0 20 -7 20 -17 3 -33 6 -59 12 -94 4 -19 9 -56 12 -84 3 -27 8 -61 11 -75
3 -14 7 -32 9 -40 15 -65 68 -237 76 -244 5 -6 9 -20 9 -32 0 -12 6 -27 14
-33 8 -7 17 -25 21 -40 3 -14 25 -66 50 -114 38 -76 72 -152 146 -327 20 -49
31 -99 32 -142 0 -16 4 -28 8 -28 5 0 9 -7 9 -15 0 -8 -4 -15 -10 -15 -14 0
-12 -33 3 -49 10 -11 10 -14 0 -18 -7 -3 -13 -13 -13 -23 0 -18 31 -33 63 -30
21 2 22 -10 2 -36 -14 -19 -14 -19 -15 1 0 17 -2 17 -10 5 -8 -13 -10 -12 -10
3 0 11 -8 17 -24 17 -13 0 -31 10 -40 23 -14 19 -15 20 -9 2 6 -19 6 -19 -18
1 -13 12 -33 24 -44 27 -11 3 -57 19 -102 35 -82 30 -106 30 -59 -1 13 -9 48
-25 78 -35 29 -10 67 -31 82 -45 16 -15 33 -27 38 -27 5 0 21 -9 36 -20 15
-11 38 -21 52 -22 19 -2 26 -10 30 -32 7 -41 33 -55 59 -32 11 10 27 16 36 12
13 -5 13 -9 3 -26 -7 -11 -18 -20 -25 -20 -7 0 -13 -11 -13 -25 0 -14 5 -25
10 -25 6 0 10 -8 10 -17 0 -13 3 -14 12 -5 20 20 24 14 22 -30 -1 -24 -3 -43
-4 -43 -2 0 -3 -19 -4 -42 -2 -33 -8 -47 -29 -63 -22 -18 -27 -30 -27 -65 0
-34 -5 -47 -20 -55 -36 -19 -23 -33 25 -28 25 3 45 2 45 -3 0 -5 -7 -9 -15 -9
-8 0 -15 -5 -15 -11 0 -6 -7 -8 -15 -5 -19 7 -55 -14 -55 -31 0 -7 8 -13 18
-14 17 0 10 -4 -53 -29 -11 -5 -48 -11 -82 -14 -48 -4 -71 -2 -98 12 -45 22
-44 32 1 25 52 -8 41 19 -12 30 -21 4 -43 12 -48 17 -12 12 -53 13 -59 3 -2
-5 -2 -2 -1 5 3 12 -13 16 -48 13 -12 -2 -16 3 -12 13 3 8 -3 19 -15 25 -27
15 -54 14 -45 -1 4 -7 -2 -5 -13 5 -11 9 -23 14 -26 10 -4 -3 -7 -1 -7 5 0 27
-17 9 -18 -18 0 -17 -5 -45 -11 -63 -5 -18 -13 -52 -16 -77 -9 -57 -15 -68
-63 -116 -34 -33 -41 -37 -50 -24 -7 11 -13 12 -21 4 -16 -15 26 -87 45 -80
17 7 64 -13 82 -34 23 -27 4 -183 -57 -485 -12 -55 -21 -103 -21 -107 0 -5 -7
-8 -15 -8 -8 0 -17 -14 -21 -35 -5 -29 -9 -33 -21 -24 -10 9 -17 9 -25 1 -17
-17 -46 3 -43 30 1 13 0 15 -2 5 -6 -24 -45 -16 -140 29 -55 27 -74 41 -79 60
-8 31 -39 64 -78 84 -15 8 -44 37 -62 65 -19 27 -54 75 -79 105 -24 30 -51 69
-60 85 -9 17 -27 45 -41 64 -13 19 -24 47 -24 62 0 16 -5 29 -11 29 -6 0 -9 7
-5 15 6 18 -2 45 -15 45 -5 0 -9 -7 -9 -16 0 -14 -3 -14 -15 -4 -8 7 -15 19
-15 27 0 8 -4 11 -10 8 -5 -3 -10 0 -10 7 0 7 -10 24 -23 38 -34 38 -57 77
-57 99 0 10 -13 46 -30 79 -16 34 -30 65 -30 70 0 5 -7 15 -15 22 -8 7 -15 23
-15 36 0 24 -38 135 -49 144 -8 6 -40 55 -60 90 -21 38 -111 262 -111 277 0 7
-28 27 -62 44 -111 56 -208 169 -208 242 0 15 5 27 10 27 6 0 10 5 10 10 0 6
-7 10 -15 10 -29 0 -10 173 54 497 5 24 4 40 0 37 -10 -6 -12 50 -11 231 1
151 1 155 12 130 6 -17 6 145 -1 670 -1 85 1 105 11 105 6 0 10 -8 10 -18 0
-10 5 -23 12 -30 9 -9 9 -12 -1 -12 -10 0 -11 -3 -3 -13 6 -7 11 -38 10 -68
-1 -29 3 -63 9 -74 17 -31 27 -128 25 -253 -1 -82 2 -111 10 -106 8 5 9 1 4
-11 -22 -58 -32 -167 -23 -251 2 -25 0 -31 -13 -27 -13 4 -13 4 0 -6 31 -22
42 -13 39 32 l-4 42 37 -1 c21 0 36 1 34 4 -5 4 4 17 37 53 22 25 22 27 -8 21
-16 -3 -25 0 -25 8 0 9 11 11 36 7 25 -4 34 -2 31 6 -2 7 -16 12 -32 12 -24 0
-28 4 -30 33 -1 17 2 32 7 32 6 0 6 6 -1 14 -13 16 -1 28 32 33 14 2 17 -5 17
-36 0 -25 7 -44 19 -55 18 -17 19 -16 18 15 -1 19 3 33 11 35 7 1 8 0 3 -2
-11 -6 -2 -44 10 -44 5 0 10 8 10 18 10 161 13 177 26 177 6 0 15 4 20 9 4 5
3 6 -4 2 -7 -4 -17 2 -22 13 -13 24 -14 61 -2 61 5 0 4 11 -2 25 -12 24 -27
34 -27 17 0 -18 -42 -54 -52 -44 -10 10 -13 206 -4 257 14 78 19 95 27 95 5 0
9 -4 9 -10 0 -5 18 -10 40 -10 38 0 40 -2 40 -30 0 -19 5 -30 14 -30 17 0 37
-106 38 -197 1 -54 3 -63 19 -63 12 0 21 10 25 28 3 15 10 41 14 57 5 17 12
49 15 72 4 24 11 45 16 49 5 3 7 9 4 14 -8 12 17 100 28 100 6 0 7 -24 4 -55
-4 -42 -2 -55 8 -55 7 0 15 16 18 38 10 68 30 142 38 142 5 0 9 -17 10 -37z
m-61 -13 c0 -5 -7 -10 -16 -10 -8 0 -12 5 -9 10 3 6 10 10 16 10 5 0 9 -4 9
-10z m377 -22 c-3 -8 -6 -5 -6 6 -1 11 2 17 5 13 3 -3 4 -12 1 -19z m49 2 c0
-12 -4 -16 -9 -11 -5 5 -6 14 -3 20 10 15 12 14 12 -9z m4262 -24 c5 -23 -25
-20 -38 3 -5 11 -10 25 -10 32 0 17 44 -14 48 -35z m-5398 3 c0 -6 9 -23 20
-39 11 -15 17 -30 13 -34 -3 -3 -1 -6 5 -6 7 0 12 -5 12 -10 0 -22 -42 12 -56
45 -17 40 -18 55 -4 55 6 0 10 -5 10 -11z m5376 -49 c8 0 14 -4 14 -10 0 -5
-8 -10 -17 -10 -15 0 -16 -2 -3 -10 12 -8 12 -10 -3 -16 -9 -3 -17 -12 -17
-20 0 -8 -5 -14 -11 -14 -5 0 -8 -4 -5 -9 4 -5 -3 -7 -14 -4 -15 4 -20 0 -20
-13 0 -16 2 -17 10 -4 5 8 10 11 10 5 0 -5 -9 -21 -20 -35 -11 -14 -20 -33
-20 -43 0 -10 -7 -20 -15 -23 -8 -4 -15 -14 -15 -23 0 -9 -7 -25 -15 -35 -8
-11 -15 -32 -15 -48 0 -16 -5 -28 -13 -28 -7 0 -19 -16 -27 -35 -8 -19 -18
-35 -22 -35 -5 0 -6 -4 -3 -10 3 -5 1 -10 -4 -10 -6 0 -11 -7 -11 -15 0 -8 -4
-15 -10 -15 -5 0 -10 -5 -10 -11 0 -6 -42 -74 -94 -152 -51 -78 -109 -173
-129 -212 -19 -38 -56 -92 -81 -120 -30 -33 -48 -63 -52 -87 -4 -21 -14 -47
-24 -58 -10 -11 -23 -41 -29 -65 -6 -25 -20 -54 -31 -65 -11 -11 -14 -20 -8
-22 6 -2 -5 -27 -26 -56 -20 -29 -36 -58 -35 -65 3 -19 -13 -77 -21 -77 -5 0
-16 -28 -35 -90 -4 -13 -19 -49 -36 -88 -11 -23 -21 -50 -23 -60 -1 -9 -13
-39 -25 -67 -12 -27 -43 -111 -67 -185 -39 -119 -64 -174 -64 -144 0 13 26
124 48 209 10 39 21 94 25 123 5 44 4 52 -11 53 -15 1 -15 2 1 6 14 4 15 8 7
18 -6 8 -12 35 -13 62 -2 56 -7 61 -47 55 -20 -3 -30 -10 -30 -22 0 -9 -11
-29 -25 -44 -14 -15 -25 -32 -25 -37 0 -6 -4 -7 -10 -4 -5 3 -10 -3 -10 -14 0
-12 5 -21 10 -21 18 0 11 -29 -10 -40 -11 -6 -20 -18 -21 -28 0 -9 -3 -12 -5
-5 -10 24 -73 -23 -74 -54 0 -7 -9 -18 -20 -25 -11 -7 -20 -18 -20 -24 0 -7
-11 -15 -25 -18 -15 -4 -25 -14 -25 -24 0 -9 -11 -25 -24 -35 -13 -10 -27 -30
-30 -43 -4 -14 -10 -22 -15 -19 -5 2 -12 -5 -15 -18 -7 -23 -25 -47 -69 -86
-28 -25 -39 -14 -12 13 8 8 15 21 15 28 0 7 15 36 33 64 19 28 44 71 56 97 13
26 26 47 31 47 4 0 22 28 38 63 17 34 45 77 61 95 17 18 31 40 31 48 0 8 7 17
15 20 8 4 15 11 15 17 0 5 11 25 25 43 14 18 25 36 25 41 0 4 10 20 23 35 12
15 40 57 62 93 22 36 44 65 50 65 6 0 16 14 23 30 8 17 18 27 24 24 7 -4 8 -2
4 4 -4 7 2 22 13 34 12 12 21 28 21 36 0 9 7 11 20 7 11 -3 20 -2 20 4 0 5 8
12 18 15 10 3 29 31 42 62 14 31 33 60 42 65 9 5 26 28 37 52 11 23 25 49 30
57 4 8 19 35 32 60 12 25 31 51 41 58 10 7 18 17 18 22 0 5 13 24 30 42 51 56
90 105 90 112 0 6 46 72 60 86 10 10 31 45 36 63 4 9 10 17 15 17 5 0 14 10
19 23 6 12 14 29 19 37 4 8 19 38 32 65 14 28 35 54 47 60 12 5 22 13 22 18 0
4 9 18 21 30 11 12 27 36 35 52 7 17 34 52 59 79 26 27 49 62 52 77 3 16 12
29 20 29 8 0 12 4 9 8 -3 5 2 20 12 33 14 21 17 22 20 7 2 -10 10 -18 18 -18z
m-786 -79 c0 -20 -32 -34 -56 -24 -20 8 -17 18 9 31 33 16 47 14 47 -7z m-90
-1 c0 -5 -4 -10 -10 -10 -5 0 -10 5 -10 10 0 6 5 10 10 10 6 0 10 -4 10 -10z
m498 -1 c-2 -6 -8 -10 -13 -10 -5 0 -11 4 -13 10 -2 6 4 11 13 11 9 0 15 -5
13 -11z m-7658 -55 c0 -8 4 -14 8 -14 4 0 14 -16 21 -36 16 -43 131 -180 185
-219 22 -16 34 -31 27 -33 -6 -2 -17 0 -24 6 -7 5 -19 8 -29 7 -9 -2 -18 5
-21 17 -3 11 -10 17 -16 13 -6 -3 -15 4 -20 17 -6 13 -21 34 -35 46 -23 22
-27 22 -32 7 -6 -14 -10 -11 -20 15 -8 18 -14 37 -13 44 0 6 4 2 8 -8 5 -13
10 -16 15 -8 4 7 -7 20 -28 34 -20 13 -36 27 -36 31 0 5 -7 15 -15 23 -17 17
-21 79 -5 69 6 -3 10 -1 10 5 0 6 5 8 10 5 6 -3 10 -13 10 -21z m-579 -1 c13
-16 12 -17 -3 -4 -10 7 -18 15 -18 17 0 8 8 3 21 -13z m3349 -13 c0 -5 -4 -10
-10 -10 -5 0 -10 5 -10 10 0 6 5 10 10 10 6 0 10 -4 10 -10z m5050 -36 c-8 -3
-26 -32 -40 -65 -14 -34 -33 -66 -42 -73 -10 -6 -18 -16 -18 -23 0 -7 -6 -10
-13 -7 -8 3 -12 25 -12 69 1 55 4 68 22 80 12 8 28 12 37 9 8 -3 23 -1 33 5
10 6 25 10 33 10 13 -1 13 -2 0 -5z m405 -21 c35 -40 31 -50 -5 -15 -16 17
-30 33 -30 36 0 12 12 5 35 -21z m-4258 -54 c2 -12 -1 -18 -7 -14 -5 3 -10 16
-10 27 0 26 13 16 17 -13z m2873 -60 c0 -11 -4 -17 -10 -14 -5 3 -10 13 -10
21 0 8 5 14 10 14 6 0 10 -9 10 -21z m-2772 -19 c18 -16 27 -30 20 -30 -14 0
-58 40 -58 52 0 13 5 10 38 -22z m1083 -10 c10 -6 19 -15 19 -21 0 -6 -4 -8
-9 -4 -5 3 -12 1 -16 -5 -6 -10 7 -14 33 -11 6 1 12 -5 12 -14 0 -8 4 -15 8
-15 13 0 10 -33 -3 -46 -6 -6 -21 -15 -34 -19 -19 -6 -21 -9 -10 -16 9 -6 4
-7 -15 -3 -16 4 -27 3 -23 -2 3 -5 -5 -9 -18 -9 -32 0 -23 9 25 25 45 15 73
39 43 36 -10 0 -17 5 -15 12 1 6 -7 12 -18 12 -22 0 -27 -16 -7 -23 7 -3 5 -8
-8 -12 -11 -5 -32 -16 -46 -26 -14 -10 -29 -16 -31 -13 -3 3 -8 -2 -11 -9 -4
-11 1 -14 16 -11 22 4 22 4 0 -7 -13 -7 -23 -15 -23 -19 0 -5 -11 -11 -25 -14
-14 -4 -23 -11 -20 -16 4 -6 -4 -9 -17 -7 -13 1 -22 -2 -21 -8 1 -5 -10 -11
-23 -11 -28 -2 -29 0 -8 20 8 9 11 16 5 16 -6 0 -20 -9 -30 -19 -17 -17 -21
-18 -32 -5 -9 11 -8 14 5 14 17 0 23 35 7 44 -12 8 -41 -4 -41 -16 0 -6 7 -8
15 -4 17 6 21 -9 5 -19 -8 -5 -7 -11 0 -20 9 -11 6 -20 -13 -39 -22 -22 -27
-23 -38 -10 -9 11 -9 20 0 40 10 22 9 26 -3 21 -10 -4 -13 -1 -9 9 3 7 13 14
22 15 10 0 11 2 4 6 -45 17 27 143 81 143 8 0 18 9 21 20 4 11 15 20 26 20 11
0 29 5 40 10 10 6 19 7 19 2 0 -5 -11 -14 -25 -20 -17 -8 -25 -20 -25 -37 0
-23 3 -25 28 -19 15 4 38 13 51 21 20 13 25 13 32 2 8 -12 10 -12 18 0 5 8 17
11 29 7 23 -8 34 11 25 43 -6 24 0 26 28 11z m-2164 -22 c-3 -8 -6 -5 -6 6 -1
11 2 17 5 13 3 -3 4 -12 1 -19z m-2967 -9 c0 -6 -4 -7 -10 -4 -5 3 -10 11 -10
16 0 6 5 7 10 4 6 -3 10 -11 10 -16z m6996 4 c7 -10 14 -23 14 -29 0 -17 -73
-50 -78 -35 -2 6 -10 11 -18 11 -22 0 0 36 34 54 34 19 32 19 48 -1z m533 -44
c-19 -12 -24 -2 -8 17 9 11 14 13 17 4 3 -7 -2 -16 -9 -21z m-593 -83 c18 -5
24 -12 20 -22 -3 -9 -6 -19 -6 -24 0 -5 -9 -12 -20 -15 -31 -10 -24 -28 10
-23 17 3 30 1 30 -4 0 -8 -8 -10 -53 -10 -21 -1 -31 -7 -38 -24 -5 -14 -17
-24 -29 -24 -13 0 -20 -7 -20 -20 0 -14 5 -18 18 -14 15 5 15 4 1 -8 -9 -7
-14 -18 -12 -24 5 -15 -44 -6 -73 13 -12 7 -49 14 -83 14 l-61 1 6 57 c7 63
26 91 54 84 11 -3 40 7 66 21 26 14 53 26 60 26 8 0 14 5 14 11 0 7 11 9 30 6
17 -4 32 -2 36 5 5 7 10 6 15 -5 5 -8 20 -18 35 -21z m111 28 c-3 -3 -12 -4
-19 -1 -8 3 -5 6 6 6 11 1 17 -2 13 -5z m-37 -50 c0 -8 -4 -12 -10 -9 -5 3
-10 10 -10 16 0 5 5 9 10 9 6 0 10 -7 10 -16z m-2340 -40 c0 -8 -5 -12 -10 -9
-6 4 -8 11 -5 16 9 14 15 11 15 -7z m-45 -70 c23 -81 12 -91 -13 -12 -25 76
-26 81 -13 73 5 -3 17 -30 26 -61z m3375 46 c0 -5 -4 -10 -9 -10 -6 0 -13 5
-16 10 -3 6 1 10 9 10 9 0 16 -4 16 -10z m-3130 -40 c12 -7 10 -9 -8 -7 -12 0
-22 5 -22 9 0 11 12 10 30 -2z m3116 -1 c3 -6 2 -15 -4 -21 -12 -12 -55 8 -47
23 8 12 42 12 51 -2z m-3272 -88 c9 -29 16 -60 16 -67 0 -8 6 -14 13 -15 9 0
9 -2 -1 -6 -9 -3 -7 -12 7 -32 11 -15 22 -43 26 -64 4 -20 11 -40 16 -43 5 -3
9 -15 10 -27 0 -12 3 -16 6 -9 2 6 9 10 14 6 5 -3 9 2 9 10 0 8 5 27 10 42 10
25 12 26 29 10 9 -9 23 -16 29 -16 7 0 13 -8 14 -17 0 -10 2 -22 3 -28 0 -5 4
-31 9 -56 5 -38 3 -53 -14 -82 -12 -19 -17 -38 -12 -41 5 -3 10 -28 11 -57 1
-28 4 -56 7 -60 3 -5 0 -9 -5 -9 -6 0 -11 4 -11 8 0 4 -22 49 -49 99 -62 117
-94 205 -137 371 -32 127 -45 206 -24 157 4 -11 15 -44 24 -74z m-5199 69 c3
-5 1 -10 -4 -10 -6 0 -11 5 -11 10 0 6 2 10 4 10 3 0 8 -4 11 -10z m7425 6 c0
-2 -7 -7 -16 -10 -8 -3 -12 -2 -9 4 6 10 25 14 25 6z m-2112 -26 c-7 -10 -14
-18 -15 -16 -6 6 9 36 18 36 5 0 4 -9 -3 -20z m2073 -23 c-10 -9 -11 -8 -5 6
3 10 9 15 12 12 3 -3 0 -11 -7 -18z m1039 3 c0 -5 -5 -10 -11 -10 -5 0 -7 5
-4 10 3 6 8 10 11 10 2 0 4 -4 4 -10z m-2370 -4 c0 -2 -7 -7 -16 -10 -8 -3
-12 -2 -9 4 6 10 25 14 25 6z m2400 -10 c0 -14 -48 -51 -57 -43 -4 4 47 57 54
57 2 0 3 -6 3 -14z m-1085 -25 c-3 -6 -11 -8 -17 -5 -6 4 -5 9 3 15 16 10 23
4 14 -10z m-2225 -27 c0 -8 -4 -12 -10 -9 -5 3 -10 10 -10 16 0 5 5 9 10 9 6
0 10 -7 10 -16z m-5220 -14 c0 -5 -4 -10 -10 -10 -5 0 -10 5 -10 10 0 6 5 10
10 10 6 0 10 -4 10 -10z m7410 -6 c0 -8 -4 -12 -10 -9 -5 3 -10 10 -10 16 0 5
5 9 10 9 6 0 10 -7 10 -16z m1072 5 c3 -9 10 -9 26 0 20 11 22 10 22 -19 0
-20 -5 -30 -15 -30 -8 0 -15 -7 -15 -15 0 -9 -12 -34 -27 -58 -15 -23 -43 -71
-61 -107 -19 -36 -40 -72 -47 -80 -7 -8 -34 -55 -60 -105 -26 -49 -57 -103
-69 -120 -12 -16 -60 -100 -106 -185 -46 -85 -96 -178 -112 -207 -15 -28 -28
-58 -28 -67 0 -9 -5 -16 -10 -16 -6 0 -3 16 6 38 34 76 47 118 54 167 16 109
64 243 117 327 12 21 23 46 23 56 0 10 5 23 10 28 6 6 12 21 15 33 2 13 11 28
18 35 8 6 19 20 25 31 6 11 12 15 12 8 0 -7 7 -10 15 -7 10 4 15 20 15 46 0
21 4 37 8 34 5 -3 15 5 22 19 7 13 18 21 26 18 8 -3 18 6 25 21 7 14 17 26 23
26 6 0 5 5 -2 12 -18 18 -15 28 8 28 11 0 20 5 20 10 0 6 -4 10 -9 10 -5 0 -8
11 -8 25 0 21 3 24 24 19 19 -5 25 -2 30 15 6 23 19 28 25 10z m-8295 -24
c-10 -7 -17 -17 -17 -23 0 -5 -7 -12 -15 -16 -20 -7 -19 0 7 34 11 16 26 26
31 23 6 -4 3 -11 -6 -18z m5199 -8 c13 17 14 17 8 0 -7 -19 14 -21 29 -2 5 6
7 4 4 -5 -2 -8 -12 -15 -23 -15 -10 -1 -25 -4 -32 -8 -9 -6 -12 2 -11 30 2 32
3 33 6 10 4 -27 5 -28 19 -10z m1964 14 c0 -8 7 -11 20 -8 27 7 25 -11 -5 -48
-17 -20 -28 -26 -33 -19 -8 14 -72 33 -89 27 -7 -3 -13 0 -13 6 0 6 -4 11 -10
11 -5 0 -10 -7 -10 -15 0 -8 -4 -15 -10 -15 -20 0 -10 35 17 57 21 19 36 23
80 21 37 -2 53 -7 53 -17z m167 -11 c-3 -11 -1 -20 4 -20 5 0 9 7 9 15 0 13 2
14 14 3 10 -9 11 -17 4 -25 -14 -17 -38 -16 -62 2 -20 15 -20 15 0 30 27 20
37 19 31 -5z m-2263 -56 c9 -20 14 -39 11 -42 -3 -3 -5 0 -5 7 0 7 -4 9 -10 6
-6 -3 -10 4 -10 17 0 13 -5 29 -12 36 -7 7 -8 12 -2 12 6 0 18 -16 28 -36z
m2212 0 c-10 -7 -14 -18 -9 -29 5 -14 3 -16 -8 -11 -8 4 -3 -2 10 -14 23 -20
24 -23 9 -48 -8 -15 -13 -33 -11 -40 3 -7 -2 -21 -10 -30 -8 -9 -20 -34 -27
-54 -11 -37 -30 -52 -30 -24 0 18 -27 40 -34 28 -3 -5 1 -18 9 -28 18 -24 19
-34 1 -34 -7 0 -16 -13 -19 -29 -5 -24 -10 -28 -27 -24 -12 3 -20 0 -20 -8 0
-7 -3 -9 -7 -6 -3 4 -11 3 -17 -2 -6 -4 -22 -11 -36 -14 -24 -6 -24 -5 5 19
19 15 26 27 19 32 -14 9 -27 45 -14 37 6 -3 11 0 12 7 0 7 2 18 2 23 3 16 22
47 29 46 23 -3 29 1 24 18 -4 18 33 89 78 146 8 10 15 23 15 27 0 4 5 8 12 8
9 0 9 -3 0 -12 -18 -18 -15 -33 3 -18 9 7 15 20 13 29 -1 9 1 22 6 29 6 10 11
10 23 1 13 -12 13 -14 -1 -25z m-7336 6 c0 -6 -15 -25 -33 -43 -18 -17 -36
-40 -40 -50 -4 -10 -11 -15 -17 -12 -14 9 5 43 47 83 37 34 43 38 43 22z
m5770 6 c0 -3 -4 -8 -10 -11 -5 -3 -10 -1 -10 4 0 6 5 11 10 11 6 0 10 -2 10
-4z m1286 -16 c24 0 44 -4 44 -9 0 -5 9 -11 20 -14 51 -13 -9 -104 -65 -98
-16 2 -33 7 -36 13 -3 5 -10 10 -15 10 -18 2 -64 42 -64 56 0 8 9 16 20 19 11
3 20 11 20 18 0 15 23 26 28 14 2 -5 24 -9 48 -9z m-1766 1 c0 -5 -11 -11 -25
-13 -28 -6 -35 8 -7 15 28 8 32 7 32 -2z m1903 -42 c-6 -6 -17 -8 -24 -3 -9 5
-8 9 7 14 23 9 31 3 17 -11z m-263 1 c0 -5 -5 -10 -11 -10 -5 0 -7 5 -4 10 3
6 8 10 11 10 2 0 4 -4 4 -10z m-1511 -21 c7 -12 14 -36 16 -53 4 -37 48 -215
75 -307 11 -36 20 -74 20 -84 0 -18 1 -18 16 -3 14 14 32 70 72 223 9 33 20
62 24 64 5 2 13 14 18 27 5 13 16 24 25 24 20 0 19 -10 -2 -25 -15 -11 -15
-14 -1 -28 14 -15 16 -13 22 14 3 18 14 33 28 39 13 5 17 9 11 9 -7 1 -13 6
-13 13 0 6 8 4 20 -7 10 -9 18 -22 17 -27 -1 -6 10 -12 25 -15 30 -4 68 -35
86 -70 8 -14 25 -24 52 -28 22 -4 40 -10 40 -14 0 -4 18 -27 40 -52 22 -24 40
-50 40 -57 0 -7 4 -11 9 -7 6 3 14 -3 20 -12 8 -14 13 -15 19 -5 6 9 14 1 28
-25 21 -39 54 -57 54 -29 0 17 15 22 24 8 5 -9 -55 -292 -78 -362 -8 -25 -18
-69 -22 -99 -5 -39 -9 -49 -16 -38 -7 13 -5 92 2 92 1 0 3 16 5 35 4 33 4 34
-10 16 -8 -11 -15 -30 -15 -42 0 -12 -3 -36 -6 -54 -6 -29 -9 -31 -37 -26 -16
3 -35 2 -42 -4 -12 -10 -67 3 -92 22 -7 6 -13 4 -16 -4 -3 -8 -9 -2 -17 14
-11 22 -11 30 0 43 7 8 10 18 6 22 -3 3 -69 7 -147 8 -109 1 -143 5 -150 16
-15 24 -10 51 11 56 19 5 19 6 -5 25 -14 11 -25 28 -25 39 0 10 -5 19 -10 19
-6 0 -10 -8 -8 -17 2 -12 -2 -17 -12 -15 -12 3 -13 1 -2 -9 15 -16 16 -65 1
-75 -8 -5 -7 -10 4 -16 9 -5 14 -15 11 -23 -4 -8 -1 -15 4 -15 7 0 10 -50 8
-145 -1 -80 1 -145 6 -145 4 0 8 44 8 99 0 54 3 118 6 143 7 48 6 48 84 32
l25 -6 -25 -13 c-22 -12 -23 -14 -8 -20 14 -5 15 -11 8 -25 -14 -26 -12 -82 3
-100 20 -26 103 -90 116 -90 9 0 9 -5 1 -21 -16 -29 -2 -38 18 -13 11 14 27
21 45 20 18 -1 36 7 53 25 27 28 31 47 20 96 -4 19 -3 34 3 38 6 3 11 0 11 -7
0 -9 3 -9 10 2 6 9 10 10 10 3 0 -6 8 -12 18 -12 34 0 77 -14 89 -28 9 -12 14
-11 28 9 17 23 17 23 11 -17 l-7 -40 25 28 c14 15 29 27 34 27 5 0 28 21 51
46 23 26 68 65 99 88 31 24 63 50 71 59 12 15 11 17 -8 17 -11 0 -20 -5 -18
-11 1 -6 -6 -13 -16 -14 -10 -2 -36 -13 -59 -24 -23 -11 -45 -18 -50 -15 -4 3
-8 -3 -8 -12 0 -10 -3 -15 -6 -11 -3 3 -18 -5 -32 -19 -15 -13 -29 -24 -32
-24 -9 0 10 120 26 165 8 23 14 51 14 63 0 14 5 20 14 16 8 -3 17 -1 20 4 3 6
-1 13 -10 16 -15 6 -15 8 -1 24 8 9 22 42 29 72 13 51 16 55 46 58 19 2 38 -3
48 -12 8 -9 23 -16 32 -17 9 0 33 -1 52 -2 27 -2 35 -6 34 -19 -2 -18 11 -25
18 -10 2 4 23 5 47 2 40 -4 43 -7 30 -20 -30 -31 -72 -91 -66 -96 8 -9 42 4
67 26 29 25 60 28 36 4 -9 -8 -16 -24 -16 -33 0 -10 -9 -30 -20 -44 -11 -14
-20 -32 -20 -40 0 -8 -7 -20 -15 -27 -9 -7 -13 -15 -11 -18 3 -2 0 -10 -7 -18
-29 -32 -62 -76 -63 -82 -2 -18 -19 -48 -31 -55 -7 -4 -13 -14 -13 -21 0 -8
-7 -17 -16 -20 -8 -3 -13 -10 -9 -15 6 -11 -24 -93 -38 -102 -5 -4 -6 -12 -3
-18 4 -6 2 -11 -3 -11 -6 0 -11 -6 -11 -14 0 -8 -9 -21 -21 -30 -20 -14 -49
-59 -49 -77 0 -5 -11 -27 -25 -50 -14 -22 -23 -44 -19 -50 3 -6 -3 -17 -14
-25 -12 -8 -19 -21 -16 -29 4 -8 2 -15 -2 -15 -5 0 -18 -7 -29 -16 -14 -11
-17 -17 -8 -22 9 -5 2 -19 -21 -44 -29 -31 -35 -34 -39 -19 -2 10 0 25 4 34 6
9 6 18 0 21 -12 8 -13 152 -1 216 6 30 13 78 15 105 3 28 8 64 11 80 4 20 3
27 -4 20 -9 -9 -17 -63 -42 -260 -5 -38 -11 -128 -14 -199 -3 -71 -8 -131 -11
-134 -5 -5 -9 183 -5 261 1 20 -3 37 -8 37 -5 0 -10 -23 -11 -52 -1 -29 -7
-64 -15 -78 -11 -23 -11 -30 1 -46 12 -17 11 -21 -7 -36 -20 -17 -50 -15 -50
3 0 11 -11 11 -29 0 -12 -8 -12 -12 -2 -25 8 -9 22 -16 32 -16 26 0 69 -21 63
-31 -3 -5 -16 -9 -30 -9 -33 0 -31 -18 4 -22 21 -2 28 -9 30 -31 3 -26 2 -27
-25 -21 -51 13 -94 34 -88 44 3 6 0 10 -8 10 -15 0 -77 55 -77 68 0 4 -15 8
-32 8 -41 0 -108 59 -109 95 0 13 -3 18 -6 11 -2 -6 -9 -10 -13 -7 -5 3 -7 12
-4 19 3 8 -4 16 -16 19 -13 3 -19 10 -15 17 4 6 2 16 -3 23 -13 18 -24 79 -12
72 6 -3 10 -2 10 4 0 5 -4 13 -10 16 -5 3 -10 15 -10 25 0 11 -9 27 -20 38
-19 18 -21 31 -20 124 0 27 -4 56 -9 67 -20 37 -60 272 -77 451 -4 36 -10 72
-15 81 -13 25 -42 514 -32 532 7 12 18 8 32 -14z m1741 -40 c-21 -39 -40 -47
-48 -18 -3 11 -2 11 6 1 7 -10 13 -4 26 22 9 20 21 36 27 36 5 0 0 -18 -11
-41z m-7280 5 c0 -14 -4 -23 -9 -20 -5 3 -7 15 -4 26 7 28 13 25 13 -6z m7030
-25 c0 -5 5 -7 10 -4 6 3 10 3 10 -2 0 -4 17 -13 38 -20 20 -6 46 -15 56 -19
14 -6 17 -4 11 6 -5 8 -3 11 6 8 8 -3 13 -13 13 -22 -1 -9 4 -16 12 -16 12 0
18 12 15 32 0 4 8 6 19 5 20 -1 29 -27 10 -27 -5 0 -10 -6 -10 -14 0 -7 -7
-19 -15 -26 -12 -10 -16 -9 -21 4 -9 22 -18 20 -34 -8 -10 -19 -28 -28 -79
-40 -75 -18 -100 -17 -121 3 -16 15 -22 61 -8 61 4 0 8 8 8 18 1 21 25 54 33
45 4 -3 9 2 13 11 7 18 34 22 34 5z m155 -129 c-3 -5 -13 -10 -21 -10 -8 0
-14 5 -14 10 0 6 9 10 21 10 11 0 17 -4 14 -10z m-1148 -26 c-3 -3 -12 -4 -19
-1 -8 3 -5 6 6 6 11 1 17 -2 13 -5z m1131 -6 c-6 -18 -28 -21 -28 -4 0 9 7 16
16 16 9 0 14 -5 12 -12z m-93 -38 c4 -6 -11 -10 -37 -9 -33 0 -38 2 -23 9 28
12 53 12 60 0z m1490 -48 c-3 -3 -11 0 -18 7 -9 10 -8 11 6 5 10 -3 15 -9 12
-12z m-1795 -6 c0 -3 -4 -8 -10 -11 -5 -3 -10 -1 -10 4 0 6 5 11 10 11 6 0 10
-2 10 -4z m474 -27 c-3 -5 -10 -7 -15 -3 -5 3 -7 10 -3 15 3 5 10 7 15 3 5 -3
7 -10 3 -15z m-164 0 c0 -15 -18 -19 -23 -6 -3 8 1 14 9 14 8 0 14 -4 14 -8z
m-326 -8 c3 -4 1 -23 -4 -41 -7 -24 -6 -36 5 -47 17 -17 19 -29 5 -38 -6 -4
-7 1 -3 11 5 14 2 16 -18 10 -25 -8 -69 -9 -77 -2 -11 11 13 27 33 22 18 -5
25 0 35 24 7 16 10 39 7 50 -5 20 7 28 17 11z m255 -10 c15 -10 7 -31 -13 -31
-8 0 -20 -8 -27 -17 -12 -15 -12 -16 4 -10 9 3 17 4 17 1 0 -12 -24 -50 -36
-57 -8 -4 -14 -15 -14 -22 0 -15 -3 -16 -55 -17 -52 -1 -65 2 -65 13 0 5 4 8
9 4 5 -3 22 6 37 20 15 14 32 25 39 25 18 0 48 37 51 63 1 12 3 25 3 30 1 10
33 9 50 -2z m51 -15 c0 -3 -4 -8 -10 -11 -5 -3 -10 -1 -10 4 0 6 5 11 10 11 6
0 10 -2 10 -4z m1400 -41 c0 -7 -6 -18 -13 -22 -7 -4 -20 -20 -30 -35 -23 -37
-53 -53 -61 -32 -4 10 4 21 23 32 16 9 37 29 46 44 17 30 35 37 35 13z m-1786
-65 c14 -5 26 -14 26 -20 0 -7 -6 -8 -17 -2 -10 5 -24 7 -30 5 -7 -3 -13 2
-13 11 0 19 1 19 34 6z m136 6 c0 -2 -7 -7 -16 -10 -8 -3 -12 -2 -9 4 6 10 25
14 25 6z m360 -56 c0 -5 -5 -10 -11 -10 -5 0 -7 5 -4 10 3 6 8 10 11 10 2 0 4
-4 4 -10z m-309 -25 c24 -14 39 -25 33 -25 -21 0 -84 30 -84 40 0 14 2 13 51
-15z m109 15 c0 -5 -5 -10 -11 -10 -5 0 -7 5 -4 10 3 6 8 10 11 10 2 0 4 -4 4
-10z m1405 -2 c4 -3 2 -9 -4 -13 -6 -3 -11 -1 -11 4 0 6 -5 11 -11 11 -7 0 -8
-12 -4 -32 4 -18 4 -30 0 -26 -10 10 -47 -11 -40 -22 3 -6 -23 -40 -58 -77
-80 -84 -157 -174 -157 -184 0 -8 -25 -37 -72 -87 -19 -19 -20 -27 -12 -50 12
-32 8 -52 -12 -52 -7 0 -20 -13 -29 -30 -16 -31 -55 -42 -55 -15 0 8 -7 15
-16 15 -12 0 -14 7 -9 33 14 60 25 83 35 67 10 -16 48 20 117 115 78 106 88
118 111 143 12 14 22 29 22 34 0 5 4 7 8 4 5 -3 9 1 9 8 0 18 42 86 54 86 5 0
9 9 9 19 0 12 9 21 25 25 14 4 25 12 25 19 0 14 63 18 75 5z m-1325 -255 c0
-21 -3 -24 -12 -15 -9 9 -17 5 -37 -16 -22 -23 -26 -25 -29 -9 -4 21 36 67 61
67 12 0 17 -8 17 -27z m-6749 -30 c-24 -45 -27 -37 -6 14 8 20 18 34 21 30 3
-3 -4 -22 -15 -44z m5200 -66 c-1 -12 -15 -9 -19 4 -3 6 1 10 8 8 6 -3 11 -8
11 -12z m2446 -19 c-3 -8 -6 -5 -6 6 -1 11 2 17 5 13 3 -3 4 -12 1 -19z
m-1056 -31 c-10 -9 -11 -8 -5 6 3 10 9 15 12 12 3 -3 0 -11 -7 -18z m-1436
-17 c3 -5 2 -10 -4 -10 -5 0 -13 5 -16 10 -3 6 -2 10 4 10 5 0 13 -4 16 -10z
m2615 0 c0 -5 -4 -10 -10 -10 -5 0 -10 5 -10 10 0 6 5 10 10 10 6 0 10 -4 10
-10z m-2585 -68 c-8 -8 -25 10 -25 27 0 30 14 34 22 5 4 -16 6 -30 3 -32z
m2555 28 c0 -5 -4 -10 -10 -10 -5 0 -10 5 -10 10 0 6 5 10 10 10 6 0 10 -4 10
-10z m-5159 -57 c-11 -5 -11 -7 0 -14 9 -6 1 -9 -23 -9 -21 0 -38 2 -38 5 0 8
42 24 60 24 12 -1 12 -2 1 -6z m-203 -16 c157 -1 111 -21 -56 -25 l-137 -3 24
21 c16 14 31 18 45 14 11 -4 67 -7 124 -7z m132 3 c0 -5 -5 -10 -11 -10 -5 0
-7 5 -4 10 3 6 8 10 11 10 2 0 4 -4 4 -10z m2715 -39 c-3 -6 -11 -8 -17 -5 -6
4 -5 9 3 15 16 10 23 4 14 -10z m-2603 -43 c-17 -8 -26 -8 -34 0 -9 9 -4 12
23 11 32 0 33 -1 11 -11z m-89 -9 c-17 -17 -86 -30 -98 -18 -7 7 -5 8 6 4 10
-4 23 0 30 9 8 8 27 15 44 16 21 0 26 -3 18 -11z m-3236 -121 c-4 -18 -9 -57
-13 -85 -7 -59 -5 -57 -71 -42 -192 44 -324 88 -356 117 -18 16 -17 17 24 27
23 5 128 11 232 13 l189 3 -5 -33z m-722 -33 c155 -9 485 -70 492 -90 2 -5
-14 -10 -34 -10 -20 0 -71 -3 -112 -6 -54 -5 -112 -1 -196 12 -172 27 -259 43
-270 50 -5 3 -22 9 -37 13 -55 13 -22 48 37 40 11 -2 65 -6 120 -9z m6825
-149 c0 -3 -4 -8 -10 -11 -5 -3 -10 -1 -10 4 0 6 5 11 10 11 6 0 10 -2 10 -4z
m0 -46 c0 -11 -2 -20 -4 -20 -2 0 -6 9 -9 20 -3 11 -1 20 4 20 5 0 9 -9 9 -20z
m57 -39 c16 -10 16 -10 -4 -11 -13 0 -23 3 -23 8 0 4 -3 18 -5 32 -5 23 -5 23
4 3 5 -12 18 -26 28 -32z m-237 24 c0 -16 -70 -79 -106 -95 -46 -21 -109 -26
-134 -10 -11 7 -2 10 33 10 56 0 150 41 176 77 15 20 31 30 31 18z m-415 -35
c3 -5 1 -10 -4 -10 -6 0 -11 5 -11 10 0 6 2 10 4 10 3 0 8 -4 11 -10z m-2834
-120 c5 0 9 -6 9 -14 0 -7 9 -16 21 -19 12 -3 19 -10 16 -15 -13 -20 -15 -62
-3 -62 7 0 -10 -23 -37 -51 -27 -28 -45 -54 -41 -57 3 -4 9 -1 11 6 3 6 13 12
24 12 16 0 18 -5 13 -27 -3 -16 -15 -34 -25 -42 -11 -7 -19 -20 -19 -27 0 -8
-4 -14 -10 -14 -5 0 -10 7 -10 15 0 18 -16 20 -24 3 -5 -10 -7 -10 -12 0 -3 6
-12 12 -20 12 -8 0 -14 7 -14 15 0 8 -5 15 -10 15 -16 0 -26 -33 -12 -38 17
-5 15 -39 -3 -45 -8 -4 -17 -2 -20 3 -10 16 -25 11 -25 -7 0 -10 -12 -26 -25
-36 -24 -17 -25 -17 -25 1 0 10 5 23 12 30 7 7 8 12 4 12 -5 0 -15 -8 -22 -17
-12 -16 -13 -16 -14 9 0 15 4 29 10 33 5 3 7 12 4 20 -5 11 -11 12 -24 5 -16
-8 -18 -5 -17 25 1 29 3 32 16 22 12 -10 14 -9 8 6 -4 10 -3 16 1 13 5 -3 20
8 35 24 27 28 36 47 18 35 -5 -3 -12 -1 -16 5 -10 16 -23 12 -30 -11 -4 -11
-9 -18 -12 -16 -2 3 1 16 8 29 7 12 14 39 16 58 2 20 12 43 24 53 29 24 13 22
-18 -3 -14 -11 -30 -17 -36 -13 -6 4 -4 11 6 18 10 7 17 20 17 29 0 22 24 46
44 46 9 0 24 9 33 20 10 11 21 20 25 20 15 0 8 -19 -17 -46 -14 -15 -25 -32
-25 -38 0 -6 5 -3 11 7 11 19 40 23 37 5 -2 -7 7 -14 20 -16 12 -2 22 1 22 7
0 6 -8 11 -17 12 -10 0 -13 3 -7 5 6 3 9 16 6 29 -4 21 -1 24 13 19 10 -4 20
-1 25 6 6 10 12 11 22 2 11 -8 17 -6 28 11 14 21 15 19 18 -30 2 -29 7 -53 13
-53z m-2443 76 c30 -8 61 -12 69 -9 13 5 12 1 -3 -23 -10 -16 -23 -36 -30 -44
-6 -8 -12 -29 -12 -47 0 -18 -6 -40 -12 -50 -9 -15 -10 -9 -7 27 4 37 3 41 -6
23 -5 -13 -14 -23 -20 -23 -6 0 -7 -21 -2 -57 4 -32 9 -70 10 -84 1 -14 5 -31
9 -37 12 -20 -11 -22 -29 -2 -9 10 -22 17 -29 14 -6 -2 -20 2 -31 10 -24 17
-26 78 -2 104 29 31 21 66 -20 98 -47 35 -54 45 -49 66 2 10 0 21 -5 24 -41
25 83 33 169 10z m2472 -3 c0 -14 -19 -38 -25 -32 -8 8 5 39 16 39 5 0 9 -3 9
-7z m3521 -68 c28 -29 38 -55 20 -55 -4 0 -23 5 -41 11 -33 12 -60 56 -60 99
0 19 1 19 26 -3 15 -12 40 -35 55 -52z m-771 46 c0 -6 -4 -13 -10 -16 -11 -7
41 -64 53 -58 4 3 10 -3 13 -11 4 -11 14 -14 29 -10 13 3 26 1 29 -5 4 -6 21
-11 37 -11 18 0 28 -4 24 -10 -4 -6 -11 -8 -16 -5 -5 3 -6 -1 -3 -10 4 -9 13
-14 21 -11 8 3 23 6 34 6 10 0 19 7 19 15 0 8 8 15 18 14 10 0 12 -3 5 -6 -19
-7 -16 -27 7 -48 45 -41 5 -60 -66 -30 -35 15 -37 15 -54 15 -5 0 -10 6 -10
14 0 10 -11 15 -38 14 -45 0 -84 10 -94 26 -5 8 -8 7 -8 -2 0 -8 -9 -10 -27
-6 -63 15 -75 55 -34 112 21 30 71 46 71 23z m1090 -40 c0 -6 -4 -13 -10 -16
-5 -3 -10 1 -10 9 0 9 5 16 10 16 6 0 10 -4 10 -9z m-480 -73 c0 -42 -32 -253
-41 -270 -5 -10 -9 -28 -9 -41 0 -13 -10 -32 -21 -43 -22 -19 -22 -19 -15 9 4
17 2 27 -4 27 -13 0 -3 42 12 51 6 4 12 28 15 55 2 27 8 58 13 69 5 11 11 48
13 82 3 34 8 66 12 72 11 19 25 12 25 -11z m227 7 c19 -20 14 -26 -14 -19 -13
4 -20 11 -16 20 7 18 11 18 30 -1z m151 -32 c24 -20 -4 -16 -35 4 -23 15 -24
17 -7 24 11 3 21 1 23 -5 2 -6 10 -17 19 -23z m-4030 9 c2 -7 -2 -10 -12 -6
-9 3 -16 11 -16 16 0 13 23 5 28 -10z m3472 -12 c0 -5 -4 -10 -10 -10 -5 0
-10 5 -10 10 0 6 5 10 10 10 6 0 10 -4 10 -10z m-6 -86 c4 -9 4 -19 1 -22 -3
-3 -5 0 -5 6 0 7 -6 12 -14 12 -8 0 -18 5 -21 10 -3 6 3 10 13 10 11 0 23 -7
26 -16z m-44 -34 c5 -8 13 -26 19 -40 10 -23 10 -22 5 10 -5 27 -3 32 6 23 15
-14 1 -108 -17 -108 -6 0 -15 -3 -19 -7 -4 -5 0 -8 9 -8 21 0 22 -33 3 -49
-11 -9 -20 -9 -35 -2 -33 18 -53 14 -49 -11 2 -14 12 -22 27 -25 14 -2 33 -12
43 -23 16 -17 16 -20 2 -34 -19 -19 -31 -20 -37 -3 -3 6 -6 -1 -6 -18 -2 -44
-15 -59 -55 -59 -28 0 -33 -3 -24 -13 8 -10 6 -13 -9 -13 -11 0 -32 -10 -47
-21 -15 -12 -30 -18 -34 -14 -4 3 -5 42 -4 86 3 69 1 79 -14 79 -28 0 -64 40
-64 72 0 25 -3 28 -34 28 -19 0 -37 -6 -40 -12 -3 -7 -3 -3 0 9 7 28 -15 63
-41 63 -19 1 -19 1 -2 11 17 10 17 12 2 30 -10 10 -15 25 -11 34 5 13 16 15
58 9 29 -3 68 -10 86 -14 31 -8 142 -5 191 6 13 3 30 12 38 20 18 18 43 15 53
-6z m99 -57 c-10 -36 -10 -46 1 -53 10 -6 10 -15 0 -44 -15 -46 -20 -46 -13 1
4 25 3 34 -5 29 -14 -8 -11 72 3 94 5 8 10 18 11 23 1 4 3 13 4 20 1 6 4 4 7
-7 3 -10 -1 -39 -8 -63z m-1499 -10 c0 -4 9 -19 20 -33 25 -33 27 -54 2 -39
-17 11 -45 63 -58 109 l-6 25 21 -27 c11 -14 21 -30 21 -35z m1805 37 c23 0
65 -22 59 -31 -3 -5 -16 -9 -29 -9 -27 0 -68 38 -58 54 4 7 8 6 11 -2 2 -7 10
-12 17 -12z m-6432 -77 c26 -24 51 -51 56 -62 13 -24 3 -81 -15 -81 -31 0
-122 144 -111 174 9 23 15 20 70 -31z m5600 -64 c-5 -5 -6 11 -3 34 4 41 5 41
8 8 2 -18 0 -37 -5 -42z m-5037 28 c21 -21 -63 -55 -100 -41 -24 9 -20 32 7
36 13 2 22 10 21 19 -1 13 3 14 32 4 19 -6 37 -14 40 -18z m7218 -62 c3 -16 7
-53 10 -82 6 -66 34 -121 82 -163 41 -36 118 -73 174 -84 62 -13 72 -17 66
-32 -3 -7 -2 -13 2 -12 4 1 20 -4 35 -10 16 -7 34 -9 40 -5 8 5 8 2 0 -9 -7
-8 -12 -17 -10 -19 1 -2 -3 1 -9 8 -6 7 -20 13 -32 13 -31 0 -114 39 -107 50
11 18 -5 11 -32 -14 -24 -22 -28 -23 -38 -9 -7 10 -20 14 -32 11 -15 -4 -24 1
-32 18 -6 13 -17 24 -26 24 -8 0 -15 4 -15 8 0 5 -9 19 -20 31 -36 42 -102
295 -82 316 9 9 21 -8 26 -40z m-6966 -8 c24 -13 39 -28 33 -31 -5 -4 -7 -14
-4 -22 5 -13 1 -15 -16 -9 -14 4 -23 2 -27 -8 -4 -13 -22 -20 -114 -45 -13 -4
-67 -2 -120 5 -90 12 -221 10 -284 -3 -23 -5 -33 -1 -51 22 -17 22 -20 32 -12
45 5 9 18 14 27 12 10 -3 21 0 24 6 4 6 16 7 34 1 37 -12 182 -19 182 -8 0 4
3 7 8 6 10 -3 121 30 157 47 41 19 112 12 163 -18z m4787 13 c3 -5 1 -10 -4
-10 -6 0 -11 5 -11 10 0 6 2 10 4 10 3 0 8 -4 11 -10z m-4475 -46 c0 -7 -12
-16 -27 -19 -16 -4 -36 -10 -45 -16 -37 -19 -39 -1 -4 34 26 26 76 27 76 1z
m4505 16 c3 -5 -1 -10 -9 -10 -9 0 -16 5 -16 10 0 6 4 10 9 10 6 0 13 -4 16
-10z m-905 -101 c0 -5 -4 -9 -10 -9 -5 0 -10 7 -10 16 0 8 5 12 10 9 6 -3 10
-10 10 -16z m1280 11 c0 -5 -4 -10 -10 -10 -5 0 -10 5 -10 10 0 6 5 10 10 10
6 0 10 -4 10 -10z m450 -6 c0 -2 -7 -4 -15 -4 -8 0 -15 4 -15 10 0 5 7 7 15 4
8 -4 15 -8 15 -10z m-6430 -113 c0 -6 -4 -13 -10 -16 -5 -3 -10 1 -10 9 0 9 5
16 10 16 6 0 10 -4 10 -9z m170 -53 c38 1 54 -2 65 -16 13 -15 26 -17 78 -12
34 4 64 4 67 0 9 -12 111 -18 153 -8 74 16 305 27 325 14 7 -4 18 -3 25 2 11
8 56 14 97 12 8 0 29 1 45 2 79 5 159 -2 174 -16 11 -10 21 -12 32 -5 11 5 33
3 64 -8 34 -11 53 -13 64 -6 9 6 25 7 35 3 25 -8 10 -17 -42 -26 -47 -7 -50
-12 -22 -37 24 -20 26 -37 5 -37 -9 0 -21 11 -27 25 l-12 26 -38 -38 c-21 -21
-36 -43 -34 -49 7 -19 -5 -24 -27 -13 -15 8 -22 8 -28 -2 -5 -8 -14 -15 -21
-15 -7 -1 -18 -2 -23 -3 -6 0 -21 -21 -34 -45 -19 -35 -29 -43 -48 -41 -13 1
-23 -3 -23 -9 0 -17 -16 -37 -31 -40 -20 -3 -133 -58 -140 -69 -3 -4 -18 -5
-32 -2 -20 5 -28 3 -33 -9 -3 -9 -15 -16 -25 -16 -12 0 -19 -7 -19 -20 0 -11
-5 -20 -11 -20 -6 0 -9 7 -5 15 6 17 -9 21 -19 5 -10 -16 -25 -1 -25 26 0 14
-6 24 -14 24 -20 0 -48 -29 -40 -41 10 -17 -5 -59 -22 -59 -8 0 -17 -7 -20
-15 -4 -8 -15 -15 -25 -15 -10 0 -19 -5 -19 -11 0 -6 -10 -9 -22 -7 -13 2 -22
9 -21 15 2 7 -6 10 -19 8 -17 -4 -19 -2 -10 7 7 7 12 16 12 21 0 5 -7 2 -15
-7 -21 -20 -69 -1 -60 23 5 12 3 13 -6 4 -13 -13 -70 12 -167 73 -29 19 -56
34 -61 34 -4 0 -20 11 -35 25 -14 13 -30 26 -33 27 -11 5 -11 38 0 38 6 0 7 3
4 7 -4 3 -15 -1 -24 -9 -16 -13 -20 -13 -36 4 -17 18 -17 19 5 28 13 5 17 9
11 9 -7 1 -12 6 -10 12 1 6 -13 19 -30 28 -18 9 -32 23 -32 31 0 8 2 10 5 5 5
-12 94 -7 110 6 6 5 19 7 28 3 9 -3 16 -1 16 4 0 17 -21 25 -33 13 -16 -16
-52 -14 -67 4 -16 19 -37 19 -47 1 -9 -17 -63 -30 -63 -15 0 5 7 9 15 9 7 0
18 6 22 14 4 8 17 15 28 18 12 2 20 11 20 23 0 18 6 20 49 18 28 -1 45 1 39 5
-5 4 -10 15 -10 25 0 14 6 17 25 12 60 -15 82 -17 82 -7 0 12 -30 26 -49 23
-24 -4 -71 21 -71 38 1 13 3 13 16 -4 11 -15 25 -19 64 -17z m-100 -48 c0 -5
-9 -10 -21 -10 -11 0 -17 5 -14 10 3 6 13 10 21 10 8 0 14 -4 14 -10z m8120
-24 c0 -3 -4 -8 -10 -11 -5 -3 -10 -1 -10 4 0 6 5 11 10 11 6 0 10 -2 10 -4z
m-183 -58 c-3 -7 -5 -2 -5 12 0 14 2 19 5 13 2 -7 2 -19 0 -25z m-6627 12 c0
-5 -5 -10 -11 -10 -5 0 -7 5 -4 10 3 6 8 10 11 10 2 0 4 -4 4 -10z m6644 -53
c3 3 6 -1 6 -10 0 -23 -13 -21 -36 4 -19 22 -19 22 2 11 12 -6 24 -8 28 -5z
m-8007 -52 c-5 -14 -55 -14 -67 0 -8 10 -1 12 30 11 22 0 38 -5 37 -11z m1695
-1700 l-4 -44 38 6 c48 8 64 -13 64 -83 0 -33 5 -54 13 -57 6 -3 -5 -6 -25 -6
l-38 -1 0 59 c0 63 -11 81 -35 61 -22 -18 -20 -96 3 -109 13 -8 4 -10 -37 -11
-47 0 -52 2 -37 13 14 10 16 26 14 102 -3 76 -6 90 -20 93 -13 2 -18 -3 -18
-17 0 -12 -4 -21 -10 -21 -5 0 -10 7 -10 15 0 9 -9 15 -25 15 -25 0 -25 0 -25
-94 0 -82 2 -95 18 -99 9 -3 -10 -5 -43 -6 -45 0 -56 2 -42 10 14 8 17 25 17
99 l0 90 -30 0 c-20 0 -30 -5 -30 -15 0 -8 -4 -15 -10 -15 -5 0 -10 11 -10 25
l0 24 123 4 c67 1 131 4 142 5 18 2 20 -3 17 -43z m558 -22 l0 -67 28 27 c18
17 39 27 58 26 25 0 26 -1 9 -8 -11 -5 -29 -18 -39 -30 -19 -21 -19 -22 10
-54 16 -17 35 -38 43 -44 12 -11 9 -13 -19 -13 -25 0 -40 8 -61 33 l-28 32 -1
-27 c0 -14 6 -29 13 -31 6 -3 -10 -5 -38 -5 -27 0 -44 2 -37 5 8 3 12 34 12
104 0 72 -3 99 -12 99 -23 0 16 20 40 20 21 0 22 -4 22 -67z m950 51 c0 -11
-6 -14 -20 -9 -17 6 -20 2 -20 -29 0 -29 4 -36 20 -36 11 0 20 -4 20 -10 0 -5
-9 -10 -20 -10 -18 0 -20 -7 -20 -54 0 -44 4 -55 18 -59 9 -3 -10 -5 -43 -5
-33 0 -52 2 -42 5 13 4 17 15 17 59 0 45 -3 54 -17 54 -17 1 -17 1 0 11 9 5
17 17 17 26 0 23 50 73 72 73 10 0 18 -7 18 -16z m635 -4 c0 -8 -10 -16 -22
-18 -18 -3 -23 2 -23 18 0 16 5 21 23 18 12 -2 22 -10 22 -18z m250 0 c0 -8
-10 -16 -22 -18 -18 -3 -23 2 -23 18 0 16 5 21 23 18 12 -2 22 -10 22 -18z
m215 0 c0 -15 -7 -20 -25 -20 -24 0 -34 18 -18 33 15 15 43 7 43 -13z m670
-23 c0 -43 1 -43 30 -39 46 7 60 -12 60 -78 0 -37 5 -60 13 -63 6 -3 -5 -6
-27 -6 l-39 -1 5 50 c3 33 1 56 -8 68 -13 16 -15 16 -28 -1 -17 -22 -12 -97 6
-109 7 -4 -11 -7 -42 -7 -30 1 -47 3 -37 6 15 4 17 18 17 104 0 87 -2 99 -17
100 -15 0 -15 2 2 9 11 5 30 9 43 9 19 1 22 -4 22 -42z m850 -1 l0 -44 39 5
c34 5 41 2 56 -21 22 -33 14 -67 -23 -101 -22 -20 -36 -25 -74 -24 l-48 2 0
104 c0 75 -3 103 -12 104 -18 1 23 17 45 18 14 1 17 -7 17 -43z m340 24 c0
-13 -7 -20 -19 -20 -22 0 -35 15 -26 30 12 19 45 11 45 -10z m365 -62 c-4 -40
-9 -76 -12 -80 -12 -22 -21 -1 -27 63 -8 73 -2 88 33 89 10 0 12 -15 6 -72z
m-2335 27 c0 -24 5 -35 15 -35 8 0 15 -4 15 -10 0 -5 -7 -10 -15 -10 -11 0
-15 -12 -15 -46 0 -37 3 -45 15 -40 8 3 15 2 15 -3 0 -16 -29 -33 -52 -29 -21
3 -23 9 -26 61 -2 34 -8 57 -14 57 -9 0 -9 3 0 12 7 7 12 24 12 39 0 25 8 33
43 38 4 0 7 -15 7 -34z m670 0 c0 -24 5 -35 15 -35 22 0 18 -17 -5 -23 -16 -4
-19 -11 -16 -39 3 -18 5 -37 5 -42 1 -4 8 -6 16 -2 8 3 15 2 15 -3 0 -16 -29
-33 -52 -29 -21 3 -23 9 -26 61 -2 34 -8 57 -14 57 -9 0 -9 3 0 12 7 7 12 24
12 39 0 25 8 33 43 38 4 0 7 -15 7 -34z m1402 0 c-4 -30 -1 -35 17 -35 12 0
21 -4 21 -10 0 -5 -9 -10 -21 -10 -18 0 -20 -5 -17 -42 2 -35 6 -42 21 -40 16
3 16 1 5 -18 -9 -14 -21 -20 -38 -18 -23 3 -25 8 -28 61 -2 46 -6 57 -20 57
-15 1 -15 2 2 15 12 9 17 22 13 35 -3 12 1 24 11 30 30 17 38 11 34 -25z
m-4324 -37 c7 -7 12 -38 12 -69 0 -37 5 -59 13 -62 6 -3 -19 -4 -58 -4 l-70 2
-3 31 c-2 24 2 33 23 42 14 7 33 12 41 12 19 0 14 20 -9 34 -13 8 -20 7 -27
-4 -5 -8 -12 -11 -16 -7 -4 3 -1 13 6 22 15 18 71 20 88 3z m203 -15 c5 -14 7
-40 3 -58 -4 -23 -1 -37 11 -48 15 -16 14 -17 -19 -17 l-36 0 0 53 c0 55 -13
79 -36 70 -18 -7 -19 -109 -1 -116 6 -3 -10 -5 -38 -5 -27 0 -44 2 -37 5 8 3
12 26 12 64 0 40 -4 59 -12 60 -36 2 35 16 85 17 53 1 59 -1 68 -25z m390 18
c-11 -7 -11 -15 -1 -45 6 -20 13 -36 16 -36 2 0 11 17 19 37 12 29 13 38 3 45
-8 5 -1 8 20 8 31 0 32 -1 19 -22 -8 -13 -31 -65 -52 -116 -30 -72 -43 -94
-61 -98 -29 -7 -45 2 -37 22 3 9 12 12 24 9 13 -5 22 0 30 17 8 19 5 37 -16
93 -14 37 -30 74 -36 82 -9 10 -2 13 37 13 32 0 44 -3 35 -9z m241 -8 c11 -10
18 -30 18 -55 0 -51 -27 -78 -79 -78 -72 0 -104 77 -54 132 21 23 90 24 115 1z
m100 -36 c-4 -54 14 -87 38 -72 15 9 13 105 -2 106 -18 1 23 17 45 18 15 1 17
-9 17 -68 0 -46 4 -71 13 -74 6 -3 -24 -5 -68 -4 l-80 2 -3 58 c-2 42 -7 60
-19 64 -14 6 -14 7 3 14 10 4 28 8 39 8 18 1 20 -4 17 -52z m478 33 c26 -26
26 -70 -1 -104 -26 -33 -88 -37 -119 -6 -26 26 -26 80 0 108 27 29 92 30 120
2z m160 -7 c0 -22 -3 -24 -24 -19 -17 4 -26 1 -30 -10 -11 -28 -6 -62 10 -78
14 -15 11 -16 -38 -16 -41 1 -49 3 -35 11 24 14 25 107 0 116 -15 6 -14 7 3
14 10 4 40 7 67 7 44 0 47 -2 47 -25z m153 21 c-7 -3 -10 -11 -8 -17 3 -7 9
-25 15 -42 l12 -30 13 25 c18 31 19 57 3 63 -7 3 3 6 22 6 l36 1 -36 -75 c-44
-94 -60 -97 -90 -12 -12 34 -29 68 -38 75 -13 10 -8 12 34 11 27 0 44 -3 37
-5z m177 -63 c0 -46 4 -71 13 -74 6 -3 -10 -5 -38 -5 -27 0 -44 2 -37 5 8 3
12 26 12 64 0 40 -4 59 -12 59 -23 0 16 20 40 20 21 0 22 -4 22 -69z m148 42
c4 -27 -6 -30 -23 -6 -7 9 -19 14 -29 10 -27 -11 -18 -26 24 -37 35 -9 40 -14
40 -40 0 -36 -26 -52 -78 -48 -30 2 -38 7 -40 26 -4 26 3 28 25 7 17 -18 44
-16 51 3 2 7 -5 12 -15 12 -27 0 -63 28 -63 50 0 31 29 51 69 48 29 -2 37 -8
39 -25z m102 -42 c0 -46 4 -71 13 -74 6 -3 -10 -5 -38 -5 -27 0 -44 2 -37 5 8
3 12 26 12 64 0 40 -4 59 -12 59 -23 0 16 20 40 20 21 0 22 -4 22 -69z m210
-1 l0 -70 30 0 30 0 0 60 c0 41 -4 60 -12 60 -9 0 -9 3 1 9 20 13 123 12 138
-1 8 -6 13 -34 13 -68 0 -37 5 -60 13 -63 6 -3 -5 -6 -25 -6 l-38 -1 0 59 c0
60 -12 83 -33 62 -14 -14 -9 -103 6 -113 7 -4 -35 -7 -93 -7 -58 0 -99 3 -92
6 8 3 12 26 12 64 0 40 -4 59 -12 60 -18 1 23 17 45 18 15 1 17 -9 17 -69z
m399 54 c3 -4 0 -9 -6 -11 -7 -3 -13 -13 -13 -24 0 -27 -35 -59 -65 -59 -48 0
-24 -19 28 -22 49 -3 52 -5 55 -32 5 -45 -31 -76 -88 -76 -25 0 -51 5 -58 12
-15 15 -16 58 -2 58 6 0 8 10 4 24 -3 13 -1 27 5 31 8 4 7 13 -4 28 -20 29
-19 43 6 68 19 19 29 21 76 16 30 -3 58 -9 62 -13z m526 -4 c28 -30 13 -50
-39 -50 -39 0 -44 -2 -39 -20 7 -26 38 -43 63 -35 24 8 27 -10 4 -19 -29 -11
-77 -6 -96 11 -26 23 -24 87 4 113 28 26 79 26 103 0z m186 11 c-11 -7 -12
-17 -5 -43 l10 -33 22 43 c12 23 27 42 33 42 6 0 18 -18 26 -40 19 -48 29 -50
38 -9 5 22 3 34 -6 40 -9 6 0 8 26 8 22 0 34 -3 28 -6 -7 -2 -22 -36 -34 -74
-26 -85 -45 -90 -73 -22 l-20 47 -19 -47 c-29 -69 -48 -63 -70 22 -10 39 -24
72 -30 75 -7 2 11 5 38 5 33 0 45 -2 36 -8z m315 -16 c22 -33 11 -45 -41 -45
-38 0 -43 -2 -38 -20 7 -26 38 -43 63 -35 24 8 27 -10 4 -19 -28 -11 -69 -6
-92 10 -31 21 -31 85 0 114 31 29 83 27 104 -5z m334 0 c0 -29 -8 -32 -25 -8
-7 9 -19 14 -29 10 -27 -10 -18 -23 23 -36 43 -13 52 -25 40 -58 -15 -42 -111
-46 -117 -5 -4 26 3 28 25 7 17 -17 44 -17 50 1 2 7 -9 15 -24 19 -54 13 -68
42 -36 77 10 11 30 18 55 18 34 0 38 -3 38 -25z m100 -40 c0 -50 4 -66 18 -74
13 -8 4 -10 -38 -10 -30 0 -49 3 -42 6 8 3 12 26 12 64 0 40 -4 59 -12 59 -23
0 16 20 40 20 21 0 22 -4 22 -65z m274 49 c9 -8 16 -24 16 -35 0 -16 -7 -19
-45 -19 -49 0 -59 -15 -29 -45 12 -11 25 -14 48 -9 27 6 29 5 17 -10 -19 -23
-86 -21 -111 4 -30 30 -27 83 6 109 32 25 76 27 98 5z m94 -111 c-2 -10 -13
-19 -26 -21 -17 -3 -22 2 -22 17 0 16 6 21 26 21 19 0 25 -5 22 -17z"/>
<path d="M8160 8345 c0 -8 4 -15 10 -15 5 0 7 7 4 15 -4 8 -8 15 -10 15 -2 0
-4 -7 -4 -15z"/>
<path d="M8090 7630 c0 -5 5 -10 10 -10 6 0 10 5 10 10 0 6 -4 10 -10 10 -5 0
-10 -4 -10 -10z"/>
<path d="M8073 7413 c-7 -3 -13 -11 -13 -18 0 -16 27 -28 35 -15 9 14 -8 38
-22 33z"/>
<path d="M8160 7159 c0 -5 5 -7 10 -4 6 3 10 8 10 11 0 2 -4 4 -10 4 -5 0 -10
-5 -10 -11z"/>
<path d="M8138 7133 c7 -3 16 -2 19 1 4 3 -2 6 -13 5 -11 0 -14 -3 -6 -6z"/>
<path d="M7962 7059 c2 -7 10 -15 17 -17 8 -3 12 1 9 9 -2 7 -10 15 -17 17 -8
3 -12 -1 -9 -9z"/>
<path d="M11562 6760 c0 -14 2 -19 5 -12 2 6 2 18 0 25 -3 6 -5 1 -5 -13z"/>
<path d="M10880 6120 c-9 -16 -8 -18 5 -14 8 4 15 12 15 20 0 20 -7 17 -20 -6z"/>
<path d="M10929 6133 c0 -5 -2 -17 -4 -28 -5 -23 26 -97 32 -78 3 7 -1 21 -7
32 -7 15 -8 27 0 40 5 11 10 24 10 30 0 12 -30 15 -31 4z"/>
<path d="M11003 6069 c-19 -19 -16 -35 12 -53 21 -14 25 -14 25 -2 0 9 7 13
23 9 15 -3 12 1 -10 12 -18 9 -33 24 -35 32 -2 11 -5 12 -15 2z"/>
<path d="M5972 7885 c-29 -7 -59 -18 -66 -24 -11 -9 -15 -9 -18 0 -3 8 -14 7
-40 -4 -48 -20 -53 -32 -19 -47 20 -8 35 -25 45 -51 9 -21 20 -39 26 -39 5 0
10 -6 10 -13 0 -8 11 -19 25 -25 23 -11 25 -10 16 7 -6 10 -8 21 -5 24 3 2 -4
20 -15 38 -25 41 -26 49 -6 49 20 0 52 33 47 48 -2 7 4 11 15 10 47 -4 72 2
67 16 -4 10 3 16 23 19 20 3 17 4 -12 4 -22 1 -64 -5 -93 -12z"/>
<path d="M6026 7834 c-9 -24 -8 -26 14 -14 11 6 20 15 20 20 0 16 -27 11 -34
-6z"/>
<path d="M5295 7780 c-3 -5 -2 -10 4 -10 5 0 13 5 16 10 3 6 2 10 -4 10 -5 0
-13 -4 -16 -10z"/>
<path d="M5105 7630 c-4 -7 -16 -10 -26 -7 -11 3 -17 1 -13 -4 7 -12 41 -11
49 2 4 6 5 13 2 15 -3 3 -8 0 -12 -6z"/>
<path d="M4881 7474 c0 -11 3 -14 6 -6 3 7 2 16 -1 19 -3 4 -6 -2 -5 -13z"/>
<path d="M4945 7430 c3 -5 8 -10 11 -10 2 0 4 5 4 10 0 6 -5 10 -11 10 -5 0
-7 -4 -4 -10z"/>
<path d="M5780 7242 c0 -12 19 -26 26 -19 2 2 -2 10 -11 17 -9 8 -15 8 -15 2z"/>
<path d="M5840 7200 c0 -5 4 -10 9 -10 6 0 13 5 16 10 3 6 -1 10 -9 10 -9 0
-16 -4 -16 -10z"/>
<path d="M4980 7150 c0 -5 4 -10 10 -10 5 0 6 -8 3 -17 -6 -15 -5 -16 9 -3 12
12 13 17 2 27 -15 16 -24 17 -24 3z"/>
<path d="M5450 7150 c0 -5 5 -10 10 -10 6 0 10 5 10 10 0 6 -4 10 -10 10 -5 0
-10 -4 -10 -10z"/>
<path d="M8288 5613 c7 -3 16 -2 19 1 4 3 -2 6 -13 5 -11 0 -14 -3 -6 -6z"/>
<path d="M9021 5398 c-16 -38 -21 -79 -8 -71 17 10 44 103 30 103 -5 0 -15
-15 -22 -32z"/>
<path d="M7991 5267 c0 -10 -9 -21 -18 -24 -37 -14 -43 -43 -9 -43 32 0 44 19
35 55 -3 17 -7 22 -8 12z"/>
<path d="M9157 4943 c-4 -3 -7 -11 -7 -17 0 -6 5 -5 12 2 6 6 9 14 7 17 -3 3
-9 2 -12 -2z"/>
<path d="M9220 4942 c1 -4 6 -17 13 -30 l13 -23 12 26 c7 14 12 27 12 28 0 2
-11 4 -25 5 -14 1 -25 -2 -25 -6z"/>
<path d="M7373 4880 c-72 -58 -91 -85 -67 -94 8 -3 24 -1 35 4 37 20 120 140
96 140 -1 0 -30 -23 -64 -50z"/>
<path d="M9165 4911 c-3 -5 -2 -12 3 -15 5 -3 9 1 9 9 0 17 -3 19 -12 6z"/>
<path d="M8907 4893 c-3 -5 -2 -15 2 -22 7 -10 10 -10 16 -1 4 6 3 16 -3 22
-5 5 -12 6 -15 1z"/>
<path d="M8955 4850 c6 -10 4 -12 -8 -7 -21 8 -22 3 -3 -12 10 -9 15 -8 19 3
4 9 1 18 -5 22 -7 5 -8 2 -3 -6z"/>
<path d="M9001 4790 c-11 -6 -9 -11 8 -20 12 -6 26 -22 31 -36 6 -16 20 -27
40 -30 16 -4 30 -12 30 -19 0 -7 7 -16 16 -19 8 -3 12 -2 9 4 -3 6 -1 10 4 10
6 0 11 -5 11 -12 0 -6 2 -9 5 -6 12 12 -7 37 -23 30 -15 -5 -16 -4 -2 13 8 10
10 16 4 12 -6 -4 -23 3 -36 16 -68 60 -81 68 -97 57z"/>
<path d="M7164 4698 c-38 -41 -64 -77 -89 -123 -9 -16 -8 -24 5 -38 16 -17 19
-14 51 50 18 38 41 79 50 93 15 25 31 60 26 60 -2 0 -21 -19 -43 -42z"/>
<path d="M9170 4661 c0 -11 42 -43 48 -37 5 5 -30 46 -40 46 -5 0 -8 -4 -8 -9z"/>
<path d="M6025 4330 c3 -5 11 -10 16 -10 6 0 7 5 4 10 -3 6 -11 10 -16 10 -6
0 -7 -4 -4 -10z"/>
<path d="M8740 4310 c0 -5 5 -10 10 -10 6 0 10 5 10 10 0 6 -4 10 -10 10 -5 0
-10 -4 -10 -10z"/>
<path d="M8790 4290 c0 -5 5 -10 11 -10 5 0 7 5 4 10 -3 6 -8 10 -11 10 -2 0
-4 -4 -4 -10z"/>
<path d="M6101 4205 c12 -19 25 -32 30 -29 10 6 -27 64 -41 64 -5 0 0 -16 11
-35z"/>
<path d="M7880 3890 c8 -5 22 -10 30 -10 13 0 13 1 0 10 -8 5 -22 10 -30 10
-13 0 -13 -1 0 -10z"/>
<path d="M4425 3350 c3 -5 8 -10 11 -10 2 0 4 5 4 10 0 6 -5 10 -11 10 -5 0
-7 -4 -4 -10z"/>
<path d="M7610 3050 c-24 -15 -7 -19 20 -5 15 8 19 14 10 14 -8 1 -22 -3 -30
-9z"/>
<path d="M7850 3051 c0 -5 -9 -11 -20 -14 -11 -3 -20 -13 -20 -22 0 -17 11
-14 43 13 19 17 22 32 7 32 -5 0 -10 -4 -10 -9z"/>
<path d="M7846 2991 c-19 -21 -12 -28 13 -12 7 5 12 14 9 21 -2 7 -10 4 -22
-9z"/>
<path d="M6240 2980 c0 -6 7 -10 15 -10 8 0 15 2 15 4 0 2 -7 6 -15 10 -8 3
-15 1 -15 -4z"/>
<path d="M6536 2954 c-4 -12 -13 -14 -32 -10 -20 5 -31 0 -56 -26 l-31 -33 29
-3 c16 -2 30 1 32 6 1 5 11 8 20 5 10 -2 28 5 41 16 13 12 28 21 33 21 15 0 9
28 -8 34 -21 8 -21 8 -28 -10z"/>
<path d="M6365 2881 c-3 -5 2 -11 10 -15 8 -3 17 -1 20 3 3 5 -2 11 -10 15 -8
3 -17 1 -20 -3z"/>
<path d="M7045 2883 c-35 -6 -77 -47 -69 -68 9 -22 26 -18 19 4 -8 27 15 38
33 15 11 -15 15 -16 19 -5 3 7 14 21 24 29 19 17 25 33 12 31 -5 -1 -21 -4
-38 -6z"/>
<path d="M7157 2860 c-10 -12 -22 -18 -29 -14 -6 4 -9 1 -6 -7 8 -26 44 -22
56 6 7 14 12 28 12 30 0 11 -17 3 -33 -15z"/>
<path d="M7770 2860 c0 -5 5 -10 10 -10 6 0 10 5 10 10 0 6 -4 10 -10 10 -5 0
-10 -4 -10 -10z"/>
<path d="M7800 2856 c0 -11 8 -16 28 -15 15 0 21 3 12 6 -8 3 -21 10 -27 16
-9 7 -13 5 -13 -7z"/>
<path d="M7075 2820 c-3 -5 -2 -10 4 -10 5 0 13 5 16 10 3 6 2 10 -4 10 -5 0
-13 -4 -16 -10z"/>
<path d="M7680 2809 c-6 -11 -10 -25 -7 -32 2 -6 11 3 19 21 18 35 6 45 -12
11z"/>
<path d="M7790 2795 c-17 -21 -5 -31 15 -12 8 9 15 18 15 21 0 11 -18 6 -30
-9z"/>
<path d="M7341 2741 c-10 -6 -10 -10 -1 -16 13 -8 24 -1 19 14 -3 6 -10 7 -18
2z"/>
<path d="M6930 2709 c0 -5 5 -7 10 -4 6 3 10 8 10 11 0 2 -4 4 -10 4 -5 0 -10
-5 -10 -11z"/>
<path d="M6848 2693 c7 -3 16 -2 19 1 4 3 -2 6 -13 5 -11 0 -14 -3 -6 -6z"/>
<path d="M12370 7310 c0 -5 7 -10 16 -10 8 0 12 5 9 10 -3 6 -10 10 -16 10 -5
0 -9 -4 -9 -10z"/>
<path d="M12510 6500 c-9 -6 -10 -10 -3 -10 6 0 15 5 18 10 8 12 4 12 -15 0z"/>
<path d="M12458 6463 c6 -2 18 -2 25 0 6 3 1 5 -13 5 -14 0 -19 -2 -12 -5z"/>
<path d="M12390 6449 c0 -5 5 -7 10 -4 6 3 10 8 10 11 0 2 -4 4 -10 4 -5 0
-10 -5 -10 -11z"/>
<path d="M12395 6400 c-3 -5 1 -10 10 -10 9 0 13 5 10 10 -3 6 -8 10 -10 10
-2 0 -7 -4 -10 -10z"/>
<path d="M12432 6379 c2 -6 8 -10 13 -10 5 0 11 4 13 10 2 6 -4 11 -13 11 -9
0 -15 -5 -13 -11z"/>
<path d="M12590 6310 c0 -5 5 -10 10 -10 6 0 10 5 10 10 0 6 -4 10 -10 10 -5
0 -10 -4 -10 -10z"/>
<path d="M12420 6250 c0 -5 6 -10 14 -10 8 0 18 5 21 10 3 6 -3 10 -14 10 -12
0 -21 -4 -21 -10z"/>
<path d="M12595 6170 c4 -6 11 -8 16 -5 14 9 11 15 -7 15 -8 0 -12 -5 -9 -10z"/>
<path d="M12448 6164 c-11 -10 3 -34 19 -34 8 0 13 7 11 17 -3 18 -20 27 -30
17z"/>
<path d="M12530 6055 c-10 -12 -10 -18 0 -30 7 -8 17 -15 23 -15 7 0 7 4 -1
12 -17 17 -15 31 4 24 14 -5 15 -4 4 9 -15 18 -15 18 -30 0z"/>
<path d="M12490 6039 c0 -5 5 -7 10 -4 6 3 10 8 10 11 0 2 -4 4 -10 4 -5 0
-10 -5 -10 -11z"/>
<path d="M12815 6010 c-3 -5 1 -10 9 -10 9 0 16 5 16 10 0 6 -4 10 -9 10 -6 0
-13 -4 -16 -10z"/>
<path d="M12770 5964 c0 -8 5 -12 10 -9 6 3 10 10 10 16 0 5 -4 9 -10 9 -5 0
-10 -7 -10 -16z"/>
<path d="M12720 5919 c0 -5 5 -7 10 -4 6 3 10 8 10 11 0 2 -4 4 -10 4 -5 0
-10 -5 -10 -11z"/>
<path d="M13810 6965 c0 -8 5 -15 10 -15 6 0 10 7 10 15 0 8 -4 15 -10 15 -5
0 -10 -7 -10 -15z"/>
<path d="M14060 6864 c-9 -15 -19 -23 -29 -19 -20 8 -31 -13 -31 -62 0 -23 -5
-54 -12 -68 -15 -34 5 -87 26 -64 7 8 21 41 31 74 11 33 22 65 26 70 12 18 20
83 11 89 -5 3 -15 -6 -22 -20z"/>
<path d="M13990 6600 c-7 -14 -7 -20 0 -20 5 0 10 5 10 10 0 6 7 10 16 10 8 0
12 5 9 10 -10 16 -23 12 -35 -10z"/>
<path d="M13906 6395 c-3 -9 0 -15 9 -15 16 0 20 16 6 24 -5 3 -11 -1 -15 -9z"/>
<path d="M13430 5630 c0 -5 5 -10 11 -10 5 0 7 5 4 10 -3 6 -8 10 -11 10 -2 0
-4 -4 -4 -10z"/>
<path d="M12670 5070 c-8 -5 -31 -10 -51 -10 -19 0 -44 -7 -55 -15 -17 -14
-14 -15 41 -8 33 4 93 7 133 6 41 -1 70 3 66 8 -3 5 -16 9 -30 9 -13 0 -24 5
-24 10 0 13 -60 13 -80 0z"/>
<path d="M12940 4880 c0 -5 5 -10 10 -10 6 0 10 5 10 10 0 6 -4 10 -10 10 -5
0 -10 -4 -10 -10z"/>
<path d="M14727 6813 c-4 -3 -7 -11 -7 -17 0 -6 5 -5 12 2 6 6 9 14 7 17 -3 3
-9 2 -12 -2z"/>
<path d="M14393 6678 c-6 -13 -7 -32 -3 -42 6 -19 7 -19 28 2 12 12 22 31 22
42 0 28 -34 26 -47 -2z"/>
<path d="M9690 5770 c0 -5 5 -10 10 -10 6 0 10 5 10 10 0 6 -4 10 -10 10 -5 0
-10 -4 -10 -10z"/>
<path d="M9730 5765 c0 -8 5 -15 10 -15 6 0 10 7 10 15 0 8 -4 15 -10 15 -5 0
-10 -7 -10 -15z"/>
<path d="M10274 5746 c-3 -9 -4 -25 -1 -36 7 -26 -21 -50 -33 -29 -8 11 -12
11 -22 1 -10 -10 -10 -14 1 -21 17 -11 -2 -23 -23 -15 -17 7 -22 -11 -6 -21
18 -11 11 -33 -20 -62 -33 -31 -54 -92 -67 -193 -9 -77 -6 -110 12 -124 7 -6
16 -28 19 -49 4 -21 15 -47 24 -58 9 -12 25 -30 35 -41 9 -12 17 -25 17 -29 0
-4 9 -10 19 -14 12 -4 18 -12 14 -20 -3 -8 1 -17 9 -20 13 -5 16 -21 21 -132
0 -13 27 -5 27 9 0 5 -4 6 -10 3 -14 -9 -12 2 4 28 17 27 15 59 -5 83 -9 11
-13 34 -11 71 2 30 0 53 -6 53 -5 0 -12 27 -16 60 -4 33 -11 62 -16 65 -11 7
-5 222 8 238 5 7 15 30 22 52 7 22 19 47 26 55 8 10 12 32 10 55 -4 47 1 60
19 45 9 -7 20 -7 36 0 l24 11 -23 -5 c-19 -4 -21 -2 -11 10 16 19 3 32 -39 40
-24 5 -33 3 -38 -10z m21 -764 c-3 -3 -11 0 -18 7 -9 10 -8 11 6 5 10 -3 15
-9 12 -12z"/>
<path d="M9756 5725 c-9 -26 -7 -32 5 -12 6 10 9 21 6 23 -2 3 -7 -2 -11 -11z"/>
<path d="M10210 5710 c0 -5 5 -10 10 -10 6 0 10 5 10 10 0 6 -4 10 -10 10 -5
0 -10 -4 -10 -10z"/>
<path d="M9976 5343 c-2 -10 -12 -49 -21 -88 -9 -38 -22 -79 -29 -90 -6 -11
-12 -27 -11 -35 0 -8 -3 -18 -8 -21 -5 -4 -4 -15 2 -27 8 -16 8 -24 -2 -34
-24 -23 -8 -38 41 -38 36 -1 43 -3 30 -10 -16 -10 -15 -14 4 -61 23 -55 27
-54 51 8 15 38 15 42 -1 48 -15 6 -14 8 6 16 13 5 28 6 34 3 6 -4 6 1 -1 13
-7 14 -7 23 1 31 9 9 7 16 -6 31 -9 10 -18 29 -19 42 0 13 -5 26 -9 29 -4 3
-10 28 -13 55 -15 126 -34 178 -49 128z"/>
<path d="M9840 5194 c0 -8 5 -12 10 -9 6 4 8 11 5 16 -9 14 -15 11 -15 -7z"/>
<path d="M10314 5039 c-4 -7 -3 -9 4 -5 5 3 13 0 15 -6 4 -9 6 -10 6 -1 1 17
-16 25 -25 12z"/>
<path d="M9571 5011 c-1 -24 2 -32 9 -25 7 7 7 19 1 35 -9 23 -10 22 -10 -10z"/>
<path d="M10280 5029 c0 -5 5 -7 10 -4 6 3 10 8 10 11 0 2 -4 4 -10 4 -5 0
-10 -5 -10 -11z"/>
<path d="M10627 5029 c7 -7 15 -10 18 -7 3 3 -2 9 -12 12 -14 6 -15 5 -6 -5z"/>
<path d="M9886 4983 c3 -10 10 -27 14 -38 13 -32 18 -64 11 -68 -3 -2 0 -2 7
-1 6 2 12 -1 12 -7 0 -6 6 -9 13 -6 15 5 10 39 -9 53 -8 7 -14 16 -13 20 4 25
-3 44 -21 54 -17 9 -19 8 -14 -7z m49 -83 c3 -5 1 -10 -4 -10 -6 0 -11 5 -11
10 0 6 2 10 4 10 3 0 8 -4 11 -10z"/>
<path d="M10081 4967 c-11 -14 -41 -80 -42 -94 0 -5 -6 -15 -12 -23 -10 -13
-10 -13 4 -3 9 7 18 10 21 7 3 -3 9 -1 13 5 3 6 1 11 -5 11 -6 0 -8 5 -3 13 4
6 8 18 10 26 1 7 7 19 14 25 9 8 9 6 0 -11 -10 -19 -9 -23 4 -23 9 0 13 5 10
10 -4 6 -2 17 5 25 8 9 8 15 0 20 -6 3 -8 11 -5 16 9 14 -1 11 -14 -4z"/>
<path d="M10125 4960 c-3 -6 1 -7 9 -4 18 7 21 14 7 14 -6 0 -13 -4 -16 -10z"/>
<path d="M10555 4959 c-4 -6 -5 -12 -2 -15 2 -3 7 2 10 11 7 17 1 20 -8 4z"/>
<path d="M9503 4921 c0 -11 4 -18 8 -15 4 2 10 -2 12 -8 3 -8 6 -6 6 5 1 9 -5
17 -11 17 -9 0 -8 4 2 10 13 8 13 10 -2 10 -10 0 -16 -7 -15 -19z"/>
<path d="M10070 4880 c0 -5 7 -10 16 -10 8 0 12 5 9 10 -3 6 -10 10 -16 10 -5
0 -9 -4 -9 -10z"/>
<path d="M9505 4870 c3 -5 8 -10 11 -10 2 0 4 5 4 10 0 6 -5 10 -11 10 -5 0
-7 -4 -4 -10z"/>
<path d="M10305 4870 c-3 -6 1 -7 9 -4 18 7 21 14 7 14 -6 0 -13 -4 -16 -10z"/>
<path d="M10070 4849 c0 -5 5 -7 10 -4 6 3 10 8 10 11 0 2 -4 4 -10 4 -5 0
-10 -5 -10 -11z"/>
<path d="M10093 4845 c-7 -8 -21 -12 -30 -11 -16 3 -18 -6 -21 -68 -1 -39 -5
-90 -7 -114 -4 -29 0 -50 10 -64 8 -13 12 -32 9 -45 -5 -16 -2 -23 9 -23 8 0
17 -4 19 -9 5 -14 58 -1 58 15 0 7 8 17 17 23 13 7 14 12 6 23 -6 7 -14 42
-17 77 -3 36 -12 72 -21 81 -8 9 -15 29 -15 43 0 15 -4 27 -10 27 -5 0 -10 7
-10 16 0 8 4 13 8 10 4 -2 9 4 9 15 2 22 2 22 -14 4z"/>
<path d="M10430 4851 c0 -6 4 -13 10 -16 6 -3 7 1 4 9 -7 18 -14 21 -14 7z"/>
<path d="M9990 4818 c0 -14 15 -16 27 -3 10 11 9 13 -7 12 -11 -1 -20 -5 -20
-9z"/>
<path d="M9470 4715 c0 -22 3 -25 26 -19 24 6 42 1 106 -32 46 -25 56 -19 48
26 -11 63 -18 63 -36 2 -3 -10 -11 -9 -41 3 -20 8 -43 21 -51 27 -8 7 -23 13
-33 15 -14 2 -19 -3 -19 -22z"/>
<path d="M9460 4662 c0 -10 -4 -22 -9 -27 -5 -6 -12 -39 -15 -75 -4 -44 -3
-57 3 -40 5 14 9 37 10 51 1 15 8 40 16 55 17 34 19 54 5 54 -5 0 -10 -8 -10
-18z"/>
<path d="M9774 4565 c22 -17 36 -19 36 -6 0 10 -24 21 -43 21 -7 0 -3 -7 7
-15z"/>
<path d="M10811 4563 c7 -10 14 -19 15 -21 1 -1 4 6 7 18 4 15 0 20 -15 20
-18 0 -19 -2 -7 -17z"/>
<path d="M9920 4560 c0 -5 7 -10 15 -10 8 0 15 5 15 10 0 6 -7 10 -15 10 -8 0
-15 -4 -15 -10z"/>
<path d="M10732 4527 c15 -12 15 -14 0 -25 -14 -9 -11 -10 16 -5 25 4 32 2 32
-10 0 -9 -9 -22 -21 -30 -13 -10 -17 -17 -9 -22 6 -4 17 -1 25 5 8 6 18 9 24
6 11 -7 25 29 17 43 -4 5 0 11 6 13 19 7 -20 24 -67 31 -34 5 -37 4 -23 -6z"/>
<path d="M9420 4465 c0 -14 2 -25 4 -25 2 0 6 11 8 25 3 14 1 25 -3 25 -5 0
-9 -11 -9 -25z"/>
<path d="M10035 4430 c-3 -5 1 -10 9 -10 9 0 16 5 16 10 0 6 -4 10 -9 10 -6 0
-13 -4 -16 -10z"/>
<path d="M9405 4410 c3 -5 8 -10 11 -10 2 0 4 5 4 10 0 6 -5 10 -11 10 -5 0
-7 -4 -4 -10z"/>
<path d="M11070 4390 c0 -16 5 -30 10 -30 6 0 10 14 10 30 0 17 -4 30 -10 30
-5 0 -10 -13 -10 -30z"/>
<path d="M11110 4406 c0 -7 3 -34 6 -60 7 -45 8 -46 25 -30 26 24 24 56 -6 82
-17 15 -25 18 -25 8z"/>
<path d="M11192 4360 c0 -14 2 -19 5 -12 2 6 2 18 0 25 -3 6 -5 1 -5 -13z"/>
<path d="M10071 4333 c-1 -23 -4 -48 -7 -57 -3 -9 -2 -16 4 -16 5 0 15 15 22
33 7 17 20 38 28 45 14 10 12 12 -10 12 -15 0 -29 6 -31 13 -3 6 -6 -7 -6 -30z"/>
<path d="M11134 4276 c-3 -9 -11 -13 -18 -10 -6 3 -4 -1 5 -8 9 -7 18 -22 20
-33 3 -11 13 -21 23 -23 19 -4 55 -39 56 -55 0 -4 12 -19 26 -32 34 -32 29
-61 -10 -57 -25 3 -28 1 -21 -15 4 -10 8 -28 10 -40 3 -32 22 -51 58 -59 18
-3 35 -11 39 -17 4 -6 10 2 14 17 5 21 3 31 -10 38 -9 5 -16 15 -16 23 0 7 -5
15 -11 17 -5 2 -10 19 -9 38 3 75 1 121 -10 160 -10 38 -30 55 -30 26 0 -8 -5
-18 -12 -22 -7 -5 -9 -1 -6 12 3 13 -3 26 -19 37 -25 19 -30 9 -12 -25 8 -14
8 -23 0 -31 -15 -15 -41 10 -41 39 0 28 -18 41 -26 20z"/>
<path d="M10002 4233 c-30 -6 -74 -99 -71 -152 1 -20 -1 -50 -5 -68 -4 -19 -3
-34 3 -38 6 -3 11 -1 11 5 0 6 11 15 25 20 15 6 27 20 31 37 3 15 17 60 30 99
13 39 24 78 24 87 0 17 -5 18 -48 10z"/>
<path d="M10068 4172 c-10 -2 -18 -8 -18 -13 0 -5 8 -10 18 -11 9 -1 24 -2 32
-4 8 -1 29 -2 47 -3 32 -1 32 -1 29 -48 -2 -27 -4 -52 -6 -58 -1 -5 -2 -19 -1
-30 2 -18 4 -17 13 5 6 14 12 45 14 70 3 25 11 50 20 57 31 23 5 36 -61 29
-35 -3 -65 -3 -67 2 -1 4 -11 6 -20 4z"/>
<path d="M10240 3991 c0 -25 -20 -38 -31 -20 -7 11 -9 11 -9 1 0 -7 -11 -17
-25 -22 -14 -5 -25 -14 -25 -19 0 -5 -12 -16 -26 -26 -27 -17 -27 -17 -22 9 6
33 -17 36 -26 4 -9 -33 -8 -38 8 -38 8 0 16 -6 18 -12 3 -8 15 -2 32 17 18 20
29 26 33 18 2 -7 11 -13 19 -13 8 0 14 -7 14 -15 0 -8 -5 -15 -11 -15 -5 0 -7
5 -4 10 3 6 1 10 -5 10 -6 0 -10 -6 -9 -12 4 -31 -2 -59 -11 -53 -6 4 -10 -10
-10 -34 0 -23 5 -41 10 -41 6 0 10 11 10 25 0 13 6 28 13 32 14 10 37 70 37
101 0 12 5 22 10 22 6 0 10 9 10 21 0 11 5 29 10 39 7 13 7 21 0 25 -5 3 -10
-3 -10 -14z"/>
<path d="M9948 3803 c7 -3 16 -2 19 1 4 3 -2 6 -13 5 -11 0 -14 -3 -6 -6z"/>
<path d="M10072 3788 c-18 -24 -24 -58 -10 -58 15 0 49 55 40 64 -9 9 -19 7
-30 -6z"/>
<path d="M9795 3774 c33 -26 54 -35 59 -25 3 4 -14 15 -37 24 -37 14 -39 15
-22 1z"/>
<path d="M9875 3740 c3 -5 8 -10 11 -10 2 0 4 5 4 10 0 6 -5 10 -11 10 -5 0
-7 -4 -4 -10z"/>
<path d="M10140 3719 c0 -5 5 -7 10 -4 6 3 10 8 10 11 0 2 -4 4 -10 4 -5 0
-10 -5 -10 -11z"/>
<path d="M10016 3704 c9 -4 8 -17 -2 -51 -18 -58 -17 -63 1 -63 9 0 21 12 27
26 l12 26 89 -7 c92 -7 111 4 44 24 -18 5 -50 16 -72 24 -37 13 -124 32 -99
21z"/>
<path d="M10275 3614 c17 -9 46 -26 65 -39 35 -23 180 -60 203 -52 26 9 -226
107 -275 107 -21 -1 -21 -2 7 -16z"/>
<path d="M11290 3230 c0 -5 5 -10 10 -10 6 0 10 5 10 10 0 6 -4 10 -10 10 -5
0 -10 -4 -10 -10z"/>
<path d="M10302 3148 c-13 -13 -16 -60 -5 -71 10 -10 43 23 43 43 0 26 -24 42
-38 28z"/>
<path d="M10840 2840 c0 -13 5 -20 13 -17 6 2 12 10 12 17 0 7 -6 15 -12 18
-8 2 -13 -5 -13 -18z"/>
<path d="M10335 2798 c4 -48 4 -48 20 -48 16 0 30 42 21 65 -3 8 -14 15 -24
15 -15 0 -19 -6 -17 -32z"/>
<path d="M10720 2679 c0 -5 5 -7 10 -4 6 3 10 8 10 11 0 2 -4 4 -10 4 -5 0
-10 -5 -10 -11z"/>
<path d="M10800 2591 c0 -4 -11 -14 -25 -21 -14 -8 -24 -19 -21 -26 2 -6 -2
-21 -10 -32 -18 -26 -8 -52 20 -52 27 0 51 39 42 67 -4 12 0 25 9 33 19 16 19
26 0 34 -8 3 -15 2 -15 -3z"/>
<path d="M10586 2515 c-15 -8 -37 -15 -47 -15 -10 0 -24 -9 -31 -20 -7 -11
-19 -20 -26 -20 -8 0 -12 -6 -9 -12 2 -7 11 -12 21 -10 9 2 16 -3 16 -10 0 -9
3 -10 8 -2 4 6 22 15 40 19 24 5 33 3 38 -8 5 -13 9 -12 25 4 29 29 49 23 103
-26 38 -36 51 -43 62 -34 18 15 18 29 -1 29 -9 0 -27 7 -40 16 -14 9 -25 13
-25 9 0 -4 -7 -2 -15 5 -9 7 -13 21 -9 35 4 16 -1 27 -17 39 -29 20 -56 20
-93 1z"/>
<path d="M10796 2365 c-3 -8 -1 -15 4 -15 6 0 10 7 10 15 0 8 -2 15 -4 15 -2
0 -6 -7 -10 -15z"/>
<path d="M13717 4460 c-11 -11 -14 -20 -8 -24 5 -4 15 3 21 15 15 27 10 31
-13 9z"/>
<path d="M13707 4213 c-4 -3 -7 -12 -7 -20 0 -17 26 -17 33 1 8 21 -11 35 -26
19z"/>
<path d="M13472 4066 c1 -10 8 -17 13 -17 15 1 12 24 -3 29 -9 3 -13 -2 -10
-12z"/>
<path d="M11625 5260 c3 -5 12 -7 20 -3 21 7 19 13 -6 13 -11 0 -18 -4 -14
-10z"/>
<path d="M11580 5190 c0 -5 5 -10 10 -10 6 0 10 5 10 10 0 6 -4 10 -10 10 -5
0 -10 -4 -10 -10z"/>
<path d="M11547 5173 c-4 -3 -7 -11 -7 -17 0 -6 5 -5 12 2 6 6 9 14 7 17 -3 3
-9 2 -12 -2z"/>
<path d="M11406 5111 c-4 -7 -5 -15 -2 -18 9 -9 19 4 14 18 -4 11 -6 11 -12 0z"/>
<path d="M13393 4895 c-8 -23 4 -30 21 -12 8 8 12 17 9 21 -11 11 -23 7 -30
-9z"/>
<path d="M11691 4363 c0 -13 -5 -23 -11 -23 -13 0 -6 -78 8 -92 7 -7 14 2 23
32 9 29 9 44 2 48 -6 4 -13 18 -16 32 -4 23 -4 23 -6 3z"/>
<path d="M12340 4323 c0 -13 5 -23 10 -23 13 0 13 11 0 30 -8 12 -10 11 -10
-7z"/>
<path d="M12331 4274 c0 -11 3 -14 6 -6 3 7 2 16 -1 19 -3 4 -6 -2 -5 -13z"/>
<path d="M12620 4130 c0 -5 5 -10 10 -10 6 0 10 5 10 10 0 6 -4 10 -10 10 -5
0 -10 -4 -10 -10z"/>
<path d="M11692 3980 c0 -14 2 -19 5 -12 2 6 2 18 0 25 -3 6 -5 1 -5 -13z"/>
<path d="M11690 3885 c0 -14 5 -25 10 -25 6 0 10 11 10 25 0 14 -4 25 -10 25
-5 0 -10 -11 -10 -25z"/>
<path d="M12208 3670 c-3 -17 -1 -33 4 -36 4 -3 8 11 8 30 0 44 -6 47 -12 6z"/>
<path d="M12196 3598 c-8 -31 -8 -53 1 -45 7 7 15 67 9 67 -2 0 -6 -10 -10
-22z"/>
<path d="M11725 3590 c3 -5 10 -10 16 -10 5 0 9 5 9 10 0 6 -7 10 -16 10 -8 0
-12 -4 -9 -10z"/>
<path d="M12185 3530 c-3 -5 -1 -10 4 -10 6 0 11 5 11 10 0 6 -2 10 -4 10 -3
0 -8 -4 -11 -10z"/>
<path d="M12181 3484 c0 -11 3 -14 6 -6 3 7 2 16 -1 19 -3 4 -6 -2 -5 -13z"/>
<path d="M11780 3460 c0 -5 5 -10 11 -10 5 0 7 5 4 10 -3 6 -8 10 -11 10 -2 0
-4 -4 -4 -10z"/>
<path d="M11994 3430 c3 -18 6 -36 6 -41 0 -5 6 -6 14 -3 11 4 13 0 9 -15 -3
-13 -1 -21 7 -21 7 0 10 7 6 15 -3 8 -1 15 4 15 14 0 0 29 -28 57 l-25 25 7
-32z"/>
<path d="M11805 3430 c3 -5 8 -10 11 -10 2 0 4 5 4 10 0 6 -5 10 -11 10 -5 0
-7 -4 -4 -10z"/>
<path d="M11840 3306 c0 -2 7 -6 15 -10 8 -3 15 -1 15 4 0 6 -7 10 -15 10 -8
0 -15 -2 -15 -4z"/>
<path d="M12020 3230 c0 -5 5 -10 10 -10 6 0 10 5 10 10 0 6 -4 10 -10 10 -5
0 -10 -4 -10 -10z"/>
<path d="M13970 3722 c0 -4 9 -15 20 -24 22 -20 39 -5 20 17 -13 16 -40 20
-40 7z"/>
<path d="M8137 3053 c-4 -3 -7 -11 -7 -17 0 -6 5 -5 12 2 6 6 9 14 7 17 -3 3
-9 2 -12 -2z"/>
<path d="M8181 3014 c0 -11 3 -14 6 -6 3 7 2 16 -1 19 -3 4 -6 -2 -5 -13z"/>
<path d="M8116 3005 c-9 -26 -7 -32 5 -12 6 10 9 21 6 23 -2 3 -7 -2 -11 -11z"/>
<path d="M8158 2912 c-4 -15 -1 -18 14 -14 11 2 16 8 11 11 -4 3 -11 10 -14
14 -4 4 -9 -1 -11 -11z"/>
<path d="M8121 2831 c-12 -22 -5 -27 19 -11 11 7 12 12 3 21 -8 8 -14 6 -22
-10z"/>
<path d="M5825 2960 c3 -5 8 -10 11 -10 2 0 4 5 4 10 0 6 -5 10 -11 10 -5 0
-7 -4 -4 -10z"/>
<path d="M5846 2925 c4 -8 10 -15 15 -15 4 0 6 7 3 15 -4 8 -10 15 -15 15 -4
0 -6 -7 -3 -15z"/>
<path d="M11360 2756 c0 -9 5 -16 10 -16 6 0 10 4 10 9 0 6 -4 13 -10 16 -5 3
-10 -1 -10 -9z"/>
<path d="M5630 2160 c0 -5 4 -10 9 -10 6 0 13 5 16 10 3 6 -1 10 -9 10 -9 0
-16 -4 -16 -10z"/>
<path d="M11347 433 c-14 -13 -7 -93 8 -99 23 -9 45 15 45 50 0 43 -31 72 -53
49z"/>
<path d="M7394 365 c-3 -8 -3 -19 0 -24 10 -16 36 -1 36 20 0 22 -28 26 -36 4z"/>
<path d="M8210 419 c-21 -39 10 -103 41 -83 13 8 11 78 -3 92 -17 17 -26 15
-38 -9z"/>
<path d="M8792 428 c-16 -16 -15 -60 2 -83 12 -16 16 -17 30 -6 27 23 16 101
-14 101 -3 0 -11 -5 -18 -12z"/>
<path d="M10114 437 c-10 -27 0 -72 16 -72 11 0 15 11 15 39 0 40 -20 61 -31
33z"/>
<path d="M10099 284 c-11 -14 -10 -18 6 -30 24 -18 36 -18 60 0 26 19 13 46
-23 46 -16 0 -36 -7 -43 -16z"/>
<path d="M10672 428 c-19 -19 -14 -28 14 -28 18 0 25 5 22 17 -4 21 -21 26
-36 11z"/>
<path d="M11172 428 c-19 -19 -14 -28 14 -28 18 0 25 5 22 17 -4 21 -21 26
-36 11z"/>
<path d="M11887 434 c-14 -15 -6 -34 14 -34 14 0 19 5 17 17 -3 18 -20 27 -31
17z"/>
</g>
</svg>
